{

glyphs = (
{
glyphname = .notdef;
layers = (
{
layerId = "480801EC-13EF-4D5E-B695-C7354D4C452E";
name = Regular;
paths = (
{
closed = 1;
nodes = (
"149.975 1443.76 LINE",
"149.975 -362 LINE",
"1173.8 -362 LINE",
"1173.8 1443.76 LINE"
);
},
{
closed = 1;
nodes = (
"1059.82 -68 LINE",
"264.956 -68 LINE",
"264.956 1328.78 LINE",
"1059.82 1328.78 LINE"
);
}
);
width = 1323;
}
);
},
{
glyphname = exclam;
layers = (
{
layerId = "480801EC-13EF-4D5E-B695-C7354D4C452E";
name = Regular;
paths = (
{
closed = 1;
nodes = (
"391.935 253.958 LINE",
"178.97 253.958 LINE",
"158.974 0 LINE",
"411.931 0 LINE"
);
},
{
closed = 1;
nodes = (
"421.93 480.92 LINE",
"391.935 837.861 LINE",
"381.936 1492.75 LINE",
"188.969 1492.75 LINE",
"168.972 837.861 LINE",
"149.975 480.92 LINE"
);
}
);
width = 571;
}
);
unicode = 0021;
},
{
glyphname = quotedbl;
layers = (
{
layerId = "480801EC-13EF-4D5E-B695-C7354D4C452E";
name = Regular;
paths = (
{
closed = 1;
nodes = (
"350.942 905.849 LINE",
"339.943 1492.75 LINE",
"160.973 1492.75 LINE",
"149.975 905.849 LINE"
);
},
{
closed = 1;
nodes = (
"750.875 905.849 LINE",
"739.877 1492.75 LINE",
"559.907 1492.75 LINE",
"549.908 905.849 LINE"
);
}
);
width = 900;
}
);
unicode = 0022;
},
{
glyphname = numbersign;
layers = (
{
layerId = "480801EC-13EF-4D5E-B695-C7354D4C452E";
name = Regular;
paths = (
{
closed = 1;
nodes = (
"747.876 900.85 LINE",
"1038.83 900.85 LINE",
"956.841 566.906 LINE",
"663.89 566.906 LINE"
);
},
{
closed = 1;
nodes = (
"263.956 1054.82 LINE",
"263.956 900.85 LINE",
"585.902 900.85 LINE",
"501.916 566.906 LINE",
"149.975 566.906 LINE",
"149.975 413.931 LINE",
"464.923 413.931 LINE",
"360.94 0 LINE",
"521.913 0 LINE",
"624.896 413.931 LINE",
"917.847 413.931 LINE",
"814.864 0 LINE",
"974.838 0 LINE",
"1078.82 413.931 LINE",
"1435.76 413.931 LINE",
"1435.76 566.906 LINE",
"1117.81 566.906 LINE",
"1199.8 900.85 LINE",
"1550.74 900.85 LINE",
"1550.74 1054.82 LINE",
"1238.79 1054.82 LINE",
"1341.78 1469.76 LINE",
"1181.8 1469.76 LINE",
"1076.82 1054.82 LINE",
"784.869 1054.82 LINE",
"888.852 1469.76 LINE",
"726.879 1469.76 LINE",
"624.896 1054.82 LINE"
);
}
);
width = 1700;
}
);
unicode = 0023;
},
{
glyphname = dollar;
layers = (
{
layerId = "480801EC-13EF-4D5E-B695-C7354D4C452E";
name = Regular;
paths = (
{
closed = 1;
nodes = (
"946.842 24.9958 OFFCURVE",
"1113.81 155.974 OFFCURVE",
"1117.81 380.937 CURVE",
"1108.82 588.902 OFFCURVE",
"985.836 687.885 OFFCURVE",
"682.886 739.877 CURVE",
"690.885 1205.8 LINE",
"813.865 1198.8 OFFCURVE",
"929.845 1166.81 OFFCURVE",
"1038.83 1107.82 CURVE",
"1041.83 1262.79 LINE",
"932.845 1301.78 OFFCURVE",
"816.864 1323.78 OFFCURVE",
"692.885 1330.78 CURVE",
"696.884 1562.74 LINE",
"596.901 1564.74 LINE",
"592.901 1329.78 LINE",
"320.947 1316.78 OFFCURVE",
"168.972 1189.8 OFFCURVE",
"164.973 972.838 CURVE",
"173.971 772.871 OFFCURVE",
"289.952 659.89 OFFCURVE",
"570.905 606.899 CURVE",
"563.906 211.965 LINE",
"428.929 214.964 OFFCURVE",
"288.952 260.957 OFFCURVE",
"153.974 348.942 CURVE",
"149.975 108.982 LINE",
"289.952 45.9923 OFFCURVE",
"431.928 13.9977 OFFCURVE",
"558.907 9.99834 CURVE",
"534.911 -291 LINE",
"714.881 -294 LINE",
"699.883 8.9985 LINE"
);
},
{
closed = 1;
nodes = (
"397.934 777.871 OFFCURVE",
"306.949 857.857 OFFCURVE",
"306.949 972.838 CURVE SMOOTH",
"306.949 1089.82 OFFCURVE",
"406.932 1182.8 OFFCURVE",
"574.904 1199.8 CURVE",
"564.906 749.875 LINE"
);
},
{
closed = 1;
nodes = (
"838.86 545.909 OFFCURVE",
"920.847 478.92 OFFCURVE",
"920.847 361.94 CURVE SMOOTH",
"920.847 241.96 OFFCURVE",
"827.862 227.962 OFFCURVE",
"684.886 204.966 CURVE",
"674.888 577.904 LINE"
);
}
);
width = 1267;
}
);
unicode = 0024;
},
{
glyphname = percent;
layers = (
{
layerId = "480801EC-13EF-4D5E-B695-C7354D4C452E";
name = Regular;
paths = (
{
closed = 1;
nodes = (
"1638.73 656.891 OFFCURVE",
"1709.72 557.907 OFFCURVE",
"1709.72 396.934 CURVE SMOOTH",
"1709.72 235.961 OFFCURVE",
"1638.73 136.977 OFFCURVE",
"1525.75 136.977 CURVE SMOOTH",
"1409.77 136.977 OFFCURVE",
"1339.78 235.961 OFFCURVE",
"1339.78 396.934 CURVE SMOOTH",
"1339.78 559.907 OFFCURVE",
"1409.77 656.891 OFFCURVE",
"1525.75 656.891 CURVE SMOOTH"
);
},
{
closed = 1;
nodes = (
"1313.78 783.87 OFFCURVE",
"1179.8 627.896 OFFCURVE",
"1179.8 376.937 CURVE SMOOTH",
"1179.8 127.979 OFFCURVE",
"1312.78 -29 OFFCURVE",
"1525.75 -29 CURVE SMOOTH",
"1734.71 -29 OFFCURVE",
"1869.69 127.979 OFFCURVE",
"1869.69 376.937 CURVE SMOOTH",
"1869.69 625.896 OFFCURVE",
"1736.71 783.87 OFFCURVE",
"1525.75 783.87 CURVE SMOOTH"
);
},
{
closed = 1;
nodes = (
"608.899 1392.77 OFFCURVE",
"679.887 1287.79 OFFCURVE",
"679.887 1119.81 CURVE SMOOTH",
"679.887 947.842 OFFCURVE",
"609.898 845.859 OFFCURVE",
"493.918 845.859 CURVE SMOOTH",
"377.937 845.859 OFFCURVE",
"308.949 947.842 OFFCURVE",
"308.949 1119.81 CURVE SMOOTH",
"308.949 1288.79 OFFCURVE",
"378.937 1392.77 OFFCURVE",
"493.918 1392.77 CURVE SMOOTH"
);
},
{
closed = 1;
nodes = (
"1566.74 1519.75 LINE",
"1405.77 1519.75 LINE",
"462.923 -29 LINE",
"623.896 -29 LINE"
);
},
{
closed = 1;
nodes = (
"282.953 1519.75 OFFCURVE",
"149.975 1361.77 OFFCURVE",
"149.975 1113.81 CURVE SMOOTH",
"149.975 862.856 OFFCURVE",
"281.953 706.882 OFFCURVE",
"493.918 706.882 CURVE SMOOTH",
"705.883 706.882 OFFCURVE",
"839.86 861.857 OFFCURVE",
"839.86 1113.81 CURVE SMOOTH",
"839.86 1362.77 OFFCURVE",
"704.883 1519.75 OFFCURVE",
"493.918 1519.75 CURVE SMOOTH"
);
}
);
width = 2019;
}
);
unicode = 0025;
},
{
glyphname = ampersand;
layers = (
{
layerId = "480801EC-13EF-4D5E-B695-C7354D4C452E";
name = Regular;
paths = (
{
closed = 1;
nodes = (
"907.849 209.965 OFFCURVE",
"795.868 166.972 OFFCURVE",
"667.889 166.972 CURVE SMOOTH",
"452.925 166.972 OFFCURVE",
"292.951 313.948 OFFCURVE",
"292.951 509.915 CURVE SMOOTH",
"292.951 628.895 OFFCURVE",
"347.942 733.878 OFFCURVE",
"470.922 842.86 CURVE",
"1004.83 294.951 LINE"
);
},
{
closed = 1;
nodes = (
"528.912 1017.83 OFFCURVE",
"488.919 1065.82 OFFCURVE",
"469.922 1100.82 CURVE SMOOTH",
"449.925 1134.81 OFFCURVE",
"439.927 1168.81 OFFCURVE",
"439.927 1202.8 CURVE SMOOTH",
"439.927 1319.78 OFFCURVE",
"535.911 1401.77 OFFCURVE",
"675.888 1401.77 CURVE SMOOTH",
"766.872 1401.77 OFFCURVE",
"872.855 1368.77 OFFCURVE",
"988.835 1305.78 CURVE",
"1058.82 1447.76 LINE",
"945.843 1495.75 OFFCURVE",
"836.861 1519.75 OFFCURVE",
"725.879 1519.75 CURVE SMOOTH",
"480.92 1519.75 OFFCURVE",
"319.947 1376.77 OFFCURVE",
"319.947 1160.81 CURVE SMOOTH",
"319.947 1080.82 OFFCURVE",
"353.941 996.834 OFFCURVE",
"417.93 912.848 CURVE",
"238.96 780.87 OFFCURVE",
"149.975 631.895 OFFCURVE",
"149.975 460.923 CURVE SMOOTH",
"149.975 173.971 OFFCURVE",
"375.937 -29 OFFCURVE",
"696.884 -29 CURVE SMOOTH",
"871.855 -29 OFFCURVE",
"1020.83 27.9953 OFFCURVE",
"1159.81 146.976 CURVE",
"1302.78 0 LINE",
"1554.74 0 LINE",
"1275.79 284.953 LINE",
"1399.77 452.925 OFFCURVE",
"1408.77 624.896 OFFCURVE",
"1424.76 800.867 CURVE",
"1238.79 800.867 LINE",
"1230.8 648.892 OFFCURVE",
"1216.8 533.911 OFFCURVE",
"1137.81 414.931 CURVE",
"589.902 954.841 LINE SMOOTH"
);
}
);
width = 1704;
}
);
unicode = 0026;
},
{
glyphname = parenleft;
layers = (
{
layerId = "480801EC-13EF-4D5E-B695-C7354D4C452E";
name = Regular;
paths = (
{
closed = 1;
nodes = (
"298.95 1264.79 OFFCURVE",
"174.971 975.838 OFFCURVE",
"149.975 679.887 CURVE",
"149.975 380.937 OFFCURVE",
"205.966 72.9879 OFFCURVE",
"337.944 -256 CURVE",
"547.909 -270 LINE",
"396.934 49.9917 OFFCURVE",
"366.939 354.941 OFFCURVE",
"353.941 662.89 CURVE",
"366.939 969.839 OFFCURVE",
"481.92 1257.79 OFFCURVE",
"686.886 1546.74 CURVE",
"526.912 1560.74 LINE"
);
}
);
width = 723;
}
);
unicode = 0028;
},
{
glyphname = parenright;
layers = (
{
layerId = "480801EC-13EF-4D5E-B695-C7354D4C452E";
name = Regular;
paths = (
{
closed = 1;
nodes = (
"344.943 1265.79 OFFCURVE",
"379.937 963.84 OFFCURVE",
"379.937 656.891 CURVE",
"351.941 348.942 OFFCURVE",
"239.96 58.9902 OFFCURVE",
"36.9938 -230 CURVE",
"265.956 -244 LINE",
"425.929 50.9915 OFFCURVE",
"573.904 340.943 OFFCURVE",
"573.904 639.893 CURVE",
"572.905 935.844 OFFCURVE",
"526.912 1241.79 OFFCURVE",
"354.941 1572.74 CURVE",
"195.967 1586.74 LINE"
);
}
);
width = 723;
}
);
unicode = 0029;
},
{
glyphname = asterisk;
layers = (
{
layerId = "480801EC-13EF-4D5E-B695-C7354D4C452E";
name = Regular;
paths = (
{
closed = 1;
nodes = (
"687.885 1519.75 LINE",
"533.911 1479.75 LINE",
"573.904 1142.81 LINE",
"237.96 1345.78 LINE",
"149.975 1206.8 LINE",
"538.91 1052.82 LINE",
"179.97 857.857 LINE",
"277.954 719.88 LINE",
"573.904 962.84 LINE",
"573.904 585.902 LINE",
"727.879 615.897 LINE",
"687.885 962.84 LINE",
"1023.83 759.874 LINE",
"1121.81 897.851 LINE",
"722.88 1052.82 LINE",
"1081.82 1246.79 LINE",
"1063.82 1385.77 LINE",
"687.885 1142.81 LINE"
);
}
);
width = 1271;
}
);
unicode = 002A;
},
{
glyphname = plus;
layers = (
{
layerId = "480801EC-13EF-4D5E-B695-C7354D4C452E";
name = Regular;
paths = (
{
closed = 1;
nodes = (
"149.975 726.879 LINE",
"149.975 556.907 LINE",
"706.882 556.907 LINE",
"706.882 0 LINE",
"874.854 0 LINE",
"874.854 556.907 LINE",
"1431.76 556.907 LINE",
"1431.76 726.879 LINE",
"874.854 726.879 LINE",
"874.854 1283.79 LINE",
"706.882 1283.79 LINE",
"706.882 726.879 LINE"
);
}
);
width = 1581;
}
);
unicode = 002B;
},
{
glyphname = comma;
layers = (
{
layerId = "480801EC-13EF-4D5E-B695-C7354D4C452E";
name = Regular;
paths = (
{
closed = 1;
nodes = (
"278.954 -288 LINE",
"502.916 31.9947 LINE",
"502.916 243.959 LINE",
"251.958 243.959 LINE",
"251.958 31.9947 LINE",
"149.975 -288 LINE"
);
}
);
width = 652;
}
);
unicode = 002C;
},
{
glyphname = hyphen;
layers = (
{
layerId = "480801EC-13EF-4D5E-B695-C7354D4C452E";
name = Regular;
paths = (
{
closed = 1;
nodes = (
"695.884 652.891 LINE",
"156.974 642.893 LINE",
"149.975 478.92 LINE",
"688.885 487.919 LINE"
);
}
);
width = 845;
}
);
unicode = 002D;
},
{
glyphname = period;
layers = (
{
layerId = "480801EC-13EF-4D5E-B695-C7354D4C452E";
name = Regular;
paths = (
{
closed = 1;
nodes = (
"448.925 322.946 LINE",
"149.975 322.946 LINE",
"149.975 0 LINE",
"448.925 0 LINE"
);
}
);
width = 598;
}
);
unicode = 002E;
},
{
glyphname = slash;
layers = (
{
layerId = "480801EC-13EF-4D5E-B695-C7354D4C452E";
name = Regular;
paths = (
{
closed = 1;
nodes = (
"877.854 1468.76 LINE",
"727.879 1473.75 LINE",
"149.975 -190 LINE",
"379.937 -198 LINE"
);
}
);
width = 1027;
}
);
unicode = 002F;
},
{
glyphname = zero;
layers = (
{
layerId = "480801EC-13EF-4D5E-B695-C7354D4C452E";
name = Regular;
paths = (
{
closed = 1;
nodes = (
"884.853 1439.76 OFFCURVE",
"989.835 1256.79 OFFCURVE",
"989.835 889.852 CURVE",
"962.84 524.913 OFFCURVE",
"864.856 340.943 OFFCURVE",
"655.891 340.943 CURVE SMOOTH",
"447.925 340.943 OFFCURVE",
"362.94 510.915 OFFCURVE",
"362.94 889.852 CURVE SMOOTH",
"362.94 1256.79 OFFCURVE",
"467.922 1439.76 OFFCURVE",
"675.888 1439.76 CURVE SMOOTH"
);
},
{
closed = 1;
nodes = (
"340.943 1519.75 OFFCURVE",
"162.973 1248.79 OFFCURVE",
"149.975 744.876 CURVE SMOOTH",
"149.975 241.96 OFFCURVE",
"320.947 -29 OFFCURVE",
"655.891 -29 CURVE SMOOTH",
"990.835 -29 OFFCURVE",
"1168.81 241.96 OFFCURVE",
"1181.8 744.876 CURVE SMOOTH",
"1181.8 1248.79 OFFCURVE",
"1010.83 1519.75 OFFCURVE",
"675.888 1519.75 CURVE SMOOTH"
);
}
);
width = 1331;
}
);
unicode = 0030;
},
{
glyphname = one;
layers = (
{
layerId = "480801EC-13EF-4D5E-B695-C7354D4C452E";
name = Regular;
paths = (
{
closed = 1;
nodes = (
"1038.83 279.953 LINE",
"708.882 279.953 LINE",
"708.882 1492.75 LINE",
"506.916 1492.75 LINE",
"149.975 1420.76 LINE",
"149.975 1236.79 LINE",
"508.915 1308.78 LINE",
"508.915 279.953 LINE",
"178.97 279.953 LINE",
"178.97 0 LINE",
"1038.83 0 LINE"
);
}
);
width = 1188;
}
);
unicode = 0031;
},
{
glyphname = two;
layers = (
{
layerId = "480801EC-13EF-4D5E-B695-C7354D4C452E";
name = Regular;
paths = (
{
closed = 1;
nodes = (
"625.896 375.937 OFFCURVE",
"681.886 464.923 OFFCURVE",
"770.872 557.907 CURVE SMOOTH",
"859.857 649.892 OFFCURVE",
"912.848 705.883 OFFCURVE",
"929.845 724.879 CURVE",
"1050.83 873.855 OFFCURVE",
"1089.82 970.838 OFFCURVE",
"1089.82 1093.82 CURVE SMOOTH",
"1089.82 1352.77 OFFCURVE",
"890.852 1519.75 OFFCURVE",
"581.903 1519.75 CURVE SMOOTH",
"464.923 1519.75 OFFCURVE",
"322.946 1485.75 OFFCURVE",
"159.973 1420.76 CURVE",
"159.973 1216.8 LINE",
"319.947 1305.78 OFFCURVE",
"458.924 1349.78 OFFCURVE",
"585.902 1349.78 CURVE SMOOTH",
"764.873 1349.78 OFFCURVE",
"886.852 1239.79 OFFCURVE",
"886.852 1080.82 CURVE SMOOTH",
"886.852 1031.83 OFFCURVE",
"873.855 982.836 OFFCURVE",
"848.859 932.845 CURVE SMOOTH",
"796.867 831.862 OFFCURVE",
"720.88 734.878 OFFCURVE",
"484.919 554.908 CURVE SMOOTH",
"365.939 464.923 OFFCURVE",
"254.958 376.937 OFFCURVE",
"149.975 289.952 CURVE",
"149.975 0 LINE",
"1097.82 0 LINE",
"1097.82 289.952 LINE",
"602.9 289.952 LINE"
);
}
);
width = 1247;
}
);
unicode = 0032;
},
{
glyphname = three;
layers = (
{
layerId = "480801EC-13EF-4D5E-B695-C7354D4C452E";
name = Regular;
paths = (
{
closed = 1;
nodes = (
"999.834 848.859 OFFCURVE",
"1097.82 967.839 OFFCURVE",
"1097.82 1132.81 CURVE SMOOTH",
"1097.82 1369.77 OFFCURVE",
"906.849 1519.75 OFFCURVE",
"599.9 1519.75 CURVE SMOOTH",
"480.92 1519.75 OFFCURVE",
"347.942 1498.75 OFFCURVE",
"194.968 1455.76 CURVE",
"194.968 1295.78 LINE",
"346.942 1346.78 OFFCURVE",
"470.922 1369.77 OFFCURVE",
"581.903 1369.77 CURVE SMOOTH",
"784.869 1369.77 OFFCURVE",
"896.851 1284.79 OFFCURVE",
"896.851 1131.81 CURVE SMOOTH",
"896.851 982.836 OFFCURVE",
"788.869 900.85 OFFCURVE",
"589.902 900.85 CURVE SMOOTH",
"407.932 900.85 LINE",
"407.932 734.878 LINE",
"581.903 734.878 LINE SMOOTH",
"801.867 734.878 OFFCURVE",
"931.845 619.897 OFFCURVE",
"931.845 483.919 CURVE SMOOTH",
"931.845 448.925 OFFCURVE",
"898.85 402.933 OFFCURVE",
"832.861 345.942 CURVE SMOOTH",
"765.872 288.952 OFFCURVE",
"669.888 260.957 OFFCURVE",
"542.91 260.957 CURVE SMOOTH",
"397.934 260.957 OFFCURVE",
"261.956 294.951 OFFCURVE",
"149.975 359.94 CURVE",
"149.975 44.9925 LINE",
"290.952 -4 OFFCURVE",
"423.929 -29 OFFCURVE",
"548.909 -29 CURVE SMOOTH",
"921.847 -29 OFFCURVE",
"1132.81 132.978 OFFCURVE",
"1132.81 453.924 CURVE SMOOTH",
"1132.81 645.893 OFFCURVE",
"1017.83 789.869 OFFCURVE",
"824.863 804.866 CURVE"
);
}
);
width = 1282;
}
);
unicode = 0033;
},
{
glyphname = four;
layers = (
{
layerId = "480801EC-13EF-4D5E-B695-C7354D4C452E";
name = Regular;
paths = (
{
closed = 1;
nodes = (
"823.863 1386.77 LINE",
"813.865 589.902 LINE",
"313.948 589.902 LINE"
);
},
{
closed = 1;
nodes = (
"803.866 421.93 LINE",
"783.87 0 LINE",
"1054.82 0 LINE",
"1034.83 421.93 LINE",
"1237.79 421.93 LINE",
"1237.79 589.902 LINE",
"1034.83 589.902 LINE",
"1024.83 1492.75 LINE",
"770.872 1492.75 LINE",
"149.975 546.909 LINE",
"149.975 421.93 LINE"
);
}
);
width = 1387;
}
);
unicode = 0034;
},
{
glyphname = five;
layers = (
{
layerId = "480801EC-13EF-4D5E-B695-C7354D4C452E";
name = Regular;
paths = (
{
closed = 1;
nodes = (
"324.946 793.868 OFFCURVE",
"430.928 816.864 OFFCURVE",
"538.91 816.864 CURVE SMOOTH",
"769.872 816.864 OFFCURVE",
"903.85 716.881 OFFCURVE",
"903.85 508.915 CURVE SMOOTH",
"903.85 407.932 OFFCURVE",
"769.872 250.958 OFFCURVE",
"538.91 250.958 CURVE SMOOTH",
"395.934 250.958 OFFCURVE",
"269.955 282.953 OFFCURVE",
"149.975 347.942 CURVE",
"149.975 34.9942 LINE",
"288.952 -8 OFFCURVE",
"417.93 -29 OFFCURVE",
"542.91 -29 CURVE SMOOTH",
"906.849 -29 OFFCURVE",
"1115.81 157.974 OFFCURVE",
"1115.81 478.92 CURVE SMOOTH",
"1115.81 790.868 OFFCURVE",
"906.849 986.836 OFFCURVE",
"573.904 986.836 CURVE SMOOTH",
"514.914 986.836 OFFCURVE",
"462.923 976.837 OFFCURVE",
"377.937 956.841 CURVE",
"377.937 1342.78 LINE",
"1005.83 1342.78 LINE",
"1005.83 1492.75 LINE",
"212.965 1492.75 LINE",
"212.965 742.876 LINE"
);
}
);
width = 1265;
}
);
unicode = 0035;
},
{
glyphname = six;
layers = (
{
layerId = "480801EC-13EF-4D5E-B695-C7354D4C452E";
name = Regular;
paths = (
{
closed = 1;
nodes = (
"863.856 826.862 OFFCURVE",
"977.837 694.884 OFFCURVE",
"977.837 478.92 CURVE SMOOTH",
"977.837 343.943 OFFCURVE",
"863.856 260.957 OFFCURVE",
"682.886 260.957 CURVE SMOOTH",
"501.916 260.957 OFFCURVE",
"387.935 343.943 OFFCURVE",
"387.935 478.92 CURVE SMOOTH",
"387.935 694.884 OFFCURVE",
"501.916 826.862 OFFCURVE",
"682.886 826.862 CURVE SMOOTH"
);
},
{
closed = 1;
nodes = (
"971.838 1499.75 OFFCURVE",
"869.855 1519.75 OFFCURVE",
"768.872 1519.75 CURVE SMOOTH",
"391.935 1519.75 OFFCURVE",
"149.975 1216.8 OFFCURVE",
"149.975 744.876 CURVE SMOOTH",
"149.975 241.96 OFFCURVE",
"337.944 -29 OFFCURVE",
"682.886 -29 CURVE SMOOTH",
"983.836 -29 OFFCURVE",
"1180.8 171.971 OFFCURVE",
"1180.8 478.92 CURVE SMOOTH",
"1180.8 791.868 OFFCURVE",
"994.834 986.836 OFFCURVE",
"694.884 986.836 CURVE SMOOTH",
"551.908 986.836 OFFCURVE",
"429.928 922.846 OFFCURVE",
"350.942 806.866 CURVE",
"370.938 1170.81 OFFCURVE",
"509.915 1349.78 OFFCURVE",
"776.871 1349.78 CURVE SMOOTH",
"877.854 1349.78 OFFCURVE",
"982.836 1323.78 OFFCURVE",
"1083.82 1275.79 CURVE",
"1083.82 1459.76 LINE"
);
}
);
width = 1330;
}
);
unicode = 0036;
},
{
glyphname = seven;
layers = (
{
layerId = "480801EC-13EF-4D5E-B695-C7354D4C452E";
name = Regular;
paths = (
{
closed = 1;
nodes = (
"366.939 0 LINE",
"727.879 0 LINE",
"1099.82 1406.77 LINE",
"1099.82 1492.75 LINE",
"149.975 1492.75 LINE",
"149.975 1342.78 LINE",
"916.847 1342.78 LINE"
);
}
);
width = 1249;
}
);
unicode = 0037;
},
{
glyphname = eight;
layers = (
{
layerId = "480801EC-13EF-4D5E-B695-C7354D4C452E";
name = Regular;
paths = (
{
closed = 1;
nodes = (
"874.854 728.879 OFFCURVE",
"991.835 619.897 OFFCURVE",
"991.835 439.927 CURVE SMOOTH",
"991.835 340.943 OFFCURVE",
"873.855 220.963 OFFCURVE",
"681.886 220.963 CURVE SMOOTH",
"489.918 220.963 OFFCURVE",
"372.938 339.943 OFFCURVE",
"372.938 439.927 CURVE SMOOTH",
"372.938 619.897 OFFCURVE",
"489.918 728.879 OFFCURVE",
"681.886 728.879 CURVE SMOOTH"
);
},
{
closed = 1;
nodes = (
"284.953 749.875 OFFCURVE",
"149.975 610.898 OFFCURVE",
"149.975 419.93 CURVE SMOOTH",
"149.975 130.978 OFFCURVE",
"352.941 -29 OFFCURVE",
"681.886 -29 CURVE SMOOTH",
"1010.83 -29 OFFCURVE",
"1213.8 130.978 OFFCURVE",
"1213.8 419.93 CURVE SMOOTH",
"1213.8 610.898 OFFCURVE",
"1079.82 749.875 OFFCURVE",
"884.853 794.868 CURVE",
"1056.82 837.861 OFFCURVE",
"1138.81 961.84 OFFCURVE",
"1138.81 1132.81 CURVE SMOOTH",
"1138.81 1344.78 OFFCURVE",
"978.837 1499.75 OFFCURVE",
"681.886 1499.75 CURVE SMOOTH",
"385.936 1499.75 OFFCURVE",
"224.963 1344.78 OFFCURVE",
"224.963 1132.81 CURVE SMOOTH",
"224.963 961.84 OFFCURVE",
"306.949 837.861 OFFCURVE",
"479.92 794.868 CURVE"
);
},
{
closed = 1;
nodes = (
"405.932 1301.78 OFFCURVE",
"506.916 1399.77 OFFCURVE",
"681.886 1399.77 CURVE SMOOTH",
"854.858 1399.77 OFFCURVE",
"958.84 1301.78 OFFCURVE",
"958.84 1173.8 CURVE SMOOTH",
"958.84 1018.83 OFFCURVE",
"854.858 927.846 OFFCURVE",
"681.886 927.846 CURVE SMOOTH",
"506.916 927.846 OFFCURVE",
"405.932 1018.83 OFFCURVE",
"405.932 1173.8 CURVE SMOOTH"
);
}
);
width = 1363;
}
);
unicode = 0038;
},
{
glyphname = nine;
layers = (
{
layerId = "480801EC-13EF-4D5E-B695-C7354D4C452E";
name = Regular;
paths = (
{
closed = 1;
nodes = (
"357.94 -9 OFFCURVE",
"460.923 -29 OFFCURVE",
"561.906 -29 CURVE SMOOTH",
"938.844 -29 OFFCURVE",
"1179.8 273.954 OFFCURVE",
"1179.8 744.876 CURVE SMOOTH",
"1179.8 1248.79 OFFCURVE",
"992.835 1519.75 OFFCURVE",
"647.892 1519.75 CURVE SMOOTH",
"346.942 1519.75 OFFCURVE",
"149.975 1318.78 OFFCURVE",
"149.975 1011.83 CURVE SMOOTH",
"149.975 698.884 OFFCURVE",
"335.944 505.916 OFFCURVE",
"634.894 505.916 CURVE SMOOTH",
"778.87 505.916 OFFCURVE",
"901.85 568.905 OFFCURVE",
"978.837 683.886 CURVE",
"958.84 318.947 OFFCURVE",
"819.864 260.957 OFFCURVE",
"552.908 260.957 CURVE SMOOTH",
"452.925 260.957 OFFCURVE",
"346.942 286.952 OFFCURVE",
"245.959 334.944 CURVE",
"245.959 30.9948 LINE"
);
},
{
closed = 1;
nodes = (
"409.932 805.866 OFFCURVE",
"270.955 827.862 OFFCURVE",
"270.955 1043.83 CURVE SMOOTH",
"270.955 1258.79 OFFCURVE",
"409.932 1391.77 OFFCURVE",
"630.895 1391.77 CURVE SMOOTH",
"850.858 1391.77 OFFCURVE",
"989.835 1258.79 OFFCURVE",
"989.835 1043.83 CURVE SMOOTH",
"989.835 827.862 OFFCURVE",
"850.858 805.866 OFFCURVE",
"630.895 805.866 CURVE SMOOTH"
);
}
);
width = 1329;
}
);
unicode = 0039;
},
{
glyphname = colon;
layers = (
{
layerId = "480801EC-13EF-4D5E-B695-C7354D4C452E";
name = Regular;
paths = (
{
closed = 1;
nodes = (
"410.932 305.949 LINE",
"149.975 305.949 LINE",
"149.975 0 LINE",
"410.932 0 LINE"
);
},
{
closed = 1;
nodes = (
"410.932 1100.82 LINE",
"149.975 1100.82 LINE",
"149.975 815.864 LINE",
"410.932 815.864 LINE"
);
}
);
width = 560;
}
);
unicode = 003A;
},
{
glyphname = semicolon;
layers = (
{
layerId = "480801EC-13EF-4D5E-B695-C7354D4C452E";
name = Regular;
paths = (
{
closed = 1;
nodes = (
"478.92 1095.82 LINE",
"235.961 1095.82 LINE",
"235.961 802.866 LINE",
"478.92 802.866 LINE"
);
},
{
closed = 1;
nodes = (
"292.951 -328 LINE",
"474.921 26.9955 LINE",
"474.921 217.964 LINE",
"240.96 217.964 LINE",
"240.96 26.9955 LINE",
"149.975 -328 LINE"
);
}
);
width = 628;
}
);
unicode = 003B;
},
{
glyphname = less;
layers = (
{
layerId = "480801EC-13EF-4D5E-B695-C7354D4C452E";
name = Regular;
paths = (
{
closed = 1;
nodes = (
"149.975 590.902 LINE",
"1386.77 16.9972 LINE",
"1407.77 257.957 LINE",
"410.932 710.882 LINE",
"1470.76 986.836 LINE",
"1486.75 1167.81 LINE",
"169.972 816.864 LINE"
);
}
);
width = 1636;
}
);
unicode = 003C;
},
{
glyphname = equal;
layers = (
{
layerId = "480801EC-13EF-4D5E-B695-C7354D4C452E";
name = Regular;
paths = (
{
closed = 1;
nodes = (
"1431.76 929.845 LINE",
"149.975 929.845 LINE",
"149.975 761.873 LINE",
"1431.76 761.873 LINE"
);
},
{
closed = 1;
nodes = (
"1431.76 551.908 LINE",
"149.975 551.908 LINE",
"149.975 351.941 LINE",
"1431.76 351.941 LINE"
);
}
);
width = 1581;
}
);
unicode = 003D;
},
{
glyphname = greater;
layers = (
{
layerId = "480801EC-13EF-4D5E-B695-C7354D4C452E";
name = Regular;
paths = (
{
closed = 1;
nodes = (
"149.975 136.977 LINE",
"1467.76 487.919 LINE",
"1486.75 713.881 LINE",
"250.958 1288.79 LINE",
"234.961 1106.82 LINE",
"1228.8 651.891 LINE",
"170.972 377.937 LINE"
);
}
);
width = 1636;
}
);
unicode = 003E;
},
{
glyphname = question;
layers = (
{
layerId = "480801EC-13EF-4D5E-B695-C7354D4C452E";
name = Regular;
paths = (
{
closed = 1;
nodes = (
"596.901 273.954 LINE",
"333.944 273.954 LINE",
"333.944 -10 LINE",
"596.901 -10 LINE"
);
},
{
closed = 1;
nodes = (
"600.9 558.907 OFFCURVE",
"601.9 585.902 OFFCURVE",
"603.899 605.899 CURVE SMOOTH",
"607.899 645.893 OFFCURVE",
"614.898 672.888 OFFCURVE",
"640.893 708.882 CURVE SMOOTH",
"653.891 725.879 OFFCURVE",
"668.889 750.875 OFFCURVE",
"686.886 781.87 CURVE",
"764.873 867.856 LINE SMOOTH",
"871.855 982.836 OFFCURVE",
"936.844 1065.82 OFFCURVE",
"936.844 1166.81 CURVE SMOOTH",
"936.844 1378.77 OFFCURVE",
"784.869 1519.75 OFFCURVE",
"539.91 1519.75 CURVE SMOOTH",
"402.933 1519.75 OFFCURVE",
"274.954 1482.75 OFFCURVE",
"149.975 1406.77 CURVE",
"149.975 1248.79 LINE",
"278.954 1337.78 OFFCURVE",
"399.933 1385.77 OFFCURVE",
"504.916 1385.77 CURVE SMOOTH",
"648.892 1385.77 OFFCURVE",
"743.876 1275.79 OFFCURVE",
"743.876 1156.81 CURVE",
"730.878 1091.82 OFFCURVE",
"688.885 1054.82 OFFCURVE",
"585.902 970.838 CURVE",
"485.919 881.853 LINE",
"365.939 766.872 OFFCURVE",
"339.943 689.885 OFFCURVE",
"339.943 554.908 CURVE SMOOTH",
"339.943 400.933 LINE",
"600.9 400.933 LINE",
"600.9 523.913 LINE SMOOTH"
);
}
);
width = 1086;
}
);
unicode = 003F;
},
{
glyphname = at;
layers = (
{
layerId = "480801EC-13EF-4D5E-B695-C7354D4C452E";
name = Regular;
paths = (
{
closed = 1;
nodes = (
"746.876 786.869 OFFCURVE",
"849.859 891.852 OFFCURVE",
"1010.83 891.852 CURVE SMOOTH",
"1173.8 891.852 OFFCURVE",
"1276.79 785.869 OFFCURVE",
"1276.79 618.897 CURVE SMOOTH",
"1276.79 449.925 OFFCURVE",
"1176.8 344.943 OFFCURVE",
"1012.83 344.943 CURVE SMOOTH",
"847.859 344.943 OFFCURVE",
"746.876 447.925 OFFCURVE",
"746.876 618.897 CURVE SMOOTH"
);
},
{
closed = 1;
nodes = (
"1694.72 91.9847 OFFCURVE",
"1919.68 305.949 OFFCURVE",
"1919.68 656.891 CURVE SMOOTH",
"1919.68 820.863 OFFCURVE",
"1865.69 976.837 OFFCURVE",
"1765.71 1107.82 CURVE SMOOTH",
"1601.73 1320.78 OFFCURVE",
"1350.78 1441.76 OFFCURVE",
"1067.82 1441.76 CURVE SMOOTH",
"815.864 1441.76 OFFCURVE",
"583.903 1348.78 OFFCURVE",
"411.931 1179.8 CURVE SMOOTH",
"243.959 1012.83 OFFCURVE",
"149.975 785.869 OFFCURVE",
"149.975 542.91 CURVE SMOOTH",
"149.975 290.952 OFFCURVE",
"240.96 66.9889 OFFCURVE",
"411.931 -100 CURVE SMOOTH",
"582.903 -267 OFFCURVE",
"805.866 -356 OFFCURVE",
"1052.82 -356 CURVE SMOOTH",
"1255.79 -356 OFFCURVE",
"1457.76 -285 OFFCURVE",
"1624.73 -156 CURVE",
"1534.74 24.9958 LINE",
"1395.77 -83 OFFCURVE",
"1224.8 -133 OFFCURVE",
"1052.82 -133 CURVE SMOOTH",
"843.86 -133 OFFCURVE",
"674.888 -89 OFFCURVE",
"534.911 49.9917 CURVE SMOOTH",
"362.94 230.962 OFFCURVE",
"290.952 330.945 OFFCURVE",
"290.952 542.91 CURVE SMOOTH",
"290.952 799.867 OFFCURVE",
"415.931 1032.83 OFFCURVE",
"624.896 1168.81 CURVE SMOOTH",
"752.875 1253.79 OFFCURVE",
"905.849 1297.78 OFFCURVE",
"1069.82 1297.78 CURVE SMOOTH",
"1304.78 1297.78 OFFCURVE",
"1509.75 1202.8 OFFCURVE",
"1648.73 1027.83 CURVE SMOOTH",
"1733.71 920.847 OFFCURVE",
"1775.7 795.868 OFFCURVE",
"1775.7 652.891 CURVE SMOOTH",
"1775.7 416.931 OFFCURVE",
"1659.72 259.957 OFFCURVE",
"1464.76 230.962 CURVE",
"1464.76 966.839 LINE",
"1321.78 966.839 LINE",
"1321.78 835.861 LINE",
"1242.79 936.844 OFFCURVE",
"1140.81 986.836 OFFCURVE",
"1003.83 986.836 CURVE SMOOTH",
"775.871 986.836 OFFCURVE",
"616.897 803.866 OFFCURVE",
"616.897 536.911 CURVE SMOOTH",
"616.897 269.955 OFFCURVE",
"774.871 87.9854 OFFCURVE",
"1003.83 87.9854 CURVE SMOOTH",
"1140.81 87.9854 OFFCURVE",
"1241.79 134.978 OFFCURVE",
"1321.78 237.96 CURVE",
"1321.78 83.986 LINE"
);
}
);
width = 2069;
}
);
unicode = 0040;
},
{
glyphname = A;
layers = (
{
layerId = "480801EC-13EF-4D5E-B695-C7354D4C452E";
name = Regular;
paths = (
{
closed = 1;
nodes = (
"833.861 1308.78 LINE",
"1108.82 480.92 LINE",
"559.907 480.92 LINE"
);
},
{
closed = 1;
nodes = (
"498.917 242.96 LINE",
"1171.8 242.96 LINE",
"1227.8 0 LINE",
"1517.75 0 LINE",
"928.845 1492.75 LINE",
"739.877 1492.75 LINE",
"149.975 0 LINE",
"422.93 0 LINE"
);
}
);
width = 1667;
}
);
unicode = 0041;
},
{
glyphname = B;
layers = (
{
layerId = "480801EC-13EF-4D5E-B695-C7354D4C452E";
name = Regular;
paths = (
{
closed = 1;
nodes = (
"784.869 712.881 OFFCURVE",
"864.856 690.885 OFFCURVE",
"917.847 646.892 CURVE SMOOTH",
"969.839 601.9 OFFCURVE",
"995.834 562.906 OFFCURVE",
"995.834 529.912 CURVE SMOOTH",
"995.834 344.943 OFFCURVE",
"892.851 295.951 OFFCURVE",
"675.888 295.951 CURVE SMOOTH",
"351.941 295.951 LINE",
"351.941 712.881 LINE",
"675.888 712.881 LINE SMOOTH"
);
},
{
closed = 1;
nodes = (
"847.859 1356.77 OFFCURVE",
"943.843 1252.79 OFFCURVE",
"943.843 1101.82 CURVE SMOOTH",
"943.843 949.842 OFFCURVE",
"847.859 876.854 OFFCURVE",
"650.892 876.854 CURVE SMOOTH",
"351.941 876.854 LINE",
"351.941 1356.77 LINE",
"650.892 1356.77 LINE SMOOTH"
);
},
{
closed = 1;
nodes = (
"1020.83 0 OFFCURVE",
"1228.8 150.975 OFFCURVE",
"1228.8 417.93 CURVE SMOOTH",
"1228.8 620.897 OFFCURVE",
"1109.82 761.873 OFFCURVE",
"844.859 804.866 CURVE",
"1009.83 831.862 OFFCURVE",
"1096.82 940.843 OFFCURVE",
"1096.82 1123.81 CURVE SMOOTH",
"1096.82 1359.77 OFFCURVE",
"923.846 1492.75 OFFCURVE",
"615.897 1492.75 CURVE SMOOTH",
"149.975 1492.75 LINE",
"149.975 0 LINE",
"685.886 0 LINE SMOOTH"
);
}
);
width = 1378;
}
);
unicode = 0042;
},
{
glyphname = C;
layers = (
{
layerId = "480801EC-13EF-4D5E-B695-C7354D4C452E";
name = Regular;
paths = (
{
closed = 1;
nodes = (
"1214.8 1472.75 OFFCURVE",
"1057.82 1519.75 OFFCURVE",
"878.854 1519.75 CURVE SMOOTH",
"426.929 1519.75 OFFCURVE",
"149.975 1224.8 OFFCURVE",
"149.975 744.876 CURVE SMOOTH",
"149.975 265.956 OFFCURVE",
"426.929 -29 OFFCURVE",
"878.854 -29 CURVE SMOOTH",
"1054.82 -29 OFFCURVE",
"1212.8 18.9968 OFFCURVE",
"1353.77 114.981 CURVE",
"1353.77 465.922 LINE",
"1217.8 338.944 OFFCURVE",
"1063.82 276.954 OFFCURVE",
"890.852 276.954 CURVE SMOOTH",
"549.908 276.954 OFFCURVE",
"367.939 395.934 OFFCURVE",
"362.94 744.876 CURVE",
"362.94 1139.81 OFFCURVE",
"549.908 1353.77 OFFCURVE",
"890.852 1353.77 CURVE SMOOTH",
"1063.82 1353.77 OFFCURVE",
"1217.8 1291.79 OFFCURVE",
"1353.77 1164.81 CURVE",
"1353.77 1377.77 LINE"
);
}
);
width = 1503;
}
);
unicode = 0043;
},
{
glyphname = D;
layers = (
{
layerId = "480801EC-13EF-4D5E-B695-C7354D4C452E";
name = Regular;
paths = (
{
closed = 1;
nodes = (
"1017.83 1326.78 OFFCURVE",
"1201.8 1140.81 OFFCURVE",
"1201.8 767.872 CURVE",
"1133.81 462.923 OFFCURVE",
"1017.83 375.937 OFFCURVE",
"605.899 375.937 CURVE SMOOTH",
"361.94 375.937 LINE",
"361.94 1326.78 LINE",
"605.899 1326.78 LINE SMOOTH"
);
},
{
closed = 1;
nodes = (
"1140.81 0 OFFCURVE",
"1404.77 232.961 OFFCURVE",
"1404.77 747.876 CURVE SMOOTH",
"1404.77 1259.79 OFFCURVE",
"1143.81 1492.75 OFFCURVE",
"564.906 1492.75 CURVE SMOOTH",
"149.975 1492.75 LINE",
"149.975 0 LINE",
"564.906 0 LINE SMOOTH"
);
}
);
width = 1554;
}
);
unicode = 0044;
},
{
glyphname = E;
layers = (
{
layerId = "480801EC-13EF-4D5E-B695-C7354D4C452E";
name = Regular;
paths = (
{
closed = 1;
nodes = (
"1111.81 309.948 LINE",
"351.941 309.948 LINE",
"351.941 710.882 LINE",
"1062.82 710.882 LINE",
"1062.82 880.853 LINE",
"351.941 880.853 LINE",
"351.941 1322.78 LINE",
"1093.82 1322.78 LINE",
"1093.82 1492.75 LINE",
"149.975 1492.75 LINE",
"149.975 0 LINE",
"1111.81 0 LINE"
);
}
);
width = 1261;
}
);
unicode = 0045;
},
{
glyphname = F;
layers = (
{
layerId = "480801EC-13EF-4D5E-B695-C7354D4C452E";
name = Regular;
paths = (
{
closed = 1;
nodes = (
"381.936 672.888 LINE",
"953.841 672.888 LINE",
"953.841 882.853 LINE",
"371.938 882.853 LINE",
"391.935 1312.78 LINE",
"1007.83 1312.78 LINE",
"1007.83 1492.75 LINE",
"189.968 1492.75 LINE",
"149.975 0 LINE",
"401.933 0 LINE"
);
}
);
width = 1157;
}
);
unicode = 0046;
},
{
glyphname = G;
layers = (
{
layerId = "480801EC-13EF-4D5E-B695-C7354D4C452E";
name = Regular;
paths = (
{
closed = 1;
nodes = (
"1174.8 320.947 OFFCURVE",
"1054.82 296.951 OFFCURVE",
"911.848 296.951 CURVE SMOOTH",
"546.909 296.951 OFFCURVE",
"375.937 396.934 OFFCURVE",
"362.94 764.873 CURVE",
"362.94 1168.81 OFFCURVE",
"546.909 1373.77 OFFCURVE",
"911.848 1373.77 CURVE SMOOTH",
"1096.82 1373.77 OFFCURVE",
"1265.79 1309.78 OFFCURVE",
"1414.76 1182.8 CURVE",
"1414.76 1377.77 LINE",
"1266.79 1470.76 OFFCURVE",
"1089.82 1519.75 OFFCURVE",
"894.851 1519.75 CURVE SMOOTH",
"427.929 1519.75 OFFCURVE",
"149.975 1232.79 OFFCURVE",
"149.975 744.876 CURVE SMOOTH",
"149.975 257.957 OFFCURVE",
"427.929 -29 OFFCURVE",
"894.851 -29 CURVE SMOOTH",
"1107.82 -29 OFFCURVE",
"1297.78 27.9953 OFFCURVE",
"1453.76 138.977 CURVE",
"1453.76 749.875 LINE",
"903.85 749.875 LINE",
"903.85 533.911 LINE",
"1223.8 533.911 LINE",
"1223.8 372.938 LINE"
);
}
);
width = 1603;
}
);
unicode = 0047;
},
{
glyphname = H;
layers = (
{
layerId = "480801EC-13EF-4D5E-B695-C7354D4C452E";
name = Regular;
paths = (
{
closed = 1;
nodes = (
"381.936 500.917 LINE",
"1075.82 500.917 LINE",
"1075.82 0 LINE",
"1307.78 0 LINE",
"1287.79 1492.75 LINE",
"1075.82 1492.75 LINE",
"1075.82 780.87 LINE",
"381.936 780.87 LINE",
"381.936 1492.75 LINE",
"169.972 1492.75 LINE",
"149.975 0 LINE",
"381.936 0 LINE"
);
}
);
width = 1457;
}
);
unicode = 0048;
},
{
glyphname = I;
layers = (
{
layerId = "480801EC-13EF-4D5E-B695-C7354D4C452E";
name = Regular;
paths = (
{
closed = 1;
nodes = (
"364.939 497.917 OFFCURVE",
"368.939 994.834 OFFCURVE",
"361.94 1492.75 CURVE",
"189.968 1492.75 LINE",
"179.97 994.834 OFFCURVE",
"179.97 497.917 OFFCURVE",
"149.975 0 CURVE",
"391.935 0 LINE"
);
}
);
width = 541;
}
);
unicode = 0049;
},
{
glyphname = J;
layers = (
{
layerId = "480801EC-13EF-4D5E-B695-C7354D4C452E";
name = Regular;
paths = (
{
closed = 1;
nodes = (
"506.916 -9 OFFCURVE",
"430.928 -104 OFFCURVE",
"251.958 -112 CURVE",
"149.975 -90 LINE",
"153.974 -420 LINE",
"270.955 -432 LINE",
"586.902 -427 OFFCURVE",
"714.881 -297 OFFCURVE",
"721.88 62.9895 CURVE SMOOTH",
"775.871 1480.75 LINE",
"563.906 1494.75 LINE",
"509.915 75.9874 LINE SMOOTH"
);
}
);
width = 925;
}
);
unicode = 004A;
},
{
glyphname = K;
layers = (
{
layerId = "480801EC-13EF-4D5E-B695-C7354D4C452E";
name = Regular;
paths = (
{
closed = 1;
nodes = (
"371.938 718.88 LINE",
"878.854 0 LINE",
"1354.77 0 LINE",
"560.907 796.867 LINE",
"1301.78 1492.75 LINE",
"1041.83 1492.75 LINE",
"371.938 861.857 LINE",
"391.935 1492.75 LINE",
"189.968 1492.75 LINE",
"149.975 0 LINE",
"411.931 0 LINE"
);
}
);
width = 1504;
}
);
unicode = 004B;
},
{
glyphname = L;
layers = (
{
layerId = "480801EC-13EF-4D5E-B695-C7354D4C452E";
name = Regular;
paths = (
{
closed = 1;
nodes = (
"1088.82 309.948 LINE",
"361.94 309.948 LINE",
"371.938 1492.75 LINE",
"169.972 1492.75 LINE",
"149.975 0 LINE",
"1068.82 0 LINE"
);
}
);
width = 1238;
}
);
unicode = 004C;
},
{
glyphname = M;
layers = (
{
layerId = "480801EC-13EF-4D5E-B695-C7354D4C452E";
name = Regular;
paths = (
{
closed = 1;
nodes = (
"365.939 1310.78 LINE",
"730.878 236.961 LINE",
"973.838 236.961 LINE",
"1338.78 1310.78 LINE",
"1298.78 0 LINE",
"1555.74 0 LINE",
"1525.75 1492.75 LINE",
"1244.79 1492.75 LINE",
"851.858 606.899 LINE",
"480.92 1492.75 LINE",
"179.97 1492.75 LINE",
"149.975 0 LINE",
"405.932 0 LINE"
);
}
);
width = 1705;
}
);
unicode = 004D;
},
{
glyphname = N;
layers = (
{
layerId = "480801EC-13EF-4D5E-B695-C7354D4C452E";
name = Regular;
paths = (
{
closed = 1;
nodes = (
"345.942 1248.79 LINE",
"1007.83 0 LINE",
"1299.78 0 LINE",
"1299.78 1492.75 LINE",
"1113.81 1492.75 LINE",
"1083.82 283.953 LINE",
"441.926 1462.76 LINE",
"189.968 1462.76 LINE",
"149.975 0 LINE",
"405.932 0 LINE"
);
}
);
width = 1449;
}
);
unicode = 004E;
},
{
glyphname = O;
layers = (
{
layerId = "480801EC-13EF-4D5E-B695-C7354D4C452E";
name = Regular;
paths = (
{
closed = 1;
nodes = (
"1134.81 1355.77 OFFCURVE",
"1318.78 1121.81 OFFCURVE",
"1318.78 744.876 CURVE SMOOTH",
"1318.78 435.927 OFFCURVE",
"1134.81 354.941 OFFCURVE",
"841.86 354.941 CURVE SMOOTH",
"548.909 354.941 OFFCURVE",
"362.94 435.927 OFFCURVE",
"362.94 744.876 CURVE SMOOTH",
"362.94 1121.81 OFFCURVE",
"548.909 1355.77 OFFCURVE",
"841.86 1355.77 CURVE SMOOTH"
);
},
{
closed = 1;
nodes = (
"421.93 1519.75 OFFCURVE",
"149.975 1216.8 OFFCURVE",
"149.975 744.876 CURVE SMOOTH",
"149.975 272.955 OFFCURVE",
"421.93 -29 OFFCURVE",
"841.86 -29 CURVE SMOOTH",
"1260.79 -29 OFFCURVE",
"1531.74 273.954 OFFCURVE",
"1531.74 744.876 CURVE SMOOTH",
"1531.74 1216.8 OFFCURVE",
"1260.79 1519.75 OFFCURVE",
"841.86 1519.75 CURVE SMOOTH"
);
}
);
width = 1681;
}
);
unicode = 004F;
},
{
glyphname = P;
layers = (
{
layerId = "480801EC-13EF-4D5E-B695-C7354D4C452E";
name = Regular;
paths = (
{
closed = 1;
nodes = (
"875.854 1406.77 OFFCURVE",
"990.835 1305.78 OFFCURVE",
"990.835 1126.81 CURVE SMOOTH",
"990.835 946.842 OFFCURVE",
"875.854 845.859 OFFCURVE",
"674.888 845.859 CURVE SMOOTH",
"401.933 845.859 LINE",
"421.93 1406.77 LINE",
"674.888 1406.77 LINE SMOOTH"
);
},
{
closed = 1;
nodes = (
"411.931 579.904 LINE",
"655.891 579.904 LINE SMOOTH",
"990.835 579.904 OFFCURVE",
"1163.81 751.875 OFFCURVE",
"1163.81 1046.83 CURVE SMOOTH",
"1163.81 1338.78 OFFCURVE",
"990.835 1492.75 OFFCURVE",
"655.891 1492.75 CURVE SMOOTH",
"209.965 1492.75 LINE",
"149.975 0 LINE",
"391.935 0 LINE"
);
}
);
width = 1313;
}
);
unicode = 0050;
},
{
glyphname = Q;
layers = (
{
layerId = "480801EC-13EF-4D5E-B695-C7354D4C452E";
name = Regular;
paths = (
{
closed = 1;
nodes = (
"1134.81 1355.77 OFFCURVE",
"1318.78 1121.81 OFFCURVE",
"1318.78 744.876 CURVE SMOOTH",
"1318.78 589.902 OFFCURVE",
"1255.79 477.92 OFFCURVE",
"1130.81 408.932 CURVE",
"1047.83 419.93 OFFCURVE",
"967.839 443.926 OFFCURVE",
"888.852 479.92 CURVE",
"805.866 340.943 LINE",
"711.882 354.941 LINE",
"591.901 367.939 OFFCURVE",
"362.94 435.927 OFFCURVE",
"362.94 744.876 CURVE SMOOTH",
"362.94 1121.81 OFFCURVE",
"548.909 1355.77 OFFCURVE",
"841.86 1355.77 CURVE SMOOTH"
);
},
{
closed = 1;
nodes = (
"1401.77 217.964 OFFCURVE",
"1531.74 397.934 OFFCURVE",
"1531.74 744.876 CURVE SMOOTH",
"1531.74 1216.8 OFFCURVE",
"1260.79 1519.75 OFFCURVE",
"841.86 1519.75 CURVE SMOOTH",
"421.93 1519.75 OFFCURVE",
"149.975 1216.8 OFFCURVE",
"149.975 744.876 CURVE SMOOTH",
"149.975 273.954 OFFCURVE",
"424.929 -29 OFFCURVE",
"831.862 -29 CURVE SMOOTH",
"852.858 -29 OFFCURVE",
"871.855 -28 OFFCURVE",
"915.848 -25 CURVE",
"1126.81 -264 LINE",
"1600.73 -264 LINE",
"1284.79 86.9855 LINE"
);
}
);
width = 1750;
}
);
unicode = 0051;
},
{
glyphname = R;
layers = (
{
layerId = "480801EC-13EF-4D5E-B695-C7354D4C452E";
name = Regular;
paths = (
{
closed = 1;
nodes = (
"997.834 747.876 OFFCURVE",
"1083.82 874.854 OFFCURVE",
"1083.82 1062.82 CURVE SMOOTH",
"1083.82 1350.78 OFFCURVE",
"906.849 1492.75 OFFCURVE",
"605.899 1492.75 CURVE SMOOTH",
"149.975 1492.75 LINE",
"149.975 0 LINE",
"391.935 0 LINE",
"391.935 630.895 LINE",
"541.91 630.895 LINE SMOOTH",
"701.883 630.895 OFFCURVE",
"775.871 582.903 OFFCURVE",
"874.854 382.936 CURVE",
"1025.83 0 LINE",
"1312.78 0 LINE",
"1107.82 407.932 LINE SMOOTH",
"1024.83 575.904 OFFCURVE",
"944.843 670.888 OFFCURVE",
"857.857 699.883 CURVE"
);
},
{
closed = 1;
nodes = (
"780.87 1386.77 OFFCURVE",
"940.843 1317.78 OFFCURVE",
"940.843 1062.82 CURVE SMOOTH",
"940.843 941.843 OFFCURVE",
"780.87 836.861 OFFCURVE",
"625.896 836.861 CURVE SMOOTH",
"371.938 836.861 LINE",
"371.938 1386.77 LINE",
"625.896 1386.77 LINE SMOOTH"
);
}
);
width = 1462;
}
);
unicode = 0052;
},
{
glyphname = S;
layers = (
{
layerId = "480801EC-13EF-4D5E-B695-C7354D4C452E";
name = Regular;
paths = (
{
closed = 1;
nodes = (
"958.84 1494.75 OFFCURVE",
"813.865 1519.75 OFFCURVE",
"673.888 1519.75 CURVE SMOOTH",
"346.942 1519.75 OFFCURVE",
"149.975 1357.77 OFFCURVE",
"149.975 1093.82 CURVE SMOOTH",
"149.975 865.856 OFFCURVE",
"276.954 745.876 OFFCURVE",
"577.904 685.886 CURVE SMOOTH",
"700.883 661.89 LINE SMOOTH",
"905.849 620.897 OFFCURVE",
"989.835 526.912 OFFCURVE",
"989.835 446.926 CURVE SMOOTH",
"989.835 358.94 OFFCURVE",
"859.857 244.959 OFFCURVE",
"628.895 244.959 CURVE SMOOTH",
"476.921 244.959 OFFCURVE",
"319.947 291.951 OFFCURVE",
"155.974 383.936 CURVE",
"155.974 65.989 LINE",
"326.946 2.9995 OFFCURVE",
"487.919 -29 OFFCURVE",
"628.895 -29 CURVE SMOOTH",
"1003.83 -29 OFFCURVE",
"1200.8 122.98 OFFCURVE",
"1200.8 411.931 CURVE SMOOTH",
"1200.8 654.891 OFFCURVE",
"1060.82 796.867 OFFCURVE",
"759.874 853.858 CURVE SMOOTH",
"637.894 878.854 LINE SMOOTH",
"416.931 919.847 OFFCURVE",
"352.941 977.837 OFFCURVE",
"352.941 1109.82 CURVE SMOOTH",
"352.941 1266.79 OFFCURVE",
"476.921 1355.77 OFFCURVE",
"696.884 1355.77 CURVE SMOOTH",
"823.863 1355.77 OFFCURVE",
"957.841 1319.78 OFFCURVE",
"1110.82 1246.79 CURVE",
"1110.82 1443.76 LINE"
);
}
);
width = 1350;
}
);
unicode = 0053;
},
{
glyphname = T;
layers = (
{
layerId = "480801EC-13EF-4D5E-B695-C7354D4C452E";
name = Regular;
paths = (
{
closed = 1;
nodes = (
"639.893 0 LINE",
"922.846 0 LINE",
"882.853 1342.78 LINE",
"1412.76 1322.78 LINE",
"1412.76 1492.75 LINE",
"149.975 1492.75 LINE",
"149.975 1322.78 LINE",
"679.887 1342.78 LINE"
);
}
);
width = 1562;
}
);
unicode = 0054;
},
{
glyphname = U;
layers = (
{
layerId = "480801EC-13EF-4D5E-B695-C7354D4C452E";
name = Regular;
paths = (
{
closed = 1;
nodes = (
"149.975 171.971 OFFCURVE",
"344.943 -29 OFFCURVE",
"721.88 -29 CURVE SMOOTH",
"1097.82 -29 OFFCURVE",
"1292.78 171.971 OFFCURVE",
"1292.78 560.907 CURVE SMOOTH",
"1292.78 1492.75 LINE",
"1079.82 1492.75 LINE",
"1098.82 725.879 LINE SMOOTH",
"1106.82 405.932 OFFCURVE",
"980.837 274.954 OFFCURVE",
"721.88 274.954 CURVE SMOOTH",
"461.923 274.954 OFFCURVE",
"334.944 405.932 OFFCURVE",
"342.943 725.879 CURVE SMOOTH",
"362.94 1492.75 LINE",
"149.975 1492.75 LINE",
"149.975 560.907 LINE SMOOTH"
);
}
);
width = 1442;
}
);
unicode = 0055;
},
{
glyphname = V;
layers = (
{
layerId = "480801EC-13EF-4D5E-B695-C7354D4C452E";
name = Regular;
paths = (
{
closed = 1;
nodes = (
"1307.78 1492.75 LINE",
"833.861 375.937 LINE",
"360.94 1492.75 LINE",
"149.975 1492.75 LINE",
"669.888 0 LINE",
"998.834 0 LINE",
"1517.75 1492.75 LINE"
);
}
);
width = 1667;
}
);
unicode = 0056;
},
{
glyphname = W;
layers = (
{
layerId = "480801EC-13EF-4D5E-B695-C7354D4C452E";
name = Regular;
paths = (
{
closed = 1;
nodes = (
"1095.82 805.866 LINE",
"1370.77 0 LINE",
"1664.72 0 LINE",
"2039.66 1492.75 LINE",
"1844.69 1492.75 LINE",
"1501.75 400.933 LINE",
"1177.8 1112.81 LINE",
"1000.83 1112.81 LINE",
"647.892 420.93 LINE",
"343.943 1492.75 LINE",
"149.975 1492.75 LINE",
"483.919 0 LINE",
"797.867 0 LINE"
);
}
);
width = 2189;
}
);
unicode = 0057;
},
{
glyphname = X;
layers = (
{
layerId = "480801EC-13EF-4D5E-B695-C7354D4C452E";
name = Regular;
paths = (
{
closed = 1;
nodes = (
"477.92 0 LINE",
"790.868 534.911 LINE",
"1100.82 0 LINE",
"1427.76 0 LINE",
"935.844 695.884 LINE",
"1395.77 1492.75 LINE",
"1178.8 1492.75 LINE",
"805.866 857.857 LINE",
"434.928 1492.75 LINE",
"217.964 1492.75 LINE",
"662.89 696.884 LINE",
"149.975 0 LINE"
);
}
);
width = 1577;
}
);
unicode = 0058;
},
{
glyphname = Y;
layers = (
{
layerId = "480801EC-13EF-4D5E-B695-C7354D4C452E";
name = Regular;
paths = (
{
closed = 1;
nodes = (
"910.848 0 LINE",
"910.848 510.915 LINE",
"1408.77 1492.75 LINE",
"1191.8 1492.75 LINE",
"780.87 728.879 LINE",
"366.939 1492.75 LINE",
"149.975 1492.75 LINE",
"637.894 510.915 LINE",
"637.894 0 LINE"
);
}
);
width = 1558;
}
);
unicode = 0059;
},
{
glyphname = Z;
layers = (
{
layerId = "480801EC-13EF-4D5E-B695-C7354D4C452E";
name = Regular;
paths = (
{
closed = 1;
nodes = (
"149.975 283.953 LINE",
"149.975 0 LINE",
"1368.77 0 LINE",
"1368.77 299.95 LINE",
"401.933 299.95 LINE",
"1345.78 1338.78 LINE",
"1345.78 1492.75 LINE",
"172.971 1492.75 LINE",
"172.971 1322.78 LINE",
"1093.82 1322.78 LINE"
);
}
);
width = 1518;
}
);
unicode = 005A;
},
{
glyphname = bracketleft;
layers = (
{
layerId = "480801EC-13EF-4D5E-B695-C7354D4C452E";
name = Regular;
paths = (
{
closed = 1;
nodes = (
"573.904 -47 LINE",
"333.944 -47 LINE",
"333.944 1412.76 LINE",
"573.904 1412.76 LINE",
"573.904 1555.74 LINE",
"149.975 1555.74 LINE",
"149.975 -270 LINE",
"573.904 -270 LINE"
);
}
);
width = 673;
}
);
unicode = 005B;
},
{
glyphname = backslash;
layers = (
{
layerId = "480801EC-13EF-4D5E-B695-C7354D4C452E";
name = Regular;
paths = (
{
closed = 1;
nodes = (
"780.87 -214 LINE",
"319.947 1486.75 LINE",
"149.975 1491.75 LINE",
"570.905 -206 LINE"
);
}
);
width = 930;
}
);
unicode = 005C;
},
{
glyphname = bracketright;
layers = (
{
layerId = "480801EC-13EF-4D5E-B695-C7354D4C452E";
name = Regular;
paths = (
{
closed = 1;
nodes = (
"338.944 1412.76 LINE",
"338.944 -57 LINE",
"99.9834 -57 LINE",
"99.9834 -270 LINE",
"523.913 -270 LINE",
"523.913 1555.74 LINE",
"99.9834 1555.74 LINE",
"99.9834 1412.76 LINE"
);
}
);
width = 673;
}
);
unicode = 005D;
},
{
glyphname = asciicircum;
layers = (
{
layerId = "480801EC-13EF-4D5E-B695-C7354D4C452E";
name = Regular;
paths = (
{
closed = 1;
nodes = (
"460.923 935.844 LINE",
"790.868 1390.77 LINE",
"1120.81 935.844 LINE",
"1431.76 935.844 LINE",
"868.855 1492.75 LINE",
"712.881 1492.75 LINE",
"149.975 935.844 LINE"
);
}
);
width = 1581;
}
);
unicode = 005E;
},
{
glyphname = underscore;
layers = (
{
layerId = "480801EC-13EF-4D5E-B695-C7354D4C452E";
name = Regular;
paths = (
{
closed = 1;
nodes = (
"149.975 -443 LINE",
"1213.8 -443 LINE",
"1213.8 -264 LINE",
"149.975 -264 LINE"
);
}
);
width = 1363;
}
);
unicode = 005F;
},
{
glyphname = a;
lastChange = "2013-01-12 20:46:30 -0500";
layers = (
{
hints = (
{
place = "{969.000000, 156.000000}";
}
);
layerId = "480801EC-13EF-4D5E-B695-C7354D4C452E";
name = Regular;
paths = (
{
closed = 1;
nodes = (
"889.852 1082.82 OFFCURVE",
"772.871 1146.81 OFFCURVE",
"607.899 1146.81 CURVE SMOOTH",
"336.944 1146.81 OFFCURVE",
"149.975 910.848 OFFCURVE",
"149.975 558.907 CURVE SMOOTH",
"149.975 206.966 OFFCURVE",
"336.944 -29 OFFCURVE",
"607.899 -29 CURVE SMOOTH",
"772.871 -29 OFFCURVE",
"889.852 34.9942 OFFCURVE",
"966.839 167.972 CURVE",
"967 -1 LINE",
"1121 1 LINE",
"1124 1120 LINE",
"966 1120 LINE",
"966.839 949.842 LINE"
);
},
{
closed = 1;
nodes = (
"281.953 849.859 OFFCURVE",
"399.933 1012.83 OFFCURVE",
"594.901 1012.83 CURVE SMOOTH",
"789.869 1012.83 OFFCURVE",
"877 864 OFFCURVE",
"870 593 CURVE",
"845 346 OFFCURVE",
"784.869 305.949 OFFCURVE",
"589.902 305.949 CURVE SMOOTH",
"394.934 305.949 OFFCURVE",
"312.948 383.936 OFFCURVE",
"281.953 578.904 CURVE"
);
}
);
width = 1245;
}
);
leftKerningGroup = a;
unicode = 0061;
},
{
glyphname = b;
layers = (
{
layerId = "480801EC-13EF-4D5E-B695-C7354D4C452E";
name = Regular;
paths = (
{
closed = 1;
nodes = (
"1002.83 368.939 OFFCURVE",
"899.85 310.948 OFFCURVE",
"735.878 298.95 CURVE",
"467.922 298.95 OFFCURVE",
"449.925 384.936 OFFCURVE",
"422.93 591.901 CURVE",
"422.93 862.856 OFFCURVE",
"540.91 1015.83 OFFCURVE",
"735.878 1015.83 CURVE SMOOTH",
"930.845 1015.83 OFFCURVE",
"1026.83 859.857 OFFCURVE",
"1034.83 600.9 CURVE"
);
},
{
closed = 1;
nodes = (
"311.948 55.9907 OFFCURVE",
"399.933 -29 OFFCURVE",
"692.885 -29 CURVE SMOOTH",
"964.839 -29 OFFCURVE",
"1151.81 206.966 OFFCURVE",
"1151.81 558.907 CURVE SMOOTH",
"1151.81 910.848 OFFCURVE",
"964.839 1146.81 OFFCURVE",
"692.885 1146.81 CURVE SMOOTH",
"528.912 1146.81 OFFCURVE",
"411.931 1102.82 OFFCURVE",
"334.944 969.839 CURVE",
"354.941 1555.74 LINE",
"169.972 1555.74 LINE",
"207.965 910.848 OFFCURVE",
"217.964 288.952 OFFCURVE",
"258.957 202.966 CURVE",
"258.957 202.966 LINE"
);
}
);
width = 1301;
}
);
unicode = 0062;
},
{
glyphname = c;
layers = (
{
layerId = "480801EC-13EF-4D5E-B695-C7354D4C452E";
name = Regular;
paths = (
{
closed = 1;
nodes = (
"934.844 1123.81 OFFCURVE",
"825.863 1146.81 OFFCURVE",
"712.881 1146.81 CURVE SMOOTH",
"363.939 1146.81 OFFCURVE",
"149.975 923.846 OFFCURVE",
"149.975 558.907 CURVE SMOOTH",
"149.975 198.967 OFFCURVE",
"363.939 -29 OFFCURVE",
"700.883 -29 CURVE SMOOTH",
"824.863 -29 OFFCURVE",
"932.845 -5 OFFCURVE",
"1035.83 42.9928 CURVE",
"1031.83 331.945 LINE",
"927.846 274.954 OFFCURVE",
"819.864 287.952 OFFCURVE",
"712.881 287.952 CURVE",
"473.921 300.95 OFFCURVE",
"372.938 366.939 OFFCURVE",
"353.941 558.907 CURVE",
"353.941 831.862 OFFCURVE",
"481.92 1000.83 OFFCURVE",
"720.88 1000.83 CURVE SMOOTH",
"827.862 1000.83 OFFCURVE",
"931.845 971.838 OFFCURVE",
"1035.83 914.848 CURVE",
"1035.83 1076.82 LINE"
);
}
);
width = 1185;
}
);
leftKerningGroup = a;
unicode = 0063;
},
{
glyphname = d;
layers = (
{
layerId = "480801EC-13EF-4D5E-B695-C7354D4C452E";
name = Regular;
paths = (
{
closed = 1;
nodes = (
"889.852 1082.82 OFFCURVE",
"772.871 1146.81 OFFCURVE",
"607.899 1146.81 CURVE SMOOTH",
"336.944 1146.81 OFFCURVE",
"149.975 910.848 OFFCURVE",
"149.975 558.907 CURVE SMOOTH",
"149.975 206.966 OFFCURVE",
"336.944 -29 OFFCURVE",
"607.899 -29 CURVE SMOOTH",
"772.871 -29 OFFCURVE",
"889.852 34.9942 OFFCURVE",
"966.839 167.972 CURVE",
"966.839 0 LINE",
"1150.81 0 LINE",
"1170.81 1555.74 LINE",
"986.836 1555.74 LINE",
"966.839 949.842 LINE"
);
},
{
closed = 1;
nodes = (
"281.953 849.859 OFFCURVE",
"399.933 1012.83 OFFCURVE",
"594.901 1012.83 CURVE SMOOTH",
"789.869 1012.83 OFFCURVE",
"877.854 863.856 OFFCURVE",
"884.853 592.901 CURVE",
"877.854 345.942 OFFCURVE",
"784.869 305.949 OFFCURVE",
"589.902 305.949 CURVE SMOOTH",
"394.934 305.949 OFFCURVE",
"312.948 383.936 OFFCURVE",
"281.953 578.904 CURVE"
);
}
);
width = 1320;
}
);
leftKerningGroup = a;
unicode = 0064;
},
{
glyphname = e;
layers = (
{
layerId = "480801EC-13EF-4D5E-B695-C7354D4C452E";
name = Regular;
paths = (
{
closed = 1;
nodes = (
"1152.81 995.834 OFFCURVE",
"999.834 1133.81 OFFCURVE",
"699.883 1146.81 CURVE",
"362.94 1146.81 OFFCURVE",
"162.973 915.848 OFFCURVE",
"149.975 548.909 CURVE",
"149.975 193.968 OFFCURVE",
"374.938 -16 OFFCURVE",
"730.878 -29 CURVE",
"874.854 -29 OFFCURVE",
"1012.83 0.999834 OFFCURVE",
"1145.81 56.9905 CURVE",
"1141.81 310.948 LINE",
"1010.83 241.96 OFFCURVE",
"878.854 243.959 OFFCURVE",
"737.877 243.959 CURVE",
"493.918 256.957 OFFCURVE",
"345.942 306.949 OFFCURVE",
"341.943 605.899 CURVE",
"1177.8 605.899 LINE",
"1177.8 675.888 LINE"
);
},
{
closed = 1;
nodes = (
"361.94 900.85 OFFCURVE",
"495.917 1049.83 OFFCURVE",
"700.883 1049.83 CURVE SMOOTH",
"881.853 1049.83 OFFCURVE",
"996.834 891.852 OFFCURVE",
"1017.83 766.872 CURVE",
"361.94 765.872 LINE"
);
}
);
width = 1327;
}
);
leftKerningGroup = a;
unicode = 0065;
},
{
glyphname = f;
layers = (
{
layerId = "480801EC-13EF-4D5E-B695-C7354D4C452E";
name = Regular;
paths = (
{
closed = 1;
nodes = (
"466.922 1535.74 OFFCURVE",
"325.946 1446.76 OFFCURVE",
"325.946 1197.8 CURVE",
"315.947 1119.81 LINE",
"149.975 1119.81 LINE",
"149.975 936.844 LINE",
"315.947 936.844 LINE",
"285.952 0 LINE",
"550.908 0 LINE",
"520.913 936.844 LINE",
"813.865 936.844 LINE",
"813.865 1119.81 LINE",
"520.913 1119.81 LINE",
"510.915 1218.8 LINE",
"510.915 1357.77 OFFCURVE",
"544.909 1382.77 OFFCURVE",
"636.894 1382.77 CURVE",
"802.866 1362.77 LINE",
"802.866 1515.75 LINE",
"638.894 1535.74 LINE"
);
}
);
width = 963;
}
);
unicode = 0066;
},
{
glyphname = g;
layers = (
{
layerId = "480801EC-13EF-4D5E-B695-C7354D4C452E";
name = Regular;
paths = (
{
closed = 1;
nodes = (
"886.852 318.947 OFFCURVE",
"757.874 297.95 OFFCURVE",
"558.907 297.95 CURVE SMOOTH",
"361.94 297.95 OFFCURVE",
"286.952 318.947 OFFCURVE",
"259.957 583.903 CURVE",
"259.957 850.858 OFFCURVE",
"375.937 1003.83 OFFCURVE",
"572.905 1003.83 CURVE SMOOTH",
"771.872 1003.83 OFFCURVE",
"886.852 850.858 OFFCURVE",
"886.852 583.903 CURVE SMOOTH"
);
},
{
closed = 1;
nodes = (
"966.839 949.842 LINE",
"890.852 1081.82 OFFCURVE",
"772.871 1146.81 OFFCURVE",
"607.899 1146.81 CURVE SMOOTH",
"332.945 1146.81 OFFCURVE",
"149.975 919.847 OFFCURVE",
"149.975 572.905 CURVE SMOOTH",
"149.975 227.962 OFFCURVE",
"332.945 0 OFFCURVE",
"607.899 0 CURVE SMOOTH",
"772.871 0 OFFCURVE",
"893.851 74.9875 OFFCURVE",
"956.841 166.972 CURVE",
"956.841 105.982 LINE",
"929.845 -26 OFFCURVE",
"826.862 -235 OFFCURVE",
"585.902 -235 CURVE SMOOTH",
"476.921 -235 OFFCURVE",
"372.938 -208 OFFCURVE",
"264.956 -149 CURVE",
"264.956 -477 LINE",
"372.938 -517 OFFCURVE",
"485.919 -536 OFFCURVE",
"614.898 -536 CURVE SMOOTH",
"963.84 -536 OFFCURVE",
"1124.81 -376 OFFCURVE",
"1140.81 138.977 CURVE SMOOTH",
"1170.81 1119.81 LINE",
"986.836 1119.81 LINE"
);
}
);
width = 1320;
}
);
unicode = 0067;
},
{
glyphname = h;
layers = (
{
layerId = "480801EC-13EF-4D5E-B695-C7354D4C452E";
name = Regular;
paths = (
{
closed = 1;
nodes = (
"1107.82 984.836 OFFCURVE",
"973.838 1146.81 OFFCURVE",
"716.881 1146.81 CURVE SMOOTH",
"560.907 1146.81 OFFCURVE",
"442.926 1080.82 OFFCURVE",
"354.941 945.843 CURVE",
"374.938 1555.74 LINE",
"189.968 1555.74 LINE",
"149.975 0 LINE",
"374.938 0 LINE",
"354.941 632.895 LINE",
"354.941 851.858 OFFCURVE",
"476.921 1006.83 OFFCURVE",
"675.888 1006.83 CURVE SMOOTH",
"840.86 1006.83 OFFCURVE",
"934.844 924.846 OFFCURVE",
"923.846 669.888 CURVE SMOOTH",
"893.851 0 LINE",
"1127.81 0 LINE",
"1107.82 675.888 LINE"
);
}
);
width = 1277;
}
);
unicode = 0068;
},
{
glyphname = i;
layers = (
{
layerId = "480801EC-13EF-4D5E-B695-C7354D4C452E";
name = Regular;
paths = (
{
closed = 1;
nodes = (
"341.943 407.932 OFFCURVE",
"331.945 784.869 OFFCURVE",
"343.943 1119.81 CURVE",
"179.97 1119.81 LINE",
"182.97 766.872 OFFCURVE",
"176.971 392.935 OFFCURVE",
"149.975 0 CURVE",
"383.936 0 LINE"
);
},
{
closed = 1;
nodes = (
"343.943 1555.74 LINE",
"179.97 1555.74 LINE",
"169.972 1322.78 LINE",
"353.941 1322.78 LINE"
);
}
);
width = 533;
}
);
unicode = 0069;
},
{
glyphname = j;
layers = (
{
layerId = "480801EC-13EF-4D5E-B695-C7354D4C452E";
name = Regular;
paths = (
{
closed = 1;
nodes = (
"307.949 -139 OFFCURVE",
"273.954 -170 OFFCURVE",
"133.978 -181 CURVE",
"54.9908 -180 LINE",
"49.9917 -456 LINE",
"149.975 -458 LINE",
"390.935 -449 OFFCURVE",
"495.917 -313 OFFCURVE",
"500.917 -28 CURVE SMOOTH",
"540.91 1111.81 LINE",
"366.939 1114.81 LINE",
"318.947 94.9842 LINE SMOOTH"
);
},
{
closed = 1;
nodes = (
"573.904 1555.74 LINE",
"409.932 1555.74 LINE",
"399.933 1322.78 LINE",
"583.903 1322.78 LINE"
);
}
);
width = 733;
}
);
unicode = 006A;
},
{
glyphname = k;
layers = (
{
layerId = "480801EC-13EF-4D5E-B695-C7354D4C452E";
name = Regular;
paths = (
{
closed = 1;
nodes = (
"364.939 526.912 LINE",
"793.868 0 LINE",
"1173.8 0 LINE",
"554.908 595.901 LINE",
"978.837 1119.81 LINE",
"743.876 1119.81 LINE",
"364.939 676.887 LINE",
"374.938 1555.74 LINE",
"189.968 1555.74 LINE",
"149.975 0 LINE",
"394.934 0 LINE"
);
}
);
width = 1323;
}
);
unicode = 006B;
},
{
glyphname = l;
layers = (
{
layerId = "480801EC-13EF-4D5E-B695-C7354D4C452E";
name = Regular;
paths = (
{
closed = 1;
nodes = (
"487.919 226.962 LINE",
"333.944 227.962 LINE",
"336.944 670.888 OFFCURVE",
"350.942 1022.83 OFFCURVE",
"373.938 1465.76 CURVE",
"199.967 1465.76 LINE",
"172.971 946.842 OFFCURVE",
"156.974 518.914 OFFCURVE",
"149.975 0 CURVE",
"487.919 0 LINE"
);
}
);
width = 637;
}
);
unicode = 006C;
},
{
glyphname = m;
layers = (
{
layerId = "480801EC-13EF-4D5E-B695-C7354D4C452E";
name = Regular;
paths = (
{
closed = 1;
nodes = (
"1023.83 1061.82 OFFCURVE",
"887.852 1146.81 OFFCURVE",
"724.879 1146.81 CURVE SMOOTH",
"563.906 1146.81 OFFCURVE",
"448.925 1082.82 OFFCURVE",
"364.939 945.843 CURVE",
"384.936 1119.81 LINE",
"199.967 1119.81 LINE",
"149.975 0 LINE",
"404.933 0 LINE",
"384.936 632.895 LINE",
"384.936 849.859 OFFCURVE",
"513.914 1026.83 OFFCURVE",
"701.883 1026.83 CURVE SMOOTH",
"860.857 1026.83 OFFCURVE",
"934.844 925.846 OFFCURVE",
"934.844 709.882 CURVE",
"844.859 0 LINE",
"1099.82 0 LINE",
"1129.81 632.895 LINE SMOOTH",
"1139.81 851.858 OFFCURVE",
"1237.79 1016.83 OFFCURVE",
"1428.76 1016.83 CURVE SMOOTH",
"1584.74 1016.83 OFFCURVE",
"1629.73 914.848 OFFCURVE",
"1629.73 699.883 CURVE",
"1559.74 0 LINE",
"1834.69 0 LINE",
"1814.7 675.888 LINE",
"1814.7 976.837 OFFCURVE",
"1682.72 1146.81 OFFCURVE",
"1449.76 1146.81 CURVE SMOOTH",
"1276.79 1146.81 OFFCURVE",
"1170.81 1069.82 OFFCURVE",
"1078.82 904.849 CURVE"
);
}
);
width = 1984;
}
);
unicode = 006D;
},
{
glyphname = n;
layers = (
{
layerId = "480801EC-13EF-4D5E-B695-C7354D4C452E";
name = Regular;
paths = (
{
closed = 1;
nodes = (
"1114.81 984.836 OFFCURVE",
"983.836 1146.81 OFFCURVE",
"726.879 1146.81 CURVE SMOOTH",
"570.905 1146.81 OFFCURVE",
"452.925 1063.82 OFFCURVE",
"364.939 995.834 CURVE",
"364.939 1129.81 LINE",
"179.97 1129.81 LINE",
"149.975 0 LINE",
"404.933 0 LINE",
"374.938 642.893 LINE",
"374.938 861.857 OFFCURVE",
"480.92 996.834 OFFCURVE",
"705.883 996.834 CURVE SMOOTH",
"870.855 996.834 OFFCURVE",
"933.845 891.852 OFFCURVE",
"933.845 679.887 CURVE",
"893.851 0 LINE",
"1157.81 0 LINE",
"1127.81 675.888 LINE SMOOTH"
);
}
);
width = 1307;
}
);
unicode = 006E;
},
{
glyphname = o;
layers = (
{
layerId = "480801EC-13EF-4D5E-B695-C7354D4C452E";
name = Regular;
paths = (
{
closed = 1;
nodes = (
"859.857 1010.83 OFFCURVE",
"982.836 847.859 OFFCURVE",
"982.836 590.902 CURVE SMOOTH",
"982.836 330.945 OFFCURVE",
"859.857 288.952 OFFCURVE",
"663.89 288.952 CURVE SMOOTH",
"464.923 288.952 OFFCURVE",
"343.943 329.945 OFFCURVE",
"343.943 590.902 CURVE SMOOTH",
"343.943 850.858 OFFCURVE",
"466.922 1010.83 OFFCURVE",
"663.89 1010.83 CURVE SMOOTH"
);
},
{
closed = 1;
nodes = (
"342.943 1146.81 OFFCURVE",
"149.975 926.846 OFFCURVE",
"149.975 558.907 CURVE SMOOTH",
"149.975 191.968 OFFCURVE",
"342.943 -29 OFFCURVE",
"663.89 -29 CURVE SMOOTH",
"983.836 -29 OFFCURVE",
"1177.8 191.968 OFFCURVE",
"1177.8 558.907 CURVE SMOOTH",
"1177.8 926.846 OFFCURVE",
"983.836 1146.81 OFFCURVE",
"663.89 1146.81 CURVE SMOOTH"
);
}
);
width = 1327;
}
);
leftKerningGroup = a;
unicode = 006F;
},
{
glyphname = p;
layers = (
{
layerId = "480801EC-13EF-4D5E-B695-C7354D4C452E";
name = Regular;
paths = (
{
closed = 1;
nodes = (
"469.922 34.9942 OFFCURVE",
"586.902 -29 OFFCURVE",
"750.875 -29 CURVE SMOOTH",
"1022.83 -29 OFFCURVE",
"1209.8 206.966 OFFCURVE",
"1209.8 558.907 CURVE SMOOTH",
"1209.8 910.848 OFFCURVE",
"1022.83 1146.81 OFFCURVE",
"750.875 1146.81 CURVE SMOOTH",
"586.902 1146.81 OFFCURVE",
"469.922 1082.82 OFFCURVE",
"392.935 949.842 CURVE",
"423.929 1102.82 LINE",
"238.96 1102.82 LINE",
"238.96 259.957 LINE",
"149.975 -426 LINE",
"384.936 -426 LINE",
"392.935 167.972 LINE"
);
},
{
closed = 1;
nodes = (
"1091.82 319.947 OFFCURVE",
"983.836 273.954 OFFCURVE",
"788.869 273.954 CURVE SMOOTH",
"593.901 273.954 OFFCURVE",
"465.922 319.947 OFFCURVE",
"465.922 590.902 CURVE SMOOTH",
"465.922 861.857 OFFCURVE",
"583.903 1024.83 OFFCURVE",
"778.87 1024.83 CURVE SMOOTH",
"973.838 1024.83 OFFCURVE",
"1091.82 861.857 OFFCURVE",
"1091.82 590.902 CURVE SMOOTH"
);
}
);
width = 1359;
}
);
unicode = 0070;
},
{
glyphname = q;
layers = (
{
layerId = "480801EC-13EF-4D5E-B695-C7354D4C452E";
name = Regular;
paths = (
{
closed = 1;
nodes = (
"271.955 855.858 OFFCURVE",
"389.935 1018.83 OFFCURVE",
"584.903 1018.83 CURVE SMOOTH",
"779.87 1018.83 OFFCURVE",
"898.85 855.858 OFFCURVE",
"898.85 584.903 CURVE SMOOTH",
"898.85 313.948 OFFCURVE",
"774.871 277.954 OFFCURVE",
"579.904 277.954 CURVE SMOOTH",
"384.936 277.954 OFFCURVE",
"271.955 313.948 OFFCURVE",
"271.955 584.903 CURVE SMOOTH"
);
},
{
closed = 1;
nodes = (
"1337.78 -282 LINE",
"1111.81 -66 LINE",
"1174.8 1119.81 LINE",
"996.834 1119.81 LINE",
"966.839 949.842 LINE",
"889.852 1082.82 OFFCURVE",
"772.871 1146.81 OFFCURVE",
"607.899 1146.81 CURVE SMOOTH",
"336.944 1146.81 OFFCURVE",
"149.975 910.848 OFFCURVE",
"149.975 558.907 CURVE SMOOTH",
"149.975 206.966 OFFCURVE",
"336.944 -29 OFFCURVE",
"607.899 -29 CURVE SMOOTH",
"772.871 -29 OFFCURVE",
"889.852 34.9942 OFFCURVE",
"966.839 167.972 CURVE",
"910.848 -426 LINE",
"1170.81 -423 LINE"
);
}
);
width = 1487;
}
);
leftKerningGroup = a;
unicode = 0071;
},
{
glyphname = r;
layers = (
{
layerId = "480801EC-13EF-4D5E-B695-C7354D4C452E";
name = Regular;
paths = (
{
closed = 1;
nodes = (
"790.868 1123.81 OFFCURVE",
"769.872 1126.81 OFFCURVE",
"744.876 1126.81 CURVE SMOOTH",
"567.905 1126.81 OFFCURVE",
"434.928 1024.83 OFFCURVE",
"397.934 995.834 CURVE",
"397.934 1109.82 LINE",
"227.962 1109.82 LINE",
"242.96 630.895 OFFCURVE",
"233.961 462.923 OFFCURVE",
"149.975 0 CURVE",
"437.927 0 LINE",
"397.934 559.907 LINE",
"397.934 799.867 OFFCURVE",
"482.92 952.841 OFFCURVE",
"690.885 952.841 CURVE SMOOTH",
"749.875 952.841 OFFCURVE",
"787.869 951.842 OFFCURVE",
"828.862 927.846 CURVE",
"827.862 1116.81 LINE"
);
}
);
width = 978;
}
);
unicode = 0072;
},
{
glyphname = s;
layers = (
{
layerId = "480801EC-13EF-4D5E-B695-C7354D4C452E";
name = Regular;
paths = (
{
closed = 1;
nodes = (
"844.859 1126.81 OFFCURVE",
"723.88 1146.81 OFFCURVE",
"587.902 1146.81 CURVE SMOOTH",
"312.948 1146.81 OFFCURVE",
"157.974 1027.83 OFFCURVE",
"157.974 816.864 CURVE SMOOTH",
"157.974 643.893 OFFCURVE",
"252.958 569.905 OFFCURVE",
"480.92 521.913 CURVE SMOOTH",
"544.909 506.916 LINE SMOOTH",
"658.89 481.92 OFFCURVE",
"723.88 460.923 OFFCURVE",
"739.877 442.926 CURVE SMOOTH",
"755.874 423.929 OFFCURVE",
"774.871 394.934 OFFCURVE",
"796.867 354.941 CURVE",
"796.867 258.957 OFFCURVE",
"719.88 204.966 OFFCURVE",
"546.909 204.966 CURVE SMOOTH",
"417.93 204.966 OFFCURVE",
"285.952 239.96 OFFCURVE",
"149.975 310.948 CURVE",
"149.975 40.9932 LINE",
"293.951 -6 OFFCURVE",
"422.93 -29 OFFCURVE",
"542.91 -29 CURVE SMOOTH",
"830.862 -29 OFFCURVE",
"1005.83 100.983 OFFCURVE",
"1005.83 308.949 CURVE SMOOTH",
"1005.83 491.918 OFFCURVE",
"905.849 574.904 OFFCURVE",
"644.893 630.895 CURVE SMOOTH",
"581.903 644.893 LINE SMOOTH",
"384.936 688.885 OFFCURVE",
"325.946 735.878 OFFCURVE",
"325.946 834.861 CURVE SMOOTH",
"325.946 946.842 OFFCURVE",
"426.929 1012.83 OFFCURVE",
"609.898 1012.83 CURVE SMOOTH",
"729.879 1012.83 OFFCURVE",
"841.86 985.836 OFFCURVE",
"945.843 932.845 CURVE",
"945.843 1086.82 LINE"
);
}
);
width = 1155;
}
);
unicode = 0073;
},
{
glyphname = t;
layers = (
{
layerId = "480801EC-13EF-4D5E-B695-C7354D4C452E";
name = Regular;
paths = (
{
closed = 1;
nodes = (
"149.975 1119.81 LINE",
"149.975 976.837 LINE",
"284.953 976.837 LINE",
"274.954 368.939 LINE SMOOTH",
"274.954 88.9852 OFFCURVE",
"375.937 0 OFFCURVE",
"659.89 0 CURVE SMOOTH",
"848.859 0 LINE",
"848.859 273.954 LINE",
"659.89 273.954 LINE SMOOTH",
"506.916 273.954 OFFCURVE",
"469.922 305.949 OFFCURVE",
"469.922 488.919 CURVE SMOOTH",
"479.92 976.837 LINE",
"738.877 976.837 LINE",
"738.877 1119.81 LINE",
"479.92 1119.81 LINE",
"489.918 1397.77 LINE",
"294.951 1397.77 LINE",
"284.953 1119.81 LINE"
);
}
);
width = 998;
}
);
unicode = 0074;
},
{
glyphname = u;
layers = (
{
layerId = "480801EC-13EF-4D5E-B695-C7354D4C452E";
name = Regular;
paths = (
{
closed = 1;
nodes = (
"149.975 133.978 OFFCURVE",
"285.952 -29 OFFCURVE",
"542.91 -29 CURVE SMOOTH",
"698.884 -29 OFFCURVE",
"814.864 35.994 OFFCURVE",
"903.85 171.971 CURVE",
"893.851 0 LINE",
"1077.82 0 LINE",
"1097.82 1119.81 LINE",
"893.851 1119.81 LINE",
"873.855 644.893 LINE SMOOTH",
"860.857 425.929 OFFCURVE",
"750.875 290.952 OFFCURVE",
"551.908 290.952 CURVE SMOOTH",
"386.936 290.952 OFFCURVE",
"316.947 396.934 OFFCURVE",
"303.949 608.899 CURVE",
"303.949 1119.81 LINE",
"149.975 1119.81 LINE",
"149.975 441.926 LINE SMOOTH"
);
}
);
width = 1247;
}
);
unicode = 0075;
},
{
glyphname = v;
layers = (
{
layerId = "480801EC-13EF-4D5E-B695-C7354D4C452E";
name = Regular;
paths = (
{
closed = 1;
nodes = (
"1239.79 1119.81 LINE",
"1044.83 1119.81 LINE",
"694.884 299.95 LINE",
"344.943 1119.81 LINE",
"149.975 1119.81 LINE",
"559.907 0 LINE",
"829.862 0 LINE"
);
}
);
width = 1389;
}
);
unicode = 0076;
},
{
glyphname = w;
layers = (
{
layerId = "480801EC-13EF-4D5E-B695-C7354D4C452E";
name = Regular;
paths = (
{
closed = 1;
nodes = (
"901.85 507.915 LINE",
"1102.82 0 LINE",
"1359.77 0 LINE",
"1652.72 1119.81 LINE",
"1468.76 1119.81 LINE",
"1239.79 335.944 LINE",
"1029.83 749.875 LINE",
"772.871 749.875 LINE",
"563.906 335.944 LINE",
"333.944 1119.81 LINE",
"149.975 1119.81 LINE",
"442.926 0 LINE",
"689.885 0 LINE"
);
}
);
width = 1802;
}
);
unicode = 0077;
},
{
glyphname = x;
layers = (
{
layerId = "480801EC-13EF-4D5E-B695-C7354D4C452E";
name = Regular;
paths = (
{
closed = 1;
nodes = (
"403.933 1119.81 LINE",
"206.966 1119.81 LINE",
"594.901 535.911 LINE",
"149.975 0 LINE",
"446.926 0 LINE",
"722.88 389.935 LINE",
"978.837 0 LINE",
"1275.79 0 LINE",
"839.86 524.913 LINE",
"1234.79 1119.81 LINE",
"1047.83 1119.81 LINE",
"710.882 660.89 LINE"
);
}
);
width = 1425;
}
);
leftKerningGroup = a;
rightKerningGroup = x;
unicode = 0078;
},
{
glyphname = y;
layers = (
{
layerId = "480801EC-13EF-4D5E-B695-C7354D4C452E";
name = Regular;
paths = (
{
closed = 1;
nodes = (
"740.877 468.922 LINE",
"344.943 1119.81 LINE",
"149.975 1119.81 LINE",
"628.895 92.9845 LINE",
"549.908 -66 LINE",
"481.92 -151 OFFCURVE",
"439.927 -202 OFFCURVE",
"338.944 -202 CURVE SMOOTH",
"210.965 -202 LINE",
"210.965 -446 LINE",
"377.937 -446 LINE SMOOTH",
"542.91 -446 OFFCURVE",
"636.894 -397 OFFCURVE",
"767.872 -104 CURVE",
"1239.79 1119.81 LINE",
"1044.83 1119.81 LINE"
);
}
);
width = 1389;
}
);
unicode = 0079;
},
{
glyphname = z;
layers = (
{
layerId = "480801EC-13EF-4D5E-B695-C7354D4C452E";
name = Regular;
paths = (
{
closed = 1;
nodes = (
"149.975 267.955 LINE",
"149.975 0 LINE",
"1048.83 0 LINE",
"1048.83 246.959 LINE",
"426.929 246.959 LINE",
"1058.82 951.842 LINE",
"1058.82 1119.81 LINE",
"194.968 1119.81 LINE",
"194.968 982.836 LINE",
"861.857 982.836 LINE"
);
}
);
width = 1208;
}
);
unicode = 007A;
},
{
glyphname = braceleft;
layers = (
{
layerId = "480801EC-13EF-4D5E-B695-C7354D4C452E";
name = Regular;
paths = (
{
closed = 1;
nodes = (
"671.888 -139 OFFCURVE",
"647.892 -85 OFFCURVE",
"636.894 49.9917 CURVE",
"640.893 297.95 LINE",
"631.895 478.92 OFFCURVE",
"593.901 567.905 OFFCURVE",
"445.926 606.899 CURVE",
"593.901 637.894 OFFCURVE",
"648.892 717.88 OFFCURVE",
"652.891 926.846 CURVE SMOOTH",
"656.891 1174.8 LINE SMOOTH",
"660.89 1362.77 OFFCURVE",
"686.886 1390.77 OFFCURVE",
"887.852 1399.77 CURVE",
"955.841 1398.77 LINE",
"958.84 1541.74 LINE",
"896.851 1542.74 LINE",
"564.906 1534.74 OFFCURVE",
"476.921 1476.75 OFFCURVE",
"471.921 1181.8 CURVE SMOOTH",
"467.922 941.843 LINE SMOOTH",
"463.923 742.876 OFFCURVE",
"403.933 691.885 OFFCURVE",
"212.965 682.886 CURVE",
"151.975 683.886 LINE",
"149.975 540.91 LINE",
"210.965 539.91 LINE SMOOTH",
"399.933 535.911 OFFCURVE",
"446.926 468.922 OFFCURVE",
"455.924 267.955 CURVE",
"451.925 29.995 LINE",
"459.923 -265 OFFCURVE",
"531.911 -340 OFFCURVE",
"863.856 -347 CURVE SMOOTH",
"925.846 -348 LINE",
"927.846 -144 LINE",
"859.857 -143 LINE SMOOTH"
);
}
);
width = 1058;
}
);
unicode = 007B;
},
{
glyphname = bar;
layers = (
{
layerId = "480801EC-13EF-4D5E-B695-C7354D4C452E";
name = Regular;
paths = (
{
closed = 1;
nodes = (
"149.975 -483 LINE",
"339.943 -483 LINE",
"369.938 526.912 LINE",
"409.932 1564.74 LINE",
"239.96 1564.74 LINE"
);
}
);
width = 509;
}
);
unicode = 007C;
},
{
glyphname = braceright;
layers = (
{
layerId = "480801EC-13EF-4D5E-B695-C7354D4C452E";
name = Regular;
paths = (
{
closed = 1;
nodes = (
"511.915 -334 OFFCURVE",
"595.901 -260 OFFCURVE",
"595.901 34.9942 CURVE SMOOTH",
"595.901 273.954 LINE SMOOTH",
"595.901 474.921 OFFCURVE",
"656.891 540.91 OFFCURVE",
"845.859 540.91 CURVE SMOOTH",
"907.849 540.91 LINE",
"907.849 683.886 LINE",
"845.859 683.886 LINE SMOOTH",
"656.891 683.886 OFFCURVE",
"595.901 748.875 OFFCURVE",
"595.901 947.842 CURVE SMOOTH",
"595.901 1187.8 LINE SMOOTH",
"595.901 1482.75 OFFCURVE",
"511.915 1555.74 OFFCURVE",
"179.97 1555.74 CURVE SMOOTH",
"116.981 1555.74 LINE",
"116.981 1412.76 LINE",
"186.969 1412.76 LINE SMOOTH",
"373.938 1412.76 OFFCURVE",
"411.931 1372.77 OFFCURVE",
"411.931 1183.8 CURVE SMOOTH",
"411.931 935.844 LINE SMOOTH",
"411.931 726.879 OFFCURVE",
"464.923 644.893 OFFCURVE",
"612.898 611.898 CURVE",
"464.923 575.904 OFFCURVE",
"411.931 491.918 OFFCURVE",
"411.931 296.951 CURVE SMOOTH",
"411.931 48.9918 LINE SMOOTH",
"411.931 -142 OFFCURVE",
"373.938 -180 OFFCURVE",
"186.969 -180 CURVE SMOOTH",
"116.981 -180 LINE",
"116.981 -334 LINE",
"179.97 -334 LINE SMOOTH"
);
}
);
width = 910;
}
);
unicode = 007D;
},
{
glyphname = asciitilde;
layers = (
{
layerId = "480801EC-13EF-4D5E-B695-C7354D4C452E";
name = Regular;
paths = (
{
closed = 1;
nodes = (
"1294.78 704.883 OFFCURVE",
"1188.8 656.891 OFFCURVE",
"1073.82 656.891 CURVE SMOOTH",
"1010.83 656.891 OFFCURVE",
"927.846 677.887 OFFCURVE",
"824.863 718.88 CURVE SMOOTH",
"805.866 725.879 OFFCURVE",
"800.867 727.879 OFFCURVE",
"787.869 732.878 CURVE SMOOTH",
"689.885 772.871 OFFCURVE",
"603.899 792.868 OFFCURVE",
"530.912 792.868 CURVE SMOOTH",
"401.933 792.868 OFFCURVE",
"289.952 749.875 OFFCURVE",
"149.975 644.893 CURVE",
"149.975 436.927 LINE",
"280.953 547.909 OFFCURVE",
"390.935 646.892 OFFCURVE",
"507.915 646.892 CURVE SMOOTH",
"570.905 646.892 OFFCURVE",
"653.891 619.897 OFFCURVE",
"756.874 564.906 CURVE",
"766.872 561.906 OFFCURVE",
"773.871 558.907 OFFCURVE",
"778.87 556.907 CURVE",
"781.87 555.907 OFFCURVE",
"787.869 553.908 OFFCURVE",
"794.868 550.908 CURVE",
"891.852 491.918 OFFCURVE",
"977.837 461.923 OFFCURVE",
"1050.83 461.923 CURVE SMOOTH",
"1179.8 461.923 OFFCURVE",
"1291.79 553.908 OFFCURVE",
"1431.76 658.89 CURVE",
"1431.76 816.864 LINE"
);
}
);
width = 1581;
}
);
unicode = 007E;
},
{
glyphname = exclamdown;
layers = (
{
layerId = "480801EC-13EF-4D5E-B695-C7354D4C452E";
name = Regular;
paths = (
{
closed = 1;
nodes = (
"149.975 1258.79 LINE",
"392.935 1258.79 LINE",
"362.94 1532.74 LINE",
"179.97 1532.74 LINE"
);
},
{
closed = 1;
nodes = (
"182.97 1007.83 LINE",
"173.971 650.892 LINE",
"187.969 -4 LINE",
"450.925 3.99933 LINE",
"416.931 658.89 LINE",
"384.936 1014.83 LINE"
);
}
);
width = 600;
}
);
unicode = 00A1;
},
{
glyphname = cent;
layers = (
{
layerId = "480801EC-13EF-4D5E-B695-C7354D4C452E";
name = Regular;
paths = (
{
closed = 1;
nodes = (
"454.924 228.962 OFFCURVE",
"341.943 361.94 OFFCURVE",
"344.943 554.908 CURVE SMOOTH",
"349.942 826.862 OFFCURVE",
"467.922 987.836 OFFCURVE",
"663.89 1007.83 CURVE",
"649.892 201.966 LINE"
);
},
{
closed = 1;
nodes = (
"956.841 1103.82 OFFCURVE",
"866.856 1126.81 OFFCURVE",
"769.872 1133.81 CURVE",
"773.871 1420.76 LINE",
"671.888 1422.76 LINE",
"666.889 1135.81 LINE",
"343.943 1111.81 OFFCURVE",
"156.974 902.85 OFFCURVE",
"149.975 558.907 CURVE SMOOTH",
"144.976 215.964 OFFCURVE",
"325.946 -2 OFFCURVE",
"645.893 -34 CURVE",
"640.893 -322 LINE",
"742.876 -324 LINE",
"747.876 -40 LINE",
"850.858 -32 OFFCURVE",
"940.843 -10 OFFCURVE",
"1027.83 26.9955 CURVE",
"1032.83 276.954 LINE",
"935.844 227.962 OFFCURVE",
"844.859 200.967 OFFCURVE",
"751.875 195.967 CURVE",
"766.872 1009.83 LINE",
"857.857 1004.83 OFFCURVE",
"946.842 975.838 OFFCURVE",
"1043.83 918.847 CURVE",
"1045.83 1060.82 LINE"
);
}
);
width = 1195;
}
);
unicode = 00A2;
},
{
glyphname = sterling;
layers = (
{
layerId = "480801EC-13EF-4D5E-B695-C7354D4C452E";
name = Regular;
paths = (
{
closed = 1;
nodes = (
"1058.82 1482.75 OFFCURVE",
"953.841 1506.75 OFFCURVE",
"873.855 1507.75 CURVE",
"562.906 1499.75 OFFCURVE",
"422.93 1359.77 OFFCURVE",
"413.931 1011.83 CURVE SMOOTH",
"406.932 773.871 LINE",
"207.965 776.871 LINE",
"204.966 653.891 LINE",
"403.933 650.892 LINE",
"391.935 215.964 LINE",
"155.974 219.963 LINE",
"149.975 0 LINE",
"1142.81 -17 LINE",
"1148.81 202.966 LINE",
"591.901 211.965 LINE",
"603.899 646.892 LINE",
"994.834 639.893 LINE",
"997.834 762.873 LINE",
"606.899 769.872 LINE",
"612.898 984.836 LINE SMOOTH",
"620.897 1267.79 OFFCURVE",
"689.885 1336.78 OFFCURVE",
"886.852 1347.78 CURVE",
"967.839 1346.78 OFFCURVE",
"1057.82 1316.78 OFFCURVE",
"1157.81 1260.79 CURVE",
"1162.81 1442.76 LINE"
);
}
);
width = 1312;
}
);
unicode = 00A3;
},
{
glyphname = currency;
layers = (
{
layerId = "480801EC-13EF-4D5E-B695-C7354D4C452E";
name = Regular;
paths = (
{
closed = 1;
nodes = (
"865.856 1043.83 OFFCURVE",
"788.869 1066.82 OFFCURVE",
"708.882 1066.82 CURVE SMOOTH",
"623.896 1066.82 OFFCURVE",
"546.909 1042.83 OFFCURVE",
"473.921 990.835 CURVE",
"266.956 1197.8 LINE",
"151.975 1082.82 LINE",
"358.94 876.854 LINE",
"307.949 801.867 OFFCURVE",
"282.953 725.879 OFFCURVE",
"282.953 640.893 CURVE SMOOTH",
"282.953 563.906 OFFCURVE",
"307.949 485.919 OFFCURVE",
"356.941 402.933 CURVE",
"149.975 196.967 LINE",
"262.956 81.9864 LINE",
"469.922 288.952 LINE",
"550.908 239.96 OFFCURVE",
"631.895 214.964 OFFCURVE",
"708.882 214.964 CURVE SMOOTH",
"789.869 214.964 OFFCURVE",
"865.856 239.96 OFFCURVE",
"944.843 292.951 CURVE",
"1151.81 85.9857 LINE",
"1265.79 198.967 LINE",
"1056.82 405.932 LINE",
"1109.82 481.92 OFFCURVE",
"1134.81 556.907 OFFCURVE",
"1134.81 640.893 CURVE SMOOTH",
"1134.81 723.88 OFFCURVE",
"1110.82 801.867 OFFCURVE",
"1061.82 880.853 CURVE",
"1267.79 1086.82 LINE",
"1153.81 1201.8 LINE",
"946.842 992.835 LINE"
);
},
{
closed = 1;
nodes = (
"977.837 491.918 OFFCURVE",
"859.857 392.935 OFFCURVE",
"708.882 392.935 CURVE SMOOTH",
"557.907 392.935 OFFCURVE",
"438.927 490.918 OFFCURVE",
"438.927 642.893 CURVE SMOOTH",
"438.927 791.868 OFFCURVE",
"559.907 908.849 OFFCURVE",
"708.882 908.849 CURVE SMOOTH",
"860.857 908.849 OFFCURVE",
"977.837 791.868 OFFCURVE",
"977.837 642.893 CURVE SMOOTH"
);
}
);
width = 1417;
}
);
unicode = 00A4;
},
{
glyphname = yen;
layers = (
{
layerId = "480801EC-13EF-4D5E-B695-C7354D4C452E";
name = Regular;
paths = (
{
closed = 1;
nodes = (
"837.861 628.895 LINE",
"921.847 783.87 LINE",
"1252.79 783.87 LINE",
"1252.79 906.849 LINE",
"988.835 906.849 LINE",
"1306.78 1492.75 LINE",
"1095.82 1492.75 LINE",
"728.879 792.868 LINE",
"359.94 1492.75 LINE",
"149.975 1492.75 LINE",
"456.924 906.849 LINE",
"192.968 906.849 LINE",
"192.968 783.87 LINE",
"524.913 783.87 LINE",
"628.895 628.895 LINE",
"628.895 577.904 LINE",
"212.965 577.904 LINE",
"212.965 414.931 LINE",
"628.895 414.931 LINE",
"598.9 0 LINE",
"859.857 0 LINE",
"839.86 414.931 LINE",
"1252.79 414.931 LINE",
"1252.79 577.904 LINE",
"837.861 577.904 LINE"
);
}
);
width = 1456;
}
);
unicode = 00A5;
},
{
glyphname = brokenbar;
layers = (
{
layerId = "480801EC-13EF-4D5E-B695-C7354D4C452E";
name = Regular;
paths = (
{
closed = 1;
nodes = (
"149.975 -483 LINE",
"339.943 -483 LINE",
"369.938 525.912 LINE",
"199.967 525.912 LINE"
);
},
{
closed = 1;
nodes = (
"239.96 1564.74 LINE",
"200.967 632.895 LINE",
"370.938 632.895 LINE",
"409.932 1564.74 LINE"
);
}
);
width = 469;
}
);
unicode = 00A6;
},
{
glyphname = section;
layers = (
{
layerId = "480801EC-13EF-4D5E-B695-C7354D4C452E";
name = Regular;
paths = (
{
closed = 1;
nodes = (
"600.9 870.855 OFFCURVE",
"706.882 803.866 OFFCURVE",
"754.874 758.874 CURVE SMOOTH",
"801.867 713.881 OFFCURVE",
"825.863 665.889 OFFCURVE",
"825.863 615.897 CURVE SMOOTH",
"825.863 554.908 OFFCURVE",
"784.869 493.918 OFFCURVE",
"700.883 433.928 CURVE",
"533.911 523.913 OFFCURVE",
"427.929 590.902 OFFCURVE",
"381.936 635.894 CURVE SMOOTH",
"334.944 679.887 OFFCURVE",
"311.948 726.879 OFFCURVE",
"311.948 777.871 CURVE SMOOTH",
"311.948 838.86 OFFCURVE",
"352.941 898.85 OFFCURVE",
"436.927 959.84 CURVE"
);
},
{
closed = 1;
nodes = (
"781.87 1500.75 OFFCURVE",
"678.887 1519.75 OFFCURVE",
"581.903 1519.75 CURVE SMOOTH",
"360.94 1519.75 OFFCURVE",
"215.964 1403.77 OFFCURVE",
"215.964 1230.8 CURVE SMOOTH",
"215.964 1138.81 OFFCURVE",
"254.958 1064.82 OFFCURVE",
"333.944 1005.83 CURVE",
"212.965 940.843 OFFCURVE",
"149.975 843.86 OFFCURVE",
"149.975 722.88 CURVE SMOOTH",
"149.975 654.891 OFFCURVE",
"170.972 595.901 OFFCURVE",
"213.964 544.909 CURVE SMOOTH",
"256.957 493.918 OFFCURVE",
"348.942 427.929 OFFCURVE",
"491.918 347.942 CURVE SMOOTH",
"516.914 333.944 LINE SMOOTH",
"663.89 251.958 OFFCURVE",
"737.877 183.969 OFFCURVE",
"737.877 128.979 CURVE SMOOTH",
"737.877 27.9953 OFFCURVE",
"658.89 -1 OFFCURVE",
"522.913 -1 CURVE SMOOTH",
"445.926 -1 OFFCURVE",
"345.942 24.9958 OFFCURVE",
"229.962 76.9872 CURVE",
"229.962 -137 LINE",
"346.942 -176 OFFCURVE",
"447.925 -195 OFFCURVE",
"544.909 -195 CURVE SMOOTH",
"775.871 -195 OFFCURVE",
"921.847 -74 OFFCURVE",
"921.847 114.981 CURVE SMOOTH",
"921.847 199.967 OFFCURVE",
"885.853 270.955 OFFCURVE",
"802.866 339.943 CURVE",
"926.846 410.932 OFFCURVE",
"987.836 502.916 OFFCURVE",
"987.836 622.896 CURVE SMOOTH",
"987.836 689.885 OFFCURVE",
"965.839 749.875 OFFCURVE",
"922.846 800.867 CURVE SMOOTH",
"878.854 851.858 OFFCURVE",
"786.869 917.847 OFFCURVE",
"645.893 996.834 CURVE SMOOTH",
"636.894 1001.83 OFFCURVE",
"622.896 1009.83 OFFCURVE",
"605.899 1019.83 CURVE SMOOTH",
"468.922 1096.82 OFFCURVE",
"399.933 1164.81 OFFCURVE",
"399.933 1224.8 CURVE SMOOTH",
"399.933 1319.78 OFFCURVE",
"475.921 1375.77 OFFCURVE",
"604.899 1375.77 CURVE SMOOTH",
"679.887 1375.77 OFFCURVE",
"775.871 1349.78 OFFCURVE",
"886.852 1297.78 CURVE",
"886.852 1461.76 LINE"
);
}
);
width = 1137;
}
);
unicode = 00A7;
},
{
glyphname = dieresis;
layers = (
{
layerId = "480801EC-13EF-4D5E-B695-C7354D4C452E";
name = Regular;
paths = (
{
closed = 1;
nodes = (
"786.869 1566.74 LINE",
"568.905 1566.74 LINE",
"568.905 1349.78 LINE",
"786.869 1349.78 LINE"
);
},
{
closed = 1;
nodes = (
"367.939 1566.74 LINE",
"149.975 1566.74 LINE",
"149.975 1349.78 LINE",
"367.939 1349.78 LINE"
);
}
);
width = 936;
}
);
unicode = 00A8;
},
{
glyphname = copyright;
layers = (
{
layerId = "480801EC-13EF-4D5E-B695-C7354D4C452E";
name = Regular;
paths = (
{
closed = 1;
nodes = (
"687.885 1484.75 OFFCURVE",
"511.915 1410.77 OFFCURVE",
"366.939 1265.79 CURVE SMOOTH",
"221.963 1120.81 OFFCURVE",
"149.975 945.843 OFFCURVE",
"149.975 740.877 CURVE SMOOTH",
"149.975 537.91 OFFCURVE",
"221.963 363.939 OFFCURVE",
"366.939 218.964 CURVE SMOOTH",
"511.915 73.9877 OFFCURVE",
"687.885 0 OFFCURVE",
"890.852 0 CURVE SMOOTH",
"1093.82 0 OFFCURVE",
"1269.79 73.9877 OFFCURVE",
"1414.76 218.964 CURVE SMOOTH",
"1559.74 363.939 OFFCURVE",
"1631.73 537.91 OFFCURVE",
"1631.73 740.877 CURVE SMOOTH",
"1631.73 945.843 OFFCURVE",
"1559.74 1120.81 OFFCURVE",
"1414.76 1265.79 CURVE SMOOTH",
"1269.79 1410.77 OFFCURVE",
"1093.82 1484.75 OFFCURVE",
"890.852 1484.75 CURVE SMOOTH"
);
},
{
closed = 1;
nodes = (
"1066.82 1381.77 OFFCURVE",
"1218.8 1318.78 OFFCURVE",
"1343.78 1193.8 CURVE SMOOTH",
"1466.76 1069.82 OFFCURVE",
"1529.75 917.847 OFFCURVE",
"1529.75 740.877 CURVE SMOOTH",
"1529.75 565.906 OFFCURVE",
"1467.76 417.93 OFFCURVE",
"1343.78 320.947 CURVE",
"1218.8 235.961 OFFCURVE",
"1066.82 181.97 OFFCURVE",
"890.852 181.97 CURVE SMOOTH",
"715.881 181.97 OFFCURVE",
"564.906 235.961 OFFCURVE",
"439.927 320.947 CURVE",
"314.948 432.928 OFFCURVE",
"249.958 568.905 OFFCURVE",
"249.958 740.877 CURVE SMOOTH",
"249.958 913.848 OFFCURVE",
"314.948 1068.82 OFFCURVE",
"439.927 1193.8 CURVE SMOOTH",
"564.906 1318.78 OFFCURVE",
"715.881 1381.77 OFFCURVE",
"890.852 1381.77 CURVE SMOOTH"
);
},
{
closed = 1;
nodes = (
"1102.82 1172.8 OFFCURVE",
"1012.83 1191.8 OFFCURVE",
"915.848 1191.8 CURVE SMOOTH",
"627.896 1191.8 OFFCURVE",
"448.925 1019.83 OFFCURVE",
"448.925 740.877 CURVE SMOOTH",
"448.925 463.923 OFFCURVE",
"627.896 288.952 OFFCURVE",
"915.848 288.952 CURVE SMOOTH",
"1008.83 288.952 OFFCURVE",
"1100.82 306.949 OFFCURVE",
"1189.8 345.942 CURVE",
"1189.8 532.911 LINE",
"1101.82 487.919 OFFCURVE",
"1022.83 467.922 OFFCURVE",
"937.844 467.922 CURVE SMOOTH",
"730.878 467.922 OFFCURVE",
"611.898 608.899 OFFCURVE",
"611.898 740.877 CURVE SMOOTH",
"611.898 949.842 OFFCURVE",
"728.879 1102.82 OFFCURVE",
"927.846 1102.82 CURVE SMOOTH",
"1015.83 1102.82 OFFCURVE",
"1101.82 1081.82 OFFCURVE",
"1189.8 1037.83 CURVE",
"1189.8 1136.81 LINE"
);
}
);
width = 1781;
}
);
unicode = 00A9;
},
{
glyphname = ordfeminine;
layers = (
{
layerId = "480801EC-13EF-4D5E-B695-C7354D4C452E";
name = Regular;
paths = (
{
closed = 1;
nodes = (
"861.857 591.901 LINE",
"173.971 591.901 LINE",
"173.971 468.922 LINE",
"861.857 468.922 LINE"
);
},
{
closed = 1;
nodes = (
"859.857 1403.77 OFFCURVE",
"741.877 1519.75 OFFCURVE",
"497.917 1519.75 CURVE SMOOTH",
"405.932 1519.75 OFFCURVE",
"307.949 1500.75 OFFCURVE",
"210.965 1463.76 CURVE",
"210.965 1336.78 LINE",
"301.95 1381.77 OFFCURVE",
"393.934 1404.77 OFFCURVE",
"476.921 1404.77 CURVE SMOOTH",
"632.895 1404.77 OFFCURVE",
"710.882 1343.78 OFFCURVE",
"710.882 1222.8 CURVE SMOOTH",
"710.882 1218.8 LINE",
"528.912 1218.8 LINE SMOOTH",
"277.954 1218.8 OFFCURVE",
"149.975 1125.81 OFFCURVE",
"149.975 945.843 CURVE SMOOTH",
"149.975 794.868 OFFCURVE",
"258.957 697.884 OFFCURVE",
"429.928 697.884 CURVE SMOOTH",
"553.908 697.884 OFFCURVE",
"651.891 744.876 OFFCURVE",
"710.882 828.862 CURVE",
"710.882 716.881 LINE",
"859.857 716.881 LINE",
"859.857 1164.81 LINE SMOOTH"
);
},
{
closed = 1;
nodes = (
"700.883 987.836 OFFCURVE",
"605.899 881.853 OFFCURVE",
"466.922 881.853 CURVE SMOOTH",
"357.94 881.853 OFFCURVE",
"286.952 937.844 OFFCURVE",
"286.952 1022.83 CURVE SMOOTH",
"286.952 1075.82 OFFCURVE",
"307.949 1112.81 OFFCURVE",
"349.942 1135.81 CURVE SMOOTH",
"391.935 1157.81 OFFCURVE",
"466.922 1168.81 OFFCURVE",
"573.904 1168.81 CURVE SMOOTH",
"700.883 1168.81 LINE",
"700.883 1139.81 LINE SMOOTH"
);
}
);
width = 1011;
}
);
unicode = 00AA;
},
{
glyphname = guillemotleft;
layers = (
{
layerId = "480801EC-13EF-4D5E-B695-C7354D4C452E";
name = Regular;
paths = (
{
closed = 1;
nodes = (
"1037.83 69.9883 LINE",
"1085.82 298.95 LINE",
"793.868 576.904 LINE",
"1104.82 834.861 LINE",
"1110.82 1025.83 LINE",
"627.896 623.896 LINE",
"583.903 503.916 LINE"
);
},
{
closed = 1;
nodes = (
"603.899 84.9859 LINE",
"651.891 313.948 LINE",
"360.94 592.901 LINE",
"670.888 849.859 LINE",
"677.887 1040.83 LINE",
"193.968 638.894 LINE",
"149.975 518.914 LINE"
);
}
);
width = 1260;
}
);
unicode = 00AB;
},
{
glyphname = logicalnot;
layers = (
{
layerId = "480801EC-13EF-4D5E-B695-C7354D4C452E";
name = Regular;
paths = (
{
closed = 1;
nodes = (
"1213.8 286.952 LINE",
"1461.76 286.952 LINE",
"1431.76 861.857 LINE",
"149.975 861.857 LINE",
"149.975 671.888 LINE",
"1263.79 691.885 LINE"
);
}
);
width = 1611;
}
);
unicode = 00AC;
},
{
glyphname = sfthyphen;
layers = (
{
layerId = "480801EC-13EF-4D5E-B695-C7354D4C452E";
name = Regular;
paths = (
{
closed = 1;
nodes = (
"688.885 642.893 LINE",
"149.975 642.893 LINE",
"149.975 478.92 LINE",
"688.885 478.92 LINE"
);
}
);
width = 838;
}
);
unicode = 00AD;
},
{
glyphname = registered;
layers = (
{
layerId = "480801EC-13EF-4D5E-B695-C7354D4C452E";
name = Regular;
paths = (
{
closed = 1;
nodes = (
"1066.82 1381.77 OFFCURVE",
"1218.8 1323.78 OFFCURVE",
"1343.78 1207.8 CURVE SMOOTH",
"1466.76 1092.82 OFFCURVE",
"1529.75 952.841 OFFCURVE",
"1529.75 789.869 CURVE SMOOTH",
"1529.75 628.895 OFFCURVE",
"1467.76 488.919 OFFCURVE",
"1343.78 373.938 CURVE SMOOTH",
"1218.8 257.957 OFFCURVE",
"1066.82 198.967 OFFCURVE",
"890.852 198.967 CURVE SMOOTH",
"715.881 198.967 OFFCURVE",
"564.906 257.957 OFFCURVE",
"439.927 373.938 CURVE SMOOTH",
"314.948 489.918 OFFCURVE",
"249.958 629.895 OFFCURVE",
"249.958 789.869 CURVE SMOOTH",
"249.958 949.842 OFFCURVE",
"314.948 1091.82 OFFCURVE",
"439.927 1207.8 CURVE SMOOTH",
"564.906 1323.78 OFFCURVE",
"715.881 1381.77 OFFCURVE",
"890.852 1381.77 CURVE SMOOTH"
);
},
{
closed = 1;
nodes = (
"687.885 1484.75 OFFCURVE",
"511.915 1410.77 OFFCURVE",
"366.939 1265.79 CURVE SMOOTH",
"221.963 1120.81 OFFCURVE",
"149.975 945.843 OFFCURVE",
"149.975 740.877 CURVE SMOOTH",
"149.975 537.91 OFFCURVE",
"221.963 363.939 OFFCURVE",
"366.939 218.964 CURVE SMOOTH",
"511.915 73.9877 OFFCURVE",
"687.885 0 OFFCURVE",
"890.852 0 CURVE SMOOTH",
"1093.82 0 OFFCURVE",
"1269.79 73.9877 OFFCURVE",
"1414.76 218.964 CURVE SMOOTH",
"1559.74 363.939 OFFCURVE",
"1631.73 537.91 OFFCURVE",
"1631.73 740.877 CURVE SMOOTH",
"1631.73 945.843 OFFCURVE",
"1559.74 1120.81 OFFCURVE",
"1414.76 1265.79 CURVE SMOOTH",
"1269.79 1410.77 OFFCURVE",
"1093.82 1484.75 OFFCURVE",
"890.852 1484.75 CURVE SMOOTH"
);
},
{
closed = 1;
nodes = (
"1058.82 1120.81 OFFCURVE",
"1110.82 1082.82 OFFCURVE",
"1110.82 981.837 CURVE SMOOTH",
"1110.82 881.853 OFFCURVE",
"1060.82 844.859 OFFCURVE",
"913.848 844.859 CURVE SMOOTH",
"790.868 844.859 LINE",
"790.868 1120.81 LINE",
"913.848 1120.81 LINE SMOOTH"
);
},
{
closed = 1;
nodes = (
"790.868 337.944 LINE",
"790.868 693.885 LINE",
"846.859 693.885 LINE SMOOTH",
"855.858 693.885 OFFCURVE",
"872.855 685.886 OFFCURVE",
"897.851 668.889 CURVE SMOOTH",
"921.847 651.891 OFFCURVE",
"953.841 610.898 OFFCURVE",
"992.835 546.909 CURVE SMOOTH",
"1121.81 337.944 LINE",
"1293.78 337.944 LINE",
"1156.81 560.907 LINE SMOOTH",
"1125.81 609.898 OFFCURVE",
"1099.82 646.892 OFFCURVE",
"1077.82 672.888 CURVE",
"1054.82 697.884 OFFCURVE",
"1035.83 713.881 OFFCURVE",
"1019.83 718.88 CURVE",
"1147.81 741.877 OFFCURVE",
"1220.8 818.864 OFFCURVE",
"1220.8 933.845 CURVE SMOOTH",
"1220.8 1094.82 OFFCURVE",
"1105.82 1173.8 OFFCURVE",
"870.855 1173.8 CURVE SMOOTH",
"585.902 1173.8 LINE",
"585.902 337.944 LINE"
);
}
);
width = 1781;
}
);
unicode = 00AE;
},
{
glyphname = macron;
layers = (
{
layerId = "480801EC-13EF-4D5E-B695-C7354D4C452E";
name = Regular;
paths = (
{
closed = 1;
nodes = (
"747.876 1525.75 LINE",
"149.975 1525.75 LINE",
"149.975 1377.77 LINE",
"747.876 1377.77 LINE"
);
}
);
width = 897;
}
);
unicode = 00AF;
},
{
glyphname = degree;
layers = (
{
layerId = "480801EC-13EF-4D5E-B695-C7354D4C452E";
name = Regular;
paths = (
{
closed = 1;
nodes = (
"571.905 1440.76 OFFCURVE",
"656.891 1362.77 OFFCURVE",
"656.891 1266.79 CURVE SMOOTH",
"656.891 1170.81 OFFCURVE",
"573.904 1095.82 OFFCURVE",
"466.922 1095.82 CURVE SMOOTH",
"359.94 1095.82 OFFCURVE",
"276.954 1170.81 OFFCURVE",
"276.954 1266.79 CURVE SMOOTH",
"276.954 1363.77 OFFCURVE",
"359.94 1440.76 OFFCURVE",
"466.922 1440.76 CURVE SMOOTH"
);
},
{
closed = 1;
nodes = (
"289.952 1519.75 OFFCURVE",
"149.975 1378.77 OFFCURVE",
"149.975 1199.8 CURVE SMOOTH",
"149.975 1019.83 OFFCURVE",
"284.953 884.853 OFFCURVE",
"464.923 884.853 CURVE SMOOTH",
"643.893 884.853 OFFCURVE",
"783.87 1023.83 OFFCURVE",
"783.87 1199.8 CURVE SMOOTH",
"783.87 1287.79 OFFCURVE",
"752.875 1364.77 OFFCURVE",
"691.885 1424.76 CURVE",
"634.894 1485.75 OFFCURVE",
"551.908 1519.75 OFFCURVE",
"466.922 1519.75 CURVE SMOOTH"
);
}
);
width = 933;
}
);
unicode = 00B0;
},
{
glyphname = plusminus;
layers = (
{
layerId = "480801EC-13EF-4D5E-B695-C7354D4C452E";
name = Regular;
paths = (
{
closed = 1;
nodes = (
"149.975 896.851 LINE",
"149.975 726.879 LINE",
"706.882 726.879 LINE",
"706.882 339.943 LINE",
"874.854 339.943 LINE",
"874.854 726.879 LINE",
"1431.76 726.879 LINE",
"1431.76 896.851 LINE",
"874.854 896.851 LINE",
"874.854 1283.79 LINE",
"706.882 1283.79 LINE",
"706.882 896.851 LINE"
);
},
{
closed = 1;
nodes = (
"1431.76 189.968 LINE",
"149.975 189.968 LINE",
"149.975 0 LINE",
"1431.76 0 LINE"
);
}
);
width = 1581;
}
);
unicode = 00B1;
},
{
glyphname = twosuperior;
layers = (
{
layerId = "480801EC-13EF-4D5E-B695-C7354D4C452E";
name = Regular;
paths = (
{
closed = 1;
nodes = (
"344.943 850.858 OFFCURVE",
"373.938 875.854 OFFCURVE",
"410.932 907.849 CURVE SMOOTH",
"631.895 1096.82 OFFCURVE",
"741.877 1186.8 OFFCURVE",
"741.877 1279.79 CURVE SMOOTH",
"741.877 1423.76 OFFCURVE",
"615.897 1519.75 OFFCURVE",
"422.93 1519.75 CURVE SMOOTH",
"346.942 1519.75 OFFCURVE",
"258.957 1500.75 OFFCURVE",
"155.974 1463.76 CURVE",
"155.974 1340.78 LINE",
"251.958 1387.77 OFFCURVE",
"332.945 1410.77 OFFCURVE",
"401.933 1410.77 CURVE SMOOTH",
"514.914 1410.77 OFFCURVE",
"590.902 1351.78 OFFCURVE",
"590.902 1263.79 CURVE SMOOTH",
"590.902 1200.8 OFFCURVE",
"475.921 1118.81 OFFCURVE",
"246.959 915.848 CURVE SMOOTH",
"204.966 878.854 OFFCURVE",
"172.971 849.859 OFFCURVE",
"149.975 828.862 CURVE",
"149.975 667.889 LINE",
"747.876 667.889 LINE",
"747.876 832.861 LINE",
"323.946 832.861 LINE"
);
}
);
width = 897;
}
);
unicode = 00B2;
},
{
glyphname = threesuperior;
layers = (
{
layerId = "480801EC-13EF-4D5E-B695-C7354D4C452E";
name = Regular;
paths = (
{
closed = 1;
nodes = (
"684.886 1143.81 OFFCURVE",
"747.876 1210.8 OFFCURVE",
"747.876 1302.78 CURVE SMOOTH",
"747.876 1434.76 OFFCURVE",
"626.896 1519.75 OFFCURVE",
"434.928 1519.75 CURVE SMOOTH",
"361.94 1519.75 OFFCURVE",
"275.954 1507.75 OFFCURVE",
"178.97 1484.75 CURVE",
"178.97 1369.77 LINE",
"286.952 1400.77 OFFCURVE",
"348.942 1410.77 OFFCURVE",
"401.933 1410.77 CURVE SMOOTH",
"528.912 1410.77 OFFCURVE",
"596.901 1368.77 OFFCURVE",
"596.901 1291.79 CURVE SMOOTH",
"596.901 1211.8 OFFCURVE",
"530.912 1168.81 OFFCURVE",
"405.932 1168.81 CURVE SMOOTH",
"311.948 1168.81 LINE",
"311.948 1060.82 LINE",
"397.934 1060.82 LINE SMOOTH",
"541.91 1060.82 OFFCURVE",
"616.897 1009.83 OFFCURVE",
"616.897 910.848 CURVE SMOOTH",
"616.897 817.864 OFFCURVE",
"541.91 805.866 OFFCURVE",
"396.934 805.866 CURVE SMOOTH",
"307.949 805.866 OFFCURVE",
"227.962 822.863 OFFCURVE",
"158.974 858.857 CURVE",
"149.975 693.885 LINE",
"242.96 666.889 OFFCURVE",
"325.946 652.891 OFFCURVE",
"401.933 652.891 CURVE SMOOTH",
"637.894 652.891 OFFCURVE",
"768.872 745.876 OFFCURVE",
"768.872 910.848 CURVE SMOOTH",
"768.872 1019.83 OFFCURVE",
"698.884 1095.82 OFFCURVE",
"575.904 1119.81 CURVE"
);
}
);
width = 918;
}
);
unicode = 00B3;
},
{
glyphname = acute;
layers = (
{
layerId = "480801EC-13EF-4D5E-B695-C7354D4C452E";
name = Regular;
paths = (
{
closed = 1;
nodes = (
"682.886 1737.71 LINE",
"461.923 1737.71 LINE",
"149.975 1319.78 LINE",
"319.947 1319.78 LINE"
);
}
);
width = 832;
}
);
unicode = 00B4;
},
{
glyphname = mu;
layers = (
{
layerId = "480801EC-13EF-4D5E-B695-C7354D4C452E";
name = Regular;
paths = (
{
closed = 1;
nodes = (
"399.933 22.9962 OFFCURVE",
"494.918 -29 OFFCURVE",
"630.895 -29 CURVE SMOOTH",
"761.873 -29 OFFCURVE",
"856.857 23.996 OFFCURVE",
"923.846 128.979 CURVE",
"943.843 21.9963 OFFCURVE",
"997.834 -29 OFFCURVE",
"1089.82 -29 CURVE SMOOTH",
"1112.81 -29 OFFCURVE",
"1143.81 -17 OFFCURVE",
"1181.8 6.99884 CURVE SMOOTH",
"1218.8 30.9948 OFFCURVE",
"1251.79 50.9915 OFFCURVE",
"1278.79 65.989 CURVE",
"1278.79 213.964 LINE",
"1259.79 205.966 OFFCURVE",
"1245.79 199.967 OFFCURVE",
"1234.79 196.967 CURVE",
"1223.8 192.968 OFFCURVE",
"1215.8 190.968 OFFCURVE",
"1209.8 190.968 CURVE",
"1134.81 195.967 OFFCURVE",
"1097.82 217.964 OFFCURVE",
"1097.82 257.957 CURVE SMOOTH",
"1107.82 1119.81 LINE",
"923.846 1119.81 LINE",
"913.848 676.887 LINE SMOOTH",
"913.848 452.925 OFFCURVE",
"813.865 340.943 OFFCURVE",
"616.897 340.943 CURVE SMOOTH",
"436.927 340.943 OFFCURVE",
"343.943 440.927 OFFCURVE",
"343.943 633.894 CURVE",
"333.944 1129.81 LINE",
"149.975 1119.81 LINE",
"169.972 -426 LINE",
"353.941 -426 LINE",
"343.943 126.979 LINE"
);
}
);
width = 1428;
}
);
unicode = 03BC;
},
{
glyphname = paragraph;
layers = (
{
layerId = "480801EC-13EF-4D5E-B695-C7354D4C452E";
name = Regular;
paths = (
{
closed = 1;
nodes = (
"337.944 1492.75 OFFCURVE",
"149.975 1323.78 OFFCURVE",
"149.975 1070.82 CURVE SMOOTH",
"149.975 825.863 OFFCURVE",
"349.942 671.888 OFFCURVE",
"489.918 648.892 CURVE",
"419.93 -197 LINE",
"741.877 -197 LINE",
"741.877 1369.77 LINE",
"931.845 1369.77 LINE",
"921.847 -197 LINE",
"1282.79 -197 LINE",
"1062.82 1492.75 LINE",
"624.896 1492.75 LINE SMOOTH"
);
}
);
width = 1432;
}
);
unicode = 00B6;
},
{
glyphname = periodcentered;
layers = (
{
layerId = "480801EC-13EF-4D5E-B695-C7354D4C452E";
name = Regular;
paths = (
{
closed = 1;
nodes = (
"360.94 837.861 LINE",
"149.975 837.861 LINE",
"149.975 583.903 LINE",
"360.94 583.903 LINE"
);
}
);
width = 510;
}
);
unicode = 00B7;
},
{
glyphname = cedilla;
layers = (
{
layerId = "480801EC-13EF-4D5E-B695-C7354D4C452E";
name = Regular;
paths = (
{
closed = 1;
nodes = (
"395.934 -81 OFFCURVE",
"423.929 -138 OFFCURVE",
"423.929 -178 CURVE SMOOTH",
"423.929 -239 OFFCURVE",
"383.936 -272 OFFCURVE",
"304.949 -272 CURVE SMOOTH",
"241.96 -272 OFFCURVE",
"194.968 -263 OFFCURVE",
"149.975 -240 CURVE",
"149.975 -371 LINE",
"206.966 -387 OFFCURVE",
"264.956 -395 OFFCURVE",
"325.946 -395 CURVE SMOOTH",
"482.92 -395 OFFCURVE",
"563.906 -334 OFFCURVE",
"563.906 -215 CURVE SMOOTH",
"563.906 -151 OFFCURVE",
"527.912 -83 OFFCURVE",
"454.924 0 CURVE",
"335.944 0 LINE"
);
}
);
width = 713;
}
);
unicode = 00B8;
},
{
glyphname = onesuperior;
layers = (
{
layerId = "480801EC-13EF-4D5E-B695-C7354D4C452E";
name = Regular;
paths = (
{
closed = 1;
nodes = (
"721.88 851.858 LINE",
"516.914 851.858 LINE",
"516.914 1502.75 LINE",
"379.937 1502.75 LINE",
"149.975 1463.76 LINE",
"149.975 1347.78 LINE",
"372.938 1388.77 LINE",
"372.938 851.858 LINE",
"168.972 851.858 LINE",
"168.972 667.889 LINE",
"721.88 667.889 LINE"
);
}
);
width = 871;
}
);
unicode = 00B9;
},
{
glyphname = ordmasculine;
layers = (
{
layerId = "480801EC-13EF-4D5E-B695-C7354D4C452E";
name = Regular;
paths = (
{
closed = 1;
nodes = (
"880.853 591.901 LINE",
"192.968 591.901 LINE",
"192.968 468.922 LINE",
"880.853 468.922 LINE"
);
},
{
closed = 1;
nodes = (
"297.95 1519.75 OFFCURVE",
"149.975 1362.77 OFFCURVE",
"149.975 1107.82 CURVE SMOOTH",
"149.975 854.858 OFFCURVE",
"297.95 697.884 OFFCURVE",
"536.911 697.884 CURVE SMOOTH",
"775.871 697.884 OFFCURVE",
"921.847 852.858 OFFCURVE",
"921.847 1107.82 CURVE SMOOTH",
"921.847 1362.77 OFFCURVE",
"775.871 1519.75 OFFCURVE",
"536.911 1519.75 CURVE SMOOTH"
);
},
{
closed = 1;
nodes = (
"677.887 1441.76 OFFCURVE",
"766.872 1345.78 OFFCURVE",
"766.872 1190.8 CURVE SMOOTH",
"766.872 1039.83 OFFCURVE",
"676.887 942.843 OFFCURVE",
"536.911 942.843 CURVE SMOOTH",
"397.934 942.843 OFFCURVE",
"305.949 1039.83 OFFCURVE",
"305.949 1190.8 CURVE SMOOTH",
"305.949 1343.78 OFFCURVE",
"396.934 1441.76 OFFCURVE",
"536.911 1441.76 CURVE SMOOTH"
);
}
);
width = 1071;
}
);
unicode = 00BA;
},
{
glyphname = guillemotright;
layers = (
{
layerId = "480801EC-13EF-4D5E-B695-C7354D4C452E";
name = Regular;
paths = (
{
closed = 1;
nodes = (
"149.975 356.941 LINE",
"177.97 123.979 LINE",
"667.889 516.914 LINE",
"634.894 640.893 LINE",
"187.969 1082.82 LINE",
"177.97 891.852 LINE",
"464.923 608.899 LINE"
);
},
{
closed = 1;
nodes = (
"582.903 333.944 LINE",
"610.898 100.983 LINE",
"1100.82 493.918 LINE",
"1067.82 617.897 LINE",
"620.897 1059.82 LINE",
"610.898 868.855 LINE",
"897.851 585.902 LINE"
);
}
);
width = 1250;
}
);
unicode = 00BB;
},
{
glyphname = onequarter;
layers = (
{
layerId = "480801EC-13EF-4D5E-B695-C7354D4C452E";
name = Regular;
paths = (
{
closed = 1;
nodes = (
"721.88 777.871 LINE",
"516.914 777.871 LINE",
"516.914 1502.75 LINE",
"379.937 1502.75 LINE",
"149.975 1463.76 LINE",
"149.975 1347.78 LINE",
"372.938 1388.77 LINE",
"372.938 777.871 LINE",
"168.972 777.871 LINE",
"168.972 667.889 LINE",
"721.88 667.889 LINE"
);
},
{
closed = 1;
nodes = (
"1590.74 1519.75 LINE",
"1430.76 1519.75 LINE",
"498.917 -29 LINE",
"658.89 -29 LINE"
);
},
{
closed = 1;
nodes = (
"1542.74 715.881 LINE",
"1542.74 296.951 LINE",
"1233.79 296.951 LINE"
);
},
{
closed = 1;
nodes = (
"1542.74 187.969 LINE",
"1542.74 1.99967 LINE",
"1686.72 1.99967 LINE",
"1686.72 187.969 LINE",
"1821.7 187.969 LINE",
"1821.7 296.951 LINE",
"1686.72 296.951 LINE",
"1686.72 836.861 LINE",
"1520.75 836.861 LINE",
"1128.81 308.949 LINE",
"1128.81 187.969 LINE"
);
}
);
width = 1971;
}
);
unicode = 00BC;
},
{
glyphname = onehalf;
layers = (
{
layerId = "480801EC-13EF-4D5E-B695-C7354D4C452E";
name = Regular;
paths = (
{
closed = 1;
nodes = (
"721.88 777.871 LINE",
"516.914 777.871 LINE",
"516.914 1502.75 LINE",
"379.937 1502.75 LINE",
"149.975 1463.76 LINE",
"149.975 1347.78 LINE",
"372.938 1388.77 LINE",
"372.938 777.871 LINE",
"168.972 777.871 LINE",
"168.972 667.889 LINE",
"721.88 667.889 LINE"
);
},
{
closed = 1;
nodes = (
"1540.74 1519.75 LINE",
"1380.77 1519.75 LINE",
"448.925 -29 LINE",
"608.899 -29 LINE"
);
},
{
closed = 1;
nodes = (
"1427.76 133.978 OFFCURVE",
"1456.76 158.974 OFFCURVE",
"1493.75 190.968 CURVE SMOOTH",
"1714.71 379.937 OFFCURVE",
"1824.7 520.913 OFFCURVE",
"1824.7 613.898 CURVE SMOOTH",
"1824.7 757.874 OFFCURVE",
"1698.72 853.858 OFFCURVE",
"1505.75 853.858 CURVE SMOOTH",
"1429.76 853.858 OFFCURVE",
"1341.78 834.861 OFFCURVE",
"1238.79 797.867 CURVE",
"1238.79 674.888 LINE",
"1334.78 721.88 OFFCURVE",
"1415.76 744.876 OFFCURVE",
"1484.75 744.876 CURVE SMOOTH",
"1597.73 744.876 OFFCURVE",
"1673.72 685.886 OFFCURVE",
"1673.72 597.901 CURVE SMOOTH",
"1673.72 534.911 OFFCURVE",
"1558.74 401.933 OFFCURVE",
"1329.78 198.967 CURVE SMOOTH",
"1287.79 161.973 OFFCURVE",
"1255.79 132.978 OFFCURVE",
"1232.79 111.981 CURVE",
"1232.79 1.99967 LINE",
"1830.7 1.99967 LINE",
"1830.7 115.981 LINE",
"1406.77 115.981 LINE"
);
}
);
width = 1980;
}
);
unicode = 00BD;
},
{
glyphname = threequarters;
layers = (
{
layerId = "480801EC-13EF-4D5E-B695-C7354D4C452E";
name = Regular;
paths = (
{
closed = 1;
nodes = (
"684.886 1143.81 OFFCURVE",
"747.876 1210.8 OFFCURVE",
"747.876 1302.78 CURVE SMOOTH",
"747.876 1434.76 OFFCURVE",
"626.896 1519.75 OFFCURVE",
"434.928 1519.75 CURVE SMOOTH",
"361.94 1519.75 OFFCURVE",
"275.954 1507.75 OFFCURVE",
"178.97 1484.75 CURVE",
"178.97 1369.77 LINE",
"286.952 1400.77 OFFCURVE",
"348.942 1410.77 OFFCURVE",
"401.933 1410.77 CURVE SMOOTH",
"528.912 1410.77 OFFCURVE",
"596.901 1368.77 OFFCURVE",
"596.901 1291.79 CURVE SMOOTH",
"596.901 1211.8 OFFCURVE",
"530.912 1168.81 OFFCURVE",
"405.932 1168.81 CURVE SMOOTH",
"311.948 1168.81 LINE",
"311.948 1060.82 LINE",
"397.934 1060.82 LINE SMOOTH",
"541.91 1060.82 OFFCURVE",
"616.897 1009.83 OFFCURVE",
"616.897 910.848 CURVE SMOOTH",
"616.897 817.864 OFFCURVE",
"532.911 761.873 OFFCURVE",
"387.935 761.873 CURVE SMOOTH",
"298.95 761.873 OFFCURVE",
"218.964 778.87 OFFCURVE",
"149.975 814.864 CURVE",
"149.975 693.885 LINE",
"242.96 666.889 OFFCURVE",
"325.946 652.891 OFFCURVE",
"401.933 652.891 CURVE SMOOTH",
"637.894 652.891 OFFCURVE",
"768.872 745.876 OFFCURVE",
"768.872 910.848 CURVE SMOOTH",
"768.872 1019.83 OFFCURVE",
"698.884 1095.82 OFFCURVE",
"575.904 1119.81 CURVE"
);
},
{
closed = 1;
nodes = (
"1618.73 1519.75 LINE",
"1458.76 1519.75 LINE",
"526.912 -29 LINE",
"686.886 -29 LINE"
);
},
{
closed = 1;
nodes = (
"1530.75 715.881 LINE",
"1530.75 296.951 LINE",
"1221.8 296.951 LINE"
);
},
{
closed = 1;
nodes = (
"1530.75 187.969 LINE",
"1530.75 1.99967 LINE",
"1674.72 1.99967 LINE",
"1674.72 187.969 LINE",
"1809.7 187.969 LINE",
"1809.7 296.951 LINE",
"1674.72 296.951 LINE",
"1674.72 836.861 LINE",
"1508.75 836.861 LINE",
"1116.81 308.949 LINE",
"1116.81 187.969 LINE"
);
}
);
width = 1959;
}
);
unicode = 00BE;
},
{
glyphname = questiondown;
layers = (
{
layerId = "480801EC-13EF-4D5E-B695-C7354D4C452E";
name = Regular;
paths = (
{
closed = 1;
nodes = (
"506.916 896.851 OFFCURVE",
"502.916 861.857 OFFCURVE",
"493.918 833.861 CURVE SMOOTH",
"482.92 800.867 OFFCURVE",
"463.923 771.872 OFFCURVE",
"399.933 708.882 CURVE SMOOTH",
"311.948 622.896 LINE SMOOTH",
"192.968 507.915 OFFCURVE",
"149.975 424.929 OFFCURVE",
"149.975 323.946 CURVE SMOOTH",
"149.975 111.981 OFFCURVE",
"312.948 -29 OFFCURVE",
"557.907 -29 CURVE SMOOTH",
"694.884 -29 OFFCURVE",
"821.863 7.99867 OFFCURVE",
"946.842 83.986 CURVE",
"946.842 331.945 LINE",
"818.864 242.96 OFFCURVE",
"696.884 194.968 OFFCURVE",
"592.901 194.968 CURVE SMOOTH",
"447.925 194.968 OFFCURVE",
"352.941 274.954 OFFCURVE",
"352.941 393.934 CURVE SMOOTH",
"352.941 458.924 OFFCURVE",
"384.936 518.914 OFFCURVE",
"461.923 589.902 CURVE SMOOTH",
"551.908 677.887 LINE",
"644.893 780.87 OFFCURVE",
"666.889 800.867 OFFCURVE",
"666.889 935.844 CURVE SMOOTH",
"666.889 1091.82 LINE",
"506.916 1091.82 LINE",
"506.916 968.839 LINE SMOOTH"
);
},
{
closed = 1;
nodes = (
"500.917 1238.79 LINE",
"702.883 1238.79 LINE",
"702.883 1492.75 LINE",
"500.917 1492.75 LINE"
);
}
);
width = 1096;
}
);
unicode = 00BF;
},
{
glyphname = Agrave;
layers = (
{
layerId = "480801EC-13EF-4D5E-B695-C7354D4C452E";
name = Regular;
paths = (
{
closed = 1;
nodes = (
"833.861 1308.78 LINE",
"1108.82 480.92 LINE",
"559.907 480.92 LINE"
);
},
{
closed = 1;
nodes = (
"498.917 242.96 LINE",
"1171.8 242.96 LINE",
"1227.8 0 LINE",
"1517.75 0 LINE",
"928.845 1492.75 LINE",
"739.877 1492.75 LINE",
"149.975 0 LINE",
"422.93 0 LINE"
);
},
{
closed = 1;
nodes = (
"993.835 1573.74 LINE",
"711.882 1947.68 LINE",
"514.914 1947.68 LINE",
"720.88 1573.74 LINE"
);
}
);
width = 1667;
}
);
unicode = 00C0;
},
{
glyphname = Aacute;
layers = (
{
layerId = "480801EC-13EF-4D5E-B695-C7354D4C452E";
name = Regular;
paths = (
{
closed = 1;
nodes = (
"833.861 1308.78 LINE",
"1108.82 480.92 LINE",
"559.907 480.92 LINE"
);
},
{
closed = 1;
nodes = (
"498.917 242.96 LINE",
"1171.8 242.96 LINE",
"1227.8 0 LINE",
"1517.75 0 LINE",
"928.845 1492.75 LINE",
"739.877 1492.75 LINE",
"149.975 0 LINE",
"422.93 0 LINE"
);
},
{
closed = 1;
nodes = (
"1260.79 1967.67 LINE",
"1039.83 1967.67 LINE",
"727.879 1549.74 LINE",
"897.851 1549.74 LINE"
);
}
);
width = 1667;
}
);
unicode = 00C1;
},
{
glyphname = Acircumflex;
layers = (
{
layerId = "480801EC-13EF-4D5E-B695-C7354D4C452E";
name = Regular;
paths = (
{
closed = 1;
nodes = (
"833.861 1308.78 LINE",
"1108.82 480.92 LINE",
"559.907 480.92 LINE"
);
},
{
closed = 1;
nodes = (
"498.917 242.96 LINE",
"1171.8 242.96 LINE",
"1227.8 0 LINE",
"1517.75 0 LINE",
"928.845 1492.75 LINE",
"739.877 1492.75 LINE",
"149.975 0 LINE",
"422.93 0 LINE"
);
},
{
closed = 1;
nodes = (
"844.859 1736.71 LINE",
"1024.83 1491.75 LINE",
"1163.81 1491.75 LINE",
"918.847 1867.69 LINE",
"770.872 1867.69 LINE",
"525.912 1491.75 LINE",
"664.889 1491.75 LINE"
);
}
);
width = 1667;
}
);
unicode = 00C2;
},
{
glyphname = Atilde;
layers = (
{
layerId = "480801EC-13EF-4D5E-B695-C7354D4C452E";
name = Regular;
paths = (
{
closed = 1;
nodes = (
"833.861 1308.78 LINE",
"1108.82 480.92 LINE",
"559.907 480.92 LINE"
);
},
{
closed = 1;
nodes = (
"498.917 242.96 LINE",
"1171.8 242.96 LINE",
"1227.8 0 LINE",
"1517.75 0 LINE",
"928.845 1492.75 LINE",
"739.877 1492.75 LINE",
"149.975 0 LINE",
"422.93 0 LINE"
);
},
{
closed = 1;
nodes = (
"889.852 1555.74 OFFCURVE",
"928.845 1538.74 OFFCURVE",
"979.837 1538.74 CURVE SMOOTH",
"1100.82 1538.74 OFFCURVE",
"1171.8 1640.73 OFFCURVE",
"1174.8 1820.7 CURVE",
"1049.83 1820.7 LINE",
"1048.83 1765.71 OFFCURVE",
"1041.83 1726.71 OFFCURVE",
"1029.83 1702.72 CURVE SMOOTH",
"1017.83 1677.72 OFFCURVE",
"998.834 1665.72 OFFCURVE",
"973.838 1665.72 CURVE SMOOTH",
"956.841 1665.72 OFFCURVE",
"934.844 1677.72 OFFCURVE",
"905.849 1704.72 CURVE SMOOTH",
"848.859 1759.71 LINE",
"799.867 1803.7 OFFCURVE",
"760.873 1820.7 OFFCURVE",
"709.882 1820.7 CURVE SMOOTH",
"588.902 1820.7 OFFCURVE",
"517.914 1718.71 OFFCURVE",
"514.914 1538.74 CURVE",
"639.893 1538.74 LINE",
"640.893 1593.73 OFFCURVE",
"647.892 1632.73 OFFCURVE",
"659.89 1657.72 CURVE SMOOTH",
"671.888 1681.72 OFFCURVE",
"690.885 1693.72 OFFCURVE",
"715.881 1693.72 CURVE SMOOTH",
"732.878 1693.72 OFFCURVE",
"754.874 1681.72 OFFCURVE",
"783.87 1654.72 CURVE SMOOTH",
"840.86 1599.73 LINE"
);
}
);
width = 1667;
}
);
unicode = 00C3;
},
{
glyphname = Adieresis;
layers = (
{
layerId = "480801EC-13EF-4D5E-B695-C7354D4C452E";
name = Regular;
paths = (
{
closed = 1;
nodes = (
"833.861 1308.78 LINE",
"1108.82 480.92 LINE",
"559.907 480.92 LINE"
);
},
{
closed = 1;
nodes = (
"498.917 242.96 LINE",
"1171.8 242.96 LINE",
"1227.8 0 LINE",
"1517.75 0 LINE",
"928.845 1492.75 LINE",
"739.877 1492.75 LINE",
"149.975 0 LINE",
"422.93 0 LINE"
);
},
{
closed = 1;
nodes = (
"1162.81 1796.7 LINE",
"944.843 1796.7 LINE",
"944.843 1579.74 LINE",
"1162.81 1579.74 LINE"
);
},
{
closed = 1;
nodes = (
"743.876 1796.7 LINE",
"525.912 1796.7 LINE",
"525.912 1579.74 LINE",
"743.876 1579.74 LINE"
);
}
);
width = 1667;
}
);
unicode = 00C4;
},
{
glyphname = Aring;
layers = (
{
layerId = "480801EC-13EF-4D5E-B695-C7354D4C452E";
name = Regular;
paths = (
{
closed = 1;
nodes = (
"833.861 1308.78 LINE",
"1108.82 480.92 LINE",
"559.907 480.92 LINE"
);
},
{
closed = 1;
nodes = (
"498.917 242.96 LINE",
"1171.8 242.96 LINE",
"1227.8 0 LINE",
"1517.75 0 LINE",
"928.845 1492.75 LINE",
"739.877 1492.75 LINE",
"149.975 0 LINE",
"422.93 0 LINE"
);
},
{
closed = 1;
nodes = (
"996.834 1668.72 OFFCURVE",
"929.845 1601.73 OFFCURVE",
"844.859 1601.73 CURVE SMOOTH",
"757.874 1601.73 OFFCURVE",
"692.885 1666.72 OFFCURVE",
"692.885 1753.71 CURVE SMOOTH",
"692.885 1838.69 OFFCURVE",
"757.874 1904.68 OFFCURVE",
"844.859 1904.68 CURVE SMOOTH",
"929.845 1904.68 OFFCURVE",
"996.834 1837.69 OFFCURVE",
"996.834 1753.71 CURVE SMOOTH"
);
},
{
closed = 1;
nodes = (
"1118.81 1906.68 OFFCURVE",
"997.834 2027.66 OFFCURVE",
"844.859 2027.66 CURVE SMOOTH",
"691.885 2027.66 OFFCURVE",
"570.905 1906.68 OFFCURVE",
"570.905 1753.71 CURVE SMOOTH",
"570.905 1600.73 OFFCURVE",
"691.885 1478.75 OFFCURVE",
"844.859 1478.75 CURVE SMOOTH",
"997.834 1478.75 OFFCURVE",
"1118.81 1600.73 OFFCURVE",
"1118.81 1753.71 CURVE SMOOTH"
);
}
);
width = 1667;
}
);
unicode = 00C5;
},
{
glyphname = AE;
layers = (
{
layerId = "480801EC-13EF-4D5E-B695-C7354D4C452E";
name = Regular;
paths = (
{
closed = 1;
nodes = (
"477.92 0 LINE",
"467.922 262.956 LINE",
"995.834 262.956 LINE",
"995.834 0 LINE",
"1958.67 0 LINE",
"1958.67 259.957 LINE",
"1198.8 259.957 LINE",
"1198.8 540.91 LINE",
"1909.68 540.91 LINE",
"1909.68 710.882 LINE",
"1198.8 710.882 LINE",
"1198.8 1322.78 LINE",
"1939.68 1322.78 LINE",
"1939.68 1492.75 LINE",
"727.879 1492.75 LINE",
"102.983 0 LINE"
);
},
{
closed = 1;
nodes = (
"536.911 430.928 LINE",
"866.856 1334.78 LINE",
"995.834 1334.78 LINE",
"995.834 430.928 LINE"
);
}
);
width = 2172;
}
);
unicode = 00C6;
},
{
glyphname = Ccedilla;
layers = (
{
layerId = "480801EC-13EF-4D5E-B695-C7354D4C452E";
name = Regular;
paths = (
{
closed = 1;
nodes = (
"1214.8 1472.75 OFFCURVE",
"1057.82 1519.75 OFFCURVE",
"878.854 1519.75 CURVE SMOOTH",
"426.929 1519.75 OFFCURVE",
"149.975 1224.8 OFFCURVE",
"149.975 744.876 CURVE SMOOTH",
"149.975 265.956 OFFCURVE",
"426.929 -29 OFFCURVE",
"878.854 -29 CURVE SMOOTH",
"1054.82 -29 OFFCURVE",
"1212.8 18.9968 OFFCURVE",
"1353.77 114.981 CURVE",
"1353.77 465.922 LINE",
"1217.8 338.944 OFFCURVE",
"1063.82 276.954 OFFCURVE",
"890.852 276.954 CURVE SMOOTH",
"549.908 276.954 OFFCURVE",
"367.939 395.934 OFFCURVE",
"362.94 744.876 CURVE",
"362.94 1139.81 OFFCURVE",
"549.908 1353.77 OFFCURVE",
"890.852 1353.77 CURVE SMOOTH",
"1063.82 1353.77 OFFCURVE",
"1217.8 1291.79 OFFCURVE",
"1353.77 1164.81 CURVE",
"1353.77 1377.77 LINE"
);
},
{
closed = 1;
nodes = (
"821.863 -81 OFFCURVE",
"849.859 -138 OFFCURVE",
"849.859 -178 CURVE SMOOTH",
"849.859 -239 OFFCURVE",
"809.865 -272 OFFCURVE",
"730.878 -272 CURVE SMOOTH",
"667.889 -272 OFFCURVE",
"620.897 -263 OFFCURVE",
"575.904 -240 CURVE",
"575.904 -371 LINE",
"632.895 -387 OFFCURVE",
"690.885 -395 OFFCURVE",
"751.875 -395 CURVE SMOOTH",
"908.849 -395 OFFCURVE",
"989.835 -334 OFFCURVE",
"989.835 -215 CURVE SMOOTH",
"989.835 -151 OFFCURVE",
"953.841 -83 OFFCURVE",
"880.853 0 CURVE",
"761.873 0 LINE"
);
}
);
width = 1503;
}
);
unicode = 00C7;
},
{
glyphname = Egrave;
layers = (
{
layerId = "480801EC-13EF-4D5E-B695-C7354D4C452E";
name = Regular;
paths = (
{
closed = 1;
nodes = (
"1111.81 309.948 LINE",
"351.941 309.948 LINE",
"351.941 710.882 LINE",
"1062.82 710.882 LINE",
"1062.82 880.853 LINE",
"351.941 880.853 LINE",
"351.941 1322.78 LINE",
"1093.82 1322.78 LINE",
"1093.82 1492.75 LINE",
"149.975 1492.75 LINE",
"149.975 0 LINE",
"1111.81 0 LINE"
);
},
{
closed = 1;
nodes = (
"747.876 1666.72 LINE",
"465.922 2040.66 LINE",
"268.955 2040.66 LINE",
"474.921 1666.72 LINE"
);
}
);
width = 1261;
}
);
unicode = 00C8;
},
{
glyphname = Eacute;
layers = (
{
layerId = "480801EC-13EF-4D5E-B695-C7354D4C452E";
name = Regular;
paths = (
{
closed = 1;
nodes = (
"1111.81 309.948 LINE",
"351.941 309.948 LINE",
"351.941 710.882 LINE",
"1062.82 710.882 LINE",
"1062.82 880.853 LINE",
"351.941 880.853 LINE",
"351.941 1322.78 LINE",
"1093.82 1322.78 LINE",
"1093.82 1492.75 LINE",
"149.975 1492.75 LINE",
"149.975 0 LINE",
"1111.81 0 LINE"
);
},
{
closed = 1;
nodes = (
"1014.83 2060.66 LINE",
"793.868 2060.66 LINE",
"481.92 1642.73 LINE",
"651.891 1642.73 LINE"
);
}
);
width = 1261;
}
);
unicode = 00C9;
},
{
glyphname = Ecircumflex;
layers = (
{
layerId = "480801EC-13EF-4D5E-B695-C7354D4C452E";
name = Regular;
paths = (
{
closed = 1;
nodes = (
"1111.81 309.948 LINE",
"351.941 309.948 LINE",
"351.941 710.882 LINE",
"1062.82 710.882 LINE",
"1062.82 880.853 LINE",
"351.941 880.853 LINE",
"351.941 1322.78 LINE",
"1093.82 1322.78 LINE",
"1093.82 1492.75 LINE",
"149.975 1492.75 LINE",
"149.975 0 LINE",
"1111.81 0 LINE"
);
},
{
closed = 1;
nodes = (
"598.9 1829.7 LINE",
"778.87 1584.74 LINE",
"917.847 1584.74 LINE",
"672.888 1960.67 LINE",
"524.913 1960.67 LINE",
"279.953 1584.74 LINE",
"418.93 1584.74 LINE"
);
}
);
width = 1261;
}
);
unicode = 00CA;
},
{
glyphname = Edieresis;
layers = (
{
layerId = "480801EC-13EF-4D5E-B695-C7354D4C452E";
name = Regular;
paths = (
{
closed = 1;
nodes = (
"1111.81 309.948 LINE",
"351.941 309.948 LINE",
"351.941 710.882 LINE",
"1062.82 710.882 LINE",
"1062.82 880.853 LINE",
"351.941 880.853 LINE",
"351.941 1322.78 LINE",
"1093.82 1322.78 LINE",
"1093.82 1492.75 LINE",
"149.975 1492.75 LINE",
"149.975 0 LINE",
"1111.81 0 LINE"
);
},
{
closed = 1;
nodes = (
"916.847 1889.69 LINE",
"698.884 1889.69 LINE",
"698.884 1672.72 LINE",
"916.847 1672.72 LINE"
);
},
{
closed = 1;
nodes = (
"497.917 1889.69 LINE",
"279.953 1889.69 LINE",
"279.953 1672.72 LINE",
"497.917 1672.72 LINE"
);
}
);
width = 1261;
}
);
unicode = 00CB;
},
{
glyphname = Igrave;
layers = (
{
layerId = "480801EC-13EF-4D5E-B695-C7354D4C452E";
name = Regular;
paths = (
{
closed = 1;
nodes = (
"364.939 497.917 OFFCURVE",
"368.939 994.834 OFFCURVE",
"361.94 1492.75 CURVE",
"189.968 1492.75 LINE",
"179.97 994.834 OFFCURVE",
"179.97 497.917 OFFCURVE",
"149.975 0 CURVE",
"391.935 0 LINE"
);
},
{
closed = 1;
nodes = (
"429.928 1716.71 LINE",
"147.975 2090.65 LINE",
"-49 2090.65 LINE",
"156.974 1716.71 LINE"
);
}
);
width = 541;
}
);
unicode = 00CC;
},
{
glyphname = Iacute;
layers = (
{
layerId = "480801EC-13EF-4D5E-B695-C7354D4C452E";
name = Regular;
paths = (
{
closed = 1;
nodes = (
"364.939 497.917 OFFCURVE",
"368.939 994.834 OFFCURVE",
"361.94 1492.75 CURVE",
"189.968 1492.75 LINE",
"179.97 994.834 OFFCURVE",
"179.97 497.917 OFFCURVE",
"149.975 0 CURVE",
"391.935 0 LINE"
);
},
{
closed = 1;
nodes = (
"696.884 2110.65 LINE",
"475.921 2110.65 LINE",
"163.973 1692.72 LINE",
"333.944 1692.72 LINE"
);
}
);
width = 541;
}
);
unicode = 00CD;
},
{
glyphname = Icircumflex;
layers = (
{
layerId = "480801EC-13EF-4D5E-B695-C7354D4C452E";
name = Regular;
paths = (
{
closed = 1;
nodes = (
"364.939 497.917 OFFCURVE",
"368.939 994.834 OFFCURVE",
"361.94 1492.75 CURVE",
"189.968 1492.75 LINE",
"179.97 994.834 OFFCURVE",
"179.97 497.917 OFFCURVE",
"149.975 0 CURVE",
"391.935 0 LINE"
);
},
{
closed = 1;
nodes = (
"280.953 1879.69 LINE",
"460.923 1634.73 LINE",
"599.9 1634.73 LINE",
"354.941 2010.67 LINE",
"206.966 2010.67 LINE",
"-38 1634.73 LINE",
"100.983 1634.73 LINE"
);
}
);
width = 541;
}
);
unicode = 00CE;
},
{
glyphname = Idieresis;
layers = (
{
layerId = "480801EC-13EF-4D5E-B695-C7354D4C452E";
name = Regular;
paths = (
{
closed = 1;
nodes = (
"364.939 497.917 OFFCURVE",
"368.939 994.834 OFFCURVE",
"361.94 1492.75 CURVE",
"189.968 1492.75 LINE",
"179.97 994.834 OFFCURVE",
"179.97 497.917 OFFCURVE",
"149.975 0 CURVE",
"391.935 0 LINE"
);
},
{
closed = 1;
nodes = (
"598.9 1939.68 LINE",
"380.937 1939.68 LINE",
"380.937 1722.71 LINE",
"598.9 1722.71 LINE"
);
},
{
closed = 1;
nodes = (
"179.97 1939.68 LINE",
"-38 1939.68 LINE",
"-38 1722.71 LINE",
"179.97 1722.71 LINE"
);
}
);
width = 541;
}
);
unicode = 00CF;
},
{
glyphname = Eth;
layers = (
{
layerId = "480801EC-13EF-4D5E-B695-C7354D4C452E";
name = Regular;
paths = (
{
closed = 1;
nodes = (
"133.978 699.883 LINE",
"334.944 699.883 LINE",
"334.944 0 LINE",
"750.875 0 LINE SMOOTH",
"1326.78 0 OFFCURVE",
"1589.74 232.961 OFFCURVE",
"1589.74 747.876 CURVE SMOOTH",
"1589.74 1259.79 OFFCURVE",
"1327.78 1492.75 OFFCURVE",
"750.875 1492.75 CURVE SMOOTH",
"334.944 1492.75 LINE",
"334.944 843.86 LINE",
"133.978 843.86 LINE"
);
},
{
closed = 1;
nodes = (
"1192.8 1326.78 OFFCURVE",
"1376.77 1147.81 OFFCURVE",
"1376.77 747.876 CURVE SMOOTH",
"1376.77 344.943 OFFCURVE",
"1192.8 305.949 OFFCURVE",
"780.87 305.949 CURVE SMOOTH",
"537.91 305.949 LINE",
"537.91 699.883 LINE",
"873.855 699.883 LINE",
"873.855 843.86 LINE",
"537.91 843.86 LINE",
"537.91 1326.78 LINE",
"780.87 1326.78 LINE SMOOTH"
);
}
);
width = 1770;
}
);
unicode = 00D0;
},
{
glyphname = Ntilde;
layers = (
{
layerId = "480801EC-13EF-4D5E-B695-C7354D4C452E";
name = Regular;
paths = (
{
closed = 1;
nodes = (
"345.942 1248.79 LINE",
"1007.83 0 LINE",
"1299.78 0 LINE",
"1299.78 1492.75 LINE",
"1113.81 1492.75 LINE",
"1083.82 283.953 LINE",
"441.926 1462.76 LINE",
"189.968 1462.76 LINE",
"149.975 0 LINE",
"405.932 0 LINE"
);
},
{
closed = 1;
nodes = (
"781.87 1698.72 OFFCURVE",
"820.863 1681.72 OFFCURVE",
"871.855 1681.72 CURVE SMOOTH",
"992.835 1681.72 OFFCURVE",
"1063.82 1783.7 OFFCURVE",
"1066.82 1963.67 CURVE",
"941.843 1963.67 LINE",
"940.843 1908.68 OFFCURVE",
"933.845 1869.69 OFFCURVE",
"921.847 1845.69 CURVE SMOOTH",
"909.849 1820.7 OFFCURVE",
"890.852 1808.7 OFFCURVE",
"865.856 1808.7 CURVE SMOOTH",
"848.859 1808.7 OFFCURVE",
"826.862 1820.7 OFFCURVE",
"797.867 1847.69 CURVE SMOOTH",
"740.877 1902.68 LINE",
"691.885 1946.68 OFFCURVE",
"652.891 1963.67 OFFCURVE",
"601.9 1963.67 CURVE SMOOTH",
"480.92 1963.67 OFFCURVE",
"409.932 1861.69 OFFCURVE",
"406.932 1681.72 CURVE",
"531.911 1681.72 LINE",
"532.911 1736.71 OFFCURVE",
"539.91 1775.7 OFFCURVE",
"551.908 1800.7 CURVE SMOOTH",
"563.906 1824.7 OFFCURVE",
"582.903 1836.69 OFFCURVE",
"607.899 1836.69 CURVE SMOOTH",
"624.896 1836.69 OFFCURVE",
"646.892 1824.7 OFFCURVE",
"675.888 1797.7 CURVE SMOOTH",
"732.878 1742.71 LINE"
);
}
);
width = 1449;
}
);
unicode = 00D1;
},
{
glyphname = Ograve;
layers = (
{
layerId = "480801EC-13EF-4D5E-B695-C7354D4C452E";
name = Regular;
paths = (
{
closed = 1;
nodes = (
"1134.81 1355.77 OFFCURVE",
"1318.78 1121.81 OFFCURVE",
"1318.78 744.876 CURVE SMOOTH",
"1318.78 435.927 OFFCURVE",
"1134.81 354.941 OFFCURVE",
"841.86 354.941 CURVE SMOOTH",
"548.909 354.941 OFFCURVE",
"362.94 435.927 OFFCURVE",
"362.94 744.876 CURVE SMOOTH",
"362.94 1121.81 OFFCURVE",
"548.909 1355.77 OFFCURVE",
"841.86 1355.77 CURVE SMOOTH"
);
},
{
closed = 1;
nodes = (
"421.93 1519.75 OFFCURVE",
"149.975 1216.8 OFFCURVE",
"149.975 744.876 CURVE SMOOTH",
"149.975 272.955 OFFCURVE",
"421.93 -29 OFFCURVE",
"841.86 -29 CURVE SMOOTH",
"1260.79 -29 OFFCURVE",
"1531.74 273.954 OFFCURVE",
"1531.74 744.876 CURVE SMOOTH",
"1531.74 1216.8 OFFCURVE",
"1260.79 1519.75 OFFCURVE",
"841.86 1519.75 CURVE SMOOTH"
);
},
{
closed = 1;
nodes = (
"989.835 1716.71 LINE",
"707.882 2090.65 LINE",
"510.915 2090.65 LINE",
"716.881 1716.71 LINE"
);
}
);
width = 1681;
}
);
unicode = 00D2;
},
{
glyphname = Oacute;
layers = (
{
layerId = "480801EC-13EF-4D5E-B695-C7354D4C452E";
name = Regular;
paths = (
{
closed = 1;
nodes = (
"1134.81 1355.77 OFFCURVE",
"1318.78 1121.81 OFFCURVE",
"1318.78 744.876 CURVE SMOOTH",
"1318.78 435.927 OFFCURVE",
"1134.81 354.941 OFFCURVE",
"841.86 354.941 CURVE SMOOTH",
"548.909 354.941 OFFCURVE",
"362.94 435.927 OFFCURVE",
"362.94 744.876 CURVE SMOOTH",
"362.94 1121.81 OFFCURVE",
"548.909 1355.77 OFFCURVE",
"841.86 1355.77 CURVE SMOOTH"
);
},
{
closed = 1;
nodes = (
"421.93 1519.75 OFFCURVE",
"149.975 1216.8 OFFCURVE",
"149.975 744.876 CURVE SMOOTH",
"149.975 272.955 OFFCURVE",
"421.93 -29 OFFCURVE",
"841.86 -29 CURVE SMOOTH",
"1260.79 -29 OFFCURVE",
"1531.74 273.954 OFFCURVE",
"1531.74 744.876 CURVE SMOOTH",
"1531.74 1216.8 OFFCURVE",
"1260.79 1519.75 OFFCURVE",
"841.86 1519.75 CURVE SMOOTH"
);
},
{
closed = 1;
nodes = (
"1256.79 2110.65 LINE",
"1035.83 2110.65 LINE",
"723.88 1692.72 LINE",
"893.851 1692.72 LINE"
);
}
);
width = 1681;
}
);
unicode = 00D3;
},
{
glyphname = Ocircumflex;
layers = (
{
layerId = "480801EC-13EF-4D5E-B695-C7354D4C452E";
name = Regular;
paths = (
{
closed = 1;
nodes = (
"1134.81 1355.77 OFFCURVE",
"1318.78 1121.81 OFFCURVE",
"1318.78 744.876 CURVE SMOOTH",
"1318.78 435.927 OFFCURVE",
"1134.81 354.941 OFFCURVE",
"841.86 354.941 CURVE SMOOTH",
"548.909 354.941 OFFCURVE",
"362.94 435.927 OFFCURVE",
"362.94 744.876 CURVE SMOOTH",
"362.94 1121.81 OFFCURVE",
"548.909 1355.77 OFFCURVE",
"841.86 1355.77 CURVE SMOOTH"
);
},
{
closed = 1;
nodes = (
"421.93 1519.75 OFFCURVE",
"149.975 1216.8 OFFCURVE",
"149.975 744.876 CURVE SMOOTH",
"149.975 272.955 OFFCURVE",
"421.93 -29 OFFCURVE",
"841.86 -29 CURVE SMOOTH",
"1260.79 -29 OFFCURVE",
"1531.74 273.954 OFFCURVE",
"1531.74 744.876 CURVE SMOOTH",
"1531.74 1216.8 OFFCURVE",
"1260.79 1519.75 OFFCURVE",
"841.86 1519.75 CURVE SMOOTH"
);
},
{
closed = 1;
nodes = (
"840.86 1879.69 LINE",
"1020.83 1634.73 LINE",
"1159.81 1634.73 LINE",
"914.848 2010.67 LINE",
"766.872 2010.67 LINE",
"521.913 1634.73 LINE",
"660.89 1634.73 LINE"
);
}
);
width = 1681;
}
);
unicode = 00D4;
},
{
glyphname = Otilde;
layers = (
{
layerId = "480801EC-13EF-4D5E-B695-C7354D4C452E";
name = Regular;
paths = (
{
closed = 1;
nodes = (
"1134.81 1355.77 OFFCURVE",
"1318.78 1121.81 OFFCURVE",
"1318.78 744.876 CURVE SMOOTH",
"1318.78 435.927 OFFCURVE",
"1134.81 354.941 OFFCURVE",
"841.86 354.941 CURVE SMOOTH",
"548.909 354.941 OFFCURVE",
"362.94 435.927 OFFCURVE",
"362.94 744.876 CURVE SMOOTH",
"362.94 1121.81 OFFCURVE",
"548.909 1355.77 OFFCURVE",
"841.86 1355.77 CURVE SMOOTH"
);
},
{
closed = 1;
nodes = (
"421.93 1519.75 OFFCURVE",
"149.975 1216.8 OFFCURVE",
"149.975 744.876 CURVE SMOOTH",
"149.975 272.955 OFFCURVE",
"421.93 -29 OFFCURVE",
"841.86 -29 CURVE SMOOTH",
"1260.79 -29 OFFCURVE",
"1531.74 273.954 OFFCURVE",
"1531.74 744.876 CURVE SMOOTH",
"1531.74 1216.8 OFFCURVE",
"1260.79 1519.75 OFFCURVE",
"841.86 1519.75 CURVE SMOOTH"
);
},
{
closed = 1;
nodes = (
"885.853 1698.72 OFFCURVE",
"924.846 1681.72 OFFCURVE",
"975.838 1681.72 CURVE SMOOTH",
"1096.82 1681.72 OFFCURVE",
"1167.81 1783.7 OFFCURVE",
"1170.81 1963.67 CURVE",
"1045.83 1963.67 LINE",
"1044.83 1908.68 OFFCURVE",
"1037.83 1869.69 OFFCURVE",
"1025.83 1845.69 CURVE SMOOTH",
"1013.83 1820.7 OFFCURVE",
"994.834 1808.7 OFFCURVE",
"969.839 1808.7 CURVE SMOOTH",
"952.841 1808.7 OFFCURVE",
"930.845 1820.7 OFFCURVE",
"901.85 1847.69 CURVE SMOOTH",
"844.859 1902.68 LINE",
"795.868 1946.68 OFFCURVE",
"756.874 1963.67 OFFCURVE",
"705.883 1963.67 CURVE SMOOTH",
"584.903 1963.67 OFFCURVE",
"513.914 1861.69 OFFCURVE",
"510.915 1681.72 CURVE",
"635.894 1681.72 LINE",
"636.894 1736.71 OFFCURVE",
"643.893 1775.7 OFFCURVE",
"655.891 1800.7 CURVE SMOOTH",
"667.889 1824.7 OFFCURVE",
"686.886 1836.69 OFFCURVE",
"711.882 1836.69 CURVE SMOOTH",
"728.879 1836.69 OFFCURVE",
"750.875 1824.7 OFFCURVE",
"779.87 1797.7 CURVE SMOOTH",
"836.861 1742.71 LINE"
);
}
);
width = 1681;
}
);
unicode = 00D5;
},
{
glyphname = Odieresis;
layers = (
{
layerId = "480801EC-13EF-4D5E-B695-C7354D4C452E";
name = Regular;
paths = (
{
closed = 1;
nodes = (
"1134.81 1355.77 OFFCURVE",
"1318.78 1121.81 OFFCURVE",
"1318.78 744.876 CURVE SMOOTH",
"1318.78 435.927 OFFCURVE",
"1134.81 354.941 OFFCURVE",
"841.86 354.941 CURVE SMOOTH",
"548.909 354.941 OFFCURVE",
"362.94 435.927 OFFCURVE",
"362.94 744.876 CURVE SMOOTH",
"362.94 1121.81 OFFCURVE",
"548.909 1355.77 OFFCURVE",
"841.86 1355.77 CURVE SMOOTH"
);
},
{
closed = 1;
nodes = (
"421.93 1519.75 OFFCURVE",
"149.975 1216.8 OFFCURVE",
"149.975 744.876 CURVE SMOOTH",
"149.975 272.955 OFFCURVE",
"421.93 -29 OFFCURVE",
"841.86 -29 CURVE SMOOTH",
"1260.79 -29 OFFCURVE",
"1531.74 273.954 OFFCURVE",
"1531.74 744.876 CURVE SMOOTH",
"1531.74 1216.8 OFFCURVE",
"1260.79 1519.75 OFFCURVE",
"841.86 1519.75 CURVE SMOOTH"
);
},
{
closed = 1;
nodes = (
"1158.81 1939.68 LINE",
"940.843 1939.68 LINE",
"940.843 1722.71 LINE",
"1158.81 1722.71 LINE"
);
},
{
closed = 1;
nodes = (
"739.877 1939.68 LINE",
"521.913 1939.68 LINE",
"521.913 1722.71 LINE",
"739.877 1722.71 LINE"
);
}
);
width = 1681;
}
);
unicode = 00D6;
},
{
glyphname = multiply;
layers = (
{
layerId = "480801EC-13EF-4D5E-B695-C7354D4C452E";
name = Regular;
paths = (
{
closed = 1;
nodes = (
"337.944 1190.8 LINE",
"169.972 1019.83 LINE",
"525.912 660.89 LINE",
"149.975 283.953 LINE",
"317.947 112.981 LINE",
"696.884 491.918 LINE",
"1075.82 112.981 LINE",
"1244.79 283.953 LINE",
"867.856 660.89 LINE",
"1254.79 1049.83 LINE",
"1085.82 1220.8 LINE",
"696.884 831.862 LINE"
);
}
);
width = 1404;
}
);
unicode = 00D7;
},
{
glyphname = Oslash;
layers = (
{
layerId = "480801EC-13EF-4D5E-B695-C7354D4C452E";
name = Regular;
paths = (
{
closed = 1;
nodes = (
"1134.81 1355.77 OFFCURVE",
"1318.78 1121.81 OFFCURVE",
"1318.78 744.876 CURVE SMOOTH",
"1318.78 435.927 OFFCURVE",
"1134.81 354.941 OFFCURVE",
"841.86 354.941 CURVE SMOOTH",
"548.909 354.941 OFFCURVE",
"362.94 435.927 OFFCURVE",
"362.94 744.876 CURVE SMOOTH",
"362.94 1121.81 OFFCURVE",
"548.909 1355.77 OFFCURVE",
"841.86 1355.77 CURVE SMOOTH"
);
},
{
closed = 1;
nodes = (
"421.93 1519.75 OFFCURVE",
"149.975 1216.8 OFFCURVE",
"149.975 744.876 CURVE SMOOTH",
"149.975 272.955 OFFCURVE",
"421.93 -29 OFFCURVE",
"841.86 -29 CURVE SMOOTH",
"1260.79 -29 OFFCURVE",
"1531.74 273.954 OFFCURVE",
"1531.74 744.876 CURVE SMOOTH",
"1531.74 1216.8 OFFCURVE",
"1260.79 1519.75 OFFCURVE",
"841.86 1519.75 CURVE SMOOTH"
);
},
{
closed = 1;
nodes = (
"1239.79 1582.74 LINE",
"1089.82 1587.74 LINE",
"511.915 -76 LINE",
"741.877 -84 LINE"
);
}
);
width = 1681;
}
);
unicode = 00D8;
},
{
glyphname = Ugrave;
layers = (
{
layerId = "480801EC-13EF-4D5E-B695-C7354D4C452E";
name = Regular;
paths = (
{
closed = 1;
nodes = (
"149.975 171.971 OFFCURVE",
"344.943 -29 OFFCURVE",
"721.88 -29 CURVE SMOOTH",
"1097.82 -29 OFFCURVE",
"1292.78 171.971 OFFCURVE",
"1292.78 560.907 CURVE SMOOTH",
"1292.78 1492.75 LINE",
"1079.82 1492.75 LINE",
"1098.82 725.879 LINE SMOOTH",
"1106.82 405.932 OFFCURVE",
"980.837 274.954 OFFCURVE",
"721.88 274.954 CURVE SMOOTH",
"461.923 274.954 OFFCURVE",
"334.944 405.932 OFFCURVE",
"342.943 725.879 CURVE SMOOTH",
"362.94 1492.75 LINE",
"149.975 1492.75 LINE",
"149.975 560.907 LINE SMOOTH"
);
},
{
closed = 1;
nodes = (
"869.855 1716.71 LINE",
"587.902 2090.65 LINE",
"390.935 2090.65 LINE",
"596.901 1716.71 LINE"
);
}
);
width = 1442;
}
);
unicode = 00D9;
},
{
glyphname = Uacute;
layers = (
{
layerId = "480801EC-13EF-4D5E-B695-C7354D4C452E";
name = Regular;
paths = (
{
closed = 1;
nodes = (
"149.975 171.971 OFFCURVE",
"344.943 -29 OFFCURVE",
"721.88 -29 CURVE SMOOTH",
"1097.82 -29 OFFCURVE",
"1292.78 171.971 OFFCURVE",
"1292.78 560.907 CURVE SMOOTH",
"1292.78 1492.75 LINE",
"1079.82 1492.75 LINE",
"1098.82 725.879 LINE SMOOTH",
"1106.82 405.932 OFFCURVE",
"980.837 274.954 OFFCURVE",
"721.88 274.954 CURVE SMOOTH",
"461.923 274.954 OFFCURVE",
"334.944 405.932 OFFCURVE",
"342.943 725.879 CURVE SMOOTH",
"362.94 1492.75 LINE",
"149.975 1492.75 LINE",
"149.975 560.907 LINE SMOOTH"
);
},
{
closed = 1;
nodes = (
"1136.81 2110.65 LINE",
"915.848 2110.65 LINE",
"603.899 1692.72 LINE",
"773.871 1692.72 LINE"
);
}
);
width = 1442;
}
);
unicode = 00DA;
},
{
glyphname = Ucircumflex;
layers = (
{
layerId = "480801EC-13EF-4D5E-B695-C7354D4C452E";
name = Regular;
paths = (
{
closed = 1;
nodes = (
"149.975 171.971 OFFCURVE",
"344.943 -29 OFFCURVE",
"721.88 -29 CURVE SMOOTH",
"1097.82 -29 OFFCURVE",
"1292.78 171.971 OFFCURVE",
"1292.78 560.907 CURVE SMOOTH",
"1292.78 1492.75 LINE",
"1079.82 1492.75 LINE",
"1098.82 725.879 LINE SMOOTH",
"1106.82 405.932 OFFCURVE",
"980.837 274.954 OFFCURVE",
"721.88 274.954 CURVE SMOOTH",
"461.923 274.954 OFFCURVE",
"334.944 405.932 OFFCURVE",
"342.943 725.879 CURVE SMOOTH",
"362.94 1492.75 LINE",
"149.975 1492.75 LINE",
"149.975 560.907 LINE SMOOTH"
);
},
{
closed = 1;
nodes = (
"720.88 1879.69 LINE",
"900.85 1634.73 LINE",
"1039.83 1634.73 LINE",
"794.868 2010.67 LINE",
"646.892 2010.67 LINE",
"401.933 1634.73 LINE",
"540.91 1634.73 LINE"
);
}
);
width = 1442;
}
);
unicode = 00DB;
},
{
glyphname = Udieresis;
layers = (
{
layerId = "480801EC-13EF-4D5E-B695-C7354D4C452E";
name = Regular;
paths = (
{
closed = 1;
nodes = (
"149.975 171.971 OFFCURVE",
"344.943 -29 OFFCURVE",
"721.88 -29 CURVE SMOOTH",
"1097.82 -29 OFFCURVE",
"1292.78 171.971 OFFCURVE",
"1292.78 560.907 CURVE SMOOTH",
"1292.78 1492.75 LINE",
"1079.82 1492.75 LINE",
"1098.82 725.879 LINE SMOOTH",
"1106.82 405.932 OFFCURVE",
"980.837 274.954 OFFCURVE",
"721.88 274.954 CURVE SMOOTH",
"461.923 274.954 OFFCURVE",
"334.944 405.932 OFFCURVE",
"342.943 725.879 CURVE SMOOTH",
"362.94 1492.75 LINE",
"149.975 1492.75 LINE",
"149.975 560.907 LINE SMOOTH"
);
},
{
closed = 1;
nodes = (
"1038.83 1939.68 LINE",
"820.863 1939.68 LINE",
"820.863 1722.71 LINE",
"1038.83 1722.71 LINE"
);
},
{
closed = 1;
nodes = (
"619.897 1939.68 LINE",
"401.933 1939.68 LINE",
"401.933 1722.71 LINE",
"619.897 1722.71 LINE"
);
}
);
width = 1442;
}
);
unicode = 00DC;
},
{
glyphname = Yacute;
layers = (
{
layerId = "480801EC-13EF-4D5E-B695-C7354D4C452E";
name = Regular;
paths = (
{
closed = 1;
nodes = (
"910.848 0 LINE",
"910.848 510.915 LINE",
"1408.77 1492.75 LINE",
"1191.8 1492.75 LINE",
"780.87 728.879 LINE",
"366.939 1492.75 LINE",
"149.975 1492.75 LINE",
"637.894 510.915 LINE",
"637.894 0 LINE"
);
},
{
closed = 1;
nodes = (
"1193.8 2110.65 LINE",
"972.838 2110.65 LINE",
"660.89 1692.72 LINE",
"830.862 1692.72 LINE"
);
}
);
width = 1558;
}
);
unicode = 00DD;
},
{
glyphname = Thorn;
layers = (
{
layerId = "480801EC-13EF-4D5E-B695-C7354D4C452E";
name = Regular;
paths = (
{
closed = 1;
nodes = (
"351.941 337.944 LINE",
"605.899 337.944 LINE SMOOTH",
"940.843 337.944 OFFCURVE",
"1113.81 490.918 OFFCURVE",
"1113.81 783.87 CURVE SMOOTH",
"1113.81 1076.82 OFFCURVE",
"940.843 1228.8 OFFCURVE",
"605.899 1228.8 CURVE SMOOTH",
"351.941 1228.8 LINE",
"351.941 1492.75 LINE",
"149.975 1492.75 LINE",
"149.975 0 LINE",
"351.941 0 LINE"
);
},
{
closed = 1;
nodes = (
"794.868 1062.82 OFFCURVE",
"900.85 962.84 OFFCURVE",
"900.85 783.87 CURVE SMOOTH",
"900.85 604.899 OFFCURVE",
"793.868 503.916 OFFCURVE",
"605.899 503.916 CURVE SMOOTH",
"351.941 503.916 LINE",
"351.941 1062.82 LINE",
"605.899 1062.82 LINE SMOOTH"
);
}
);
width = 1263;
}
);
unicode = 00DE;
},
{
glyphname = germandbls;
layers = (
{
layerId = "480801EC-13EF-4D5E-B695-C7354D4C452E";
name = Regular;
paths = (
{
closed = 1;
nodes = (
"439.927 1132.81 LINE",
"466.922 1360.77 OFFCURVE",
"552.908 1442.76 OFFCURVE",
"725.879 1442.76 CURVE SMOOTH",
"876.854 1442.76 OFFCURVE",
"943.843 1431.76 OFFCURVE",
"1047.83 1187.8 CURVE",
"779.87 1148.81 OFFCURVE",
"719.88 1028.83 OFFCURVE",
"719.88 859.857 CURVE SMOOTH",
"719.88 738.877 OFFCURVE",
"791.868 653.891 OFFCURVE",
"852.858 574.904 CURVE",
"934.844 519.913 LINE",
"1001.83 478.92 OFFCURVE",
"1045.83 443.926 OFFCURVE",
"1065.82 415.931 CURVE SMOOTH",
"1084.82 387.935 OFFCURVE",
"1094.82 359.94 OFFCURVE",
"1094.82 330.945 CURVE SMOOTH",
"1094.82 249.958 OFFCURVE",
"1013.83 204.966 OFFCURVE",
"858.857 204.966 CURVE SMOOTH",
"771.872 204.966 OFFCURVE",
"680.887 223.963 OFFCURVE",
"573.904 263.956 CURVE",
"573.904 19.9967 LINE",
"670.888 -12 OFFCURVE",
"761.873 -29 OFFCURVE",
"846.859 -29 CURVE SMOOTH",
"1127.81 -29 OFFCURVE",
"1282.79 96.9839 OFFCURVE",
"1282.79 325.946 CURVE SMOOTH",
"1282.79 458.924 OFFCURVE",
"1241.79 532.911 OFFCURVE",
"1020.83 673.888 CURVE SMOOTH",
"963.84 710.882 LINE SMOOTH",
"876.854 766.872 OFFCURVE",
"840.86 817.864 OFFCURVE",
"840.86 880.853 CURVE SMOOTH",
"840.86 1008.83 OFFCURVE",
"958.84 1088.82 OFFCURVE",
"1159.81 1099.82 CURVE",
"1155.81 1398.77 OFFCURVE",
"1006.83 1555.74 OFFCURVE",
"729.879 1555.74 CURVE SMOOTH",
"438.927 1555.74 OFFCURVE",
"272.955 1403.77 OFFCURVE",
"272.955 1136.81 CURVE",
"212.965 0 LINE",
"489.918 0 LINE"
);
}
);
width = 1421;
}
);
unicode = 00DF;
},
{
glyphname = agrave;
lastChange = "2013-01-12 20:47:59 -0500";
layers = (
{
components = (
{
name = a;
transform = "{1, 0, 0, 1, 0, 0}";
}
);
layerId = "480801EC-13EF-4D5E-B695-C7354D4C452E";
name = Regular;
paths = (
{
closed = 1;
nodes = (
"799.867 1343.78 LINE",
"517.914 1717.71 LINE",
"320.947 1717.71 LINE",
"526.912 1343.78 LINE"
);
}
);
width = 1245;
}
);
unicode = 00E0;
},
{
glyphname = aacute;
lastChange = "2013-01-12 20:48:05 -0500";
layers = (
{
components = (
{
name = a;
transform = "{1, 0, 0, 1, 0, 0}";
}
);
layerId = "480801EC-13EF-4D5E-B695-C7354D4C452E";
name = Regular;
paths = (
{
closed = 1;
nodes = (
"1066.82 1737.71 LINE",
"845.859 1737.71 LINE",
"533.911 1319.78 LINE",
"703.883 1319.78 LINE"
);
}
);
width = 1245;
}
);
unicode = 00E1;
},
{
glyphname = acircumflex;
lastChange = "2013-01-12 20:48:14 -0500";
layers = (
{
components = (
{
name = a;
transform = "{1, 0, 0, 1, 0, 0}";
}
);
layerId = "480801EC-13EF-4D5E-B695-C7354D4C452E";
name = Regular;
paths = (
{
closed = 1;
nodes = (
"650.892 1506.75 LINE",
"830.862 1261.79 LINE",
"969.839 1261.79 LINE",
"724.879 1637.73 LINE",
"576.904 1637.73 LINE",
"331.945 1261.79 LINE",
"470.922 1261.79 LINE"
);
}
);
width = 1245;
}
);
unicode = 00E2;
},
{
glyphname = atilde;
lastChange = "2013-01-12 20:48:21 -0500";
layers = (
{
components = (
{
name = a;
transform = "{1, 0, 0, 1, 0, 0}";
}
);
layerId = "480801EC-13EF-4D5E-B695-C7354D4C452E";
name = Regular;
paths = (
{
closed = 1;
nodes = (
"695.884 1325.78 OFFCURVE",
"734.878 1308.78 OFFCURVE",
"785.869 1308.78 CURVE SMOOTH",
"906.849 1308.78 OFFCURVE",
"977.837 1410.77 OFFCURVE",
"980.837 1590.74 CURVE",
"855.858 1590.74 LINE",
"854.858 1535.74 OFFCURVE",
"847.859 1496.75 OFFCURVE",
"835.861 1472.75 CURVE SMOOTH",
"823.863 1447.76 OFFCURVE",
"804.866 1435.76 OFFCURVE",
"779.87 1435.76 CURVE SMOOTH",
"762.873 1435.76 OFFCURVE",
"740.877 1447.76 OFFCURVE",
"711.882 1474.75 CURVE SMOOTH",
"654.891 1529.75 LINE",
"605.899 1573.74 OFFCURVE",
"566.906 1590.74 OFFCURVE",
"515.914 1590.74 CURVE SMOOTH",
"394.934 1590.74 OFFCURVE",
"323.946 1488.75 OFFCURVE",
"320.947 1308.78 CURVE",
"445.926 1308.78 LINE",
"446.926 1363.77 OFFCURVE",
"453.924 1402.77 OFFCURVE",
"465.922 1427.76 CURVE SMOOTH",
"477.92 1451.76 OFFCURVE",
"496.917 1463.76 OFFCURVE",
"521.913 1463.76 CURVE SMOOTH",
"538.91 1463.76 OFFCURVE",
"560.907 1451.76 OFFCURVE",
"589.902 1424.76 CURVE SMOOTH",
"646.892 1369.77 LINE"
);
}
);
width = 1245;
}
);
unicode = 00E3;
},
{
glyphname = adieresis;
lastChange = "2013-01-12 20:48:27 -0500";
layers = (
{
components = (
{
name = a;
transform = "{1, 0, 0, 1, 0, 0}";
}
);
layerId = "480801EC-13EF-4D5E-B695-C7354D4C452E";
name = Regular;
paths = (
{
closed = 1;
nodes = (
"968.839 1566.74 LINE",
"750.875 1566.74 LINE",
"750.875 1349.78 LINE",
"968.839 1349.78 LINE"
);
},
{
closed = 1;
nodes = (
"549.908 1566.74 LINE",
"331.945 1566.74 LINE",
"331.945 1349.78 LINE",
"549.908 1349.78 LINE"
);
}
);
width = 1245;
}
);
unicode = 00E4;
},
{
glyphname = aring;
lastChange = "2013-01-12 20:48:33 -0500";
layers = (
{
components = (
{
name = a;
transform = "{1, 0, 0, 1, 0, 0}";
}
);
layerId = "480801EC-13EF-4D5E-B695-C7354D4C452E";
name = Regular;
paths = (
{
closed = 1;
nodes = (
"802.866 1438.76 OFFCURVE",
"735.878 1371.77 OFFCURVE",
"650.892 1371.77 CURVE SMOOTH",
"563.906 1371.77 OFFCURVE",
"498.917 1436.76 OFFCURVE",
"498.917 1523.75 CURVE SMOOTH",
"498.917 1608.73 OFFCURVE",
"563.906 1674.72 OFFCURVE",
"650.892 1674.72 CURVE SMOOTH",
"735.878 1674.72 OFFCURVE",
"802.866 1607.73 OFFCURVE",
"802.866 1523.75 CURVE SMOOTH"
);
},
{
closed = 1;
nodes = (
"924.846 1676.72 OFFCURVE",
"803.866 1797.7 OFFCURVE",
"650.892 1797.7 CURVE SMOOTH",
"497.917 1797.7 OFFCURVE",
"376.937 1676.72 OFFCURVE",
"376.937 1523.75 CURVE SMOOTH",
"376.937 1370.77 OFFCURVE",
"497.917 1248.79 OFFCURVE",
"650.892 1248.79 CURVE SMOOTH",
"803.866 1248.79 OFFCURVE",
"924.846 1370.77 OFFCURVE",
"924.846 1523.75 CURVE SMOOTH"
);
}
);
width = 1245;
}
);
unicode = 00E5;
},
{
glyphname = ae;
layers = (
{
layerId = "480801EC-13EF-4D5E-B695-C7354D4C452E";
name = Regular;
paths = (
{
closed = 1;
nodes = (
"1182.8 874.854 OFFCURVE",
"1311.78 1044.83 OFFCURVE",
"1515.75 1044.83 CURVE SMOOTH",
"1698.72 1044.83 OFFCURVE",
"1817.7 864.856 OFFCURVE",
"1818.7 719.88 CURVE",
"1163.81 718.88 LINE"
);
},
{
closed = 1;
nodes = (
"1023.83 1079.82 OFFCURVE",
"875.854 1146.81 OFFCURVE",
"686.886 1146.81 CURVE SMOOTH",
"566.906 1146.81 OFFCURVE",
"440.927 1120.81 OFFCURVE",
"305.949 1068.82 CURVE",
"305.949 938.844 LINE",
"417.93 999.834 OFFCURVE",
"539.91 1030.83 OFFCURVE",
"667.889 1030.83 CURVE SMOOTH",
"868.855 1030.83 OFFCURVE",
"985.836 873.855 OFFCURVE",
"985.836 784.869 CURVE SMOOTH",
"985.836 766.872 LINE",
"727.879 766.872 LINE SMOOTH",
"392.935 766.872 OFFCURVE",
"223.963 657.891 OFFCURVE",
"223.963 325.946 CURVE SMOOTH",
"223.963 101.983 OFFCURVE",
"370.938 -29 OFFCURVE",
"622.896 -29 CURVE SMOOTH",
"813.865 -29 OFFCURVE",
"957.841 50.9915 OFFCURVE",
"1054.82 210.965 CURVE",
"1157.81 51.9913 OFFCURVE",
"1323.78 -29 OFFCURVE",
"1546.74 -29 CURVE SMOOTH",
"1687.72 -29 OFFCURVE",
"1827.7 30.9948 OFFCURVE",
"1960.67 86.9855 CURVE",
"1960.67 350.942 LINE",
"1827.7 279.953 OFFCURVE",
"1695.72 244.959 OFFCURVE",
"1556.74 244.959 CURVE SMOOTH",
"1312.78 244.959 OFFCURVE",
"1173.8 400.933 OFFCURVE",
"1157.81 575.904 CURVE",
"2003.67 575.904 LINE",
"2003.67 665.889 LINE SMOOTH",
"2003.67 918.847 OFFCURVE",
"1814.7 1146.81 OFFCURVE",
"1513.75 1146.81 CURVE SMOOTH",
"1337.78 1146.81 OFFCURVE",
"1194.8 1082.82 OFFCURVE",
"1095.82 962.84 CURVE"
);
},
{
closed = 1;
nodes = (
"985.836 333.944 OFFCURVE",
"851.858 224.963 OFFCURVE",
"647.892 224.963 CURVE SMOOTH",
"499.917 224.963 OFFCURVE",
"407.932 290.952 OFFCURVE",
"407.932 394.934 CURVE SMOOTH",
"407.932 589.902 OFFCURVE",
"505.916 622.896 OFFCURVE",
"802.866 622.896 CURVE SMOOTH",
"985.836 622.896 LINE",
"985.836 589.902 LINE SMOOTH"
);
}
);
width = 2217;
}
);
unicode = 00E6;
},
{
glyphname = ccedilla;
layers = (
{
layerId = "480801EC-13EF-4D5E-B695-C7354D4C452E";
name = Regular;
paths = (
{
closed = 1;
nodes = (
"934.844 1123.81 OFFCURVE",
"825.863 1146.81 OFFCURVE",
"712.881 1146.81 CURVE SMOOTH",
"363.939 1146.81 OFFCURVE",
"149.975 923.846 OFFCURVE",
"149.975 558.907 CURVE SMOOTH",
"149.975 198.967 OFFCURVE",
"363.939 -29 OFFCURVE",
"700.883 -29 CURVE SMOOTH",
"824.863 -29 OFFCURVE",
"932.845 -5 OFFCURVE",
"1035.83 42.9928 CURVE",
"1031.83 331.945 LINE",
"927.846 274.954 OFFCURVE",
"819.864 287.952 OFFCURVE",
"712.881 287.952 CURVE",
"473.921 300.95 OFFCURVE",
"372.938 366.939 OFFCURVE",
"353.941 558.907 CURVE",
"353.941 831.862 OFFCURVE",
"481.92 1000.83 OFFCURVE",
"720.88 1000.83 CURVE SMOOTH",
"827.862 1000.83 OFFCURVE",
"931.845 971.838 OFFCURVE",
"1035.83 914.848 CURVE",
"1035.83 1076.82 LINE"
);
},
{
closed = 1;
nodes = (
"673.888 -81 OFFCURVE",
"701.883 -138 OFFCURVE",
"701.883 -178 CURVE SMOOTH",
"701.883 -239 OFFCURVE",
"661.89 -272 OFFCURVE",
"582.903 -272 CURVE SMOOTH",
"519.913 -272 OFFCURVE",
"472.921 -263 OFFCURVE",
"427.929 -240 CURVE",
"427.929 -371 LINE",
"484.919 -387 OFFCURVE",
"542.91 -395 OFFCURVE",
"603.899 -395 CURVE SMOOTH",
"760.873 -395 OFFCURVE",
"841.86 -334 OFFCURVE",
"841.86 -215 CURVE SMOOTH",
"841.86 -151 OFFCURVE",
"805.866 -83 OFFCURVE",
"732.878 0 CURVE",
"613.898 0 LINE"
);
}
);
width = 1185;
}
);
unicode = 00E7;
},
{
glyphname = egrave;
layers = (
{
layerId = "480801EC-13EF-4D5E-B695-C7354D4C452E";
name = Regular;
paths = (
{
closed = 1;
nodes = (
"1152.81 995.834 OFFCURVE",
"999.834 1133.81 OFFCURVE",
"699.883 1146.81 CURVE",
"362.94 1146.81 OFFCURVE",
"162.973 915.848 OFFCURVE",
"149.975 548.909 CURVE",
"149.975 193.968 OFFCURVE",
"374.938 -16 OFFCURVE",
"730.878 -29 CURVE",
"874.854 -29 OFFCURVE",
"1012.83 0.999834 OFFCURVE",
"1145.81 56.9905 CURVE",
"1141.81 310.948 LINE",
"1010.83 241.96 OFFCURVE",
"878.854 243.959 OFFCURVE",
"737.877 243.959 CURVE",
"493.918 256.957 OFFCURVE",
"345.942 306.949 OFFCURVE",
"341.943 605.899 CURVE",
"1177.8 605.899 LINE",
"1177.8 675.888 LINE"
);
},
{
closed = 1;
nodes = (
"361.94 900.85 OFFCURVE",
"495.917 1049.83 OFFCURVE",
"700.883 1049.83 CURVE SMOOTH",
"881.853 1049.83 OFFCURVE",
"996.834 891.852 OFFCURVE",
"1017.83 766.872 CURVE",
"361.94 765.872 LINE"
);
},
{
closed = 1;
nodes = (
"821.863 1343.78 LINE",
"539.91 1717.71 LINE",
"342.943 1717.71 LINE",
"548.909 1343.78 LINE"
);
}
);
width = 1327;
}
);
unicode = 00E8;
},
{
glyphname = eacute;
layers = (
{
layerId = "480801EC-13EF-4D5E-B695-C7354D4C452E";
name = Regular;
paths = (
{
closed = 1;
nodes = (
"1152.81 995.834 OFFCURVE",
"999.834 1133.81 OFFCURVE",
"699.883 1146.81 CURVE",
"362.94 1146.81 OFFCURVE",
"162.973 915.848 OFFCURVE",
"149.975 548.909 CURVE",
"149.975 193.968 OFFCURVE",
"374.938 -16 OFFCURVE",
"730.878 -29 CURVE",
"874.854 -29 OFFCURVE",
"1012.83 0.999834 OFFCURVE",
"1145.81 56.9905 CURVE",
"1141.81 310.948 LINE",
"1010.83 241.96 OFFCURVE",
"878.854 243.959 OFFCURVE",
"737.877 243.959 CURVE",
"493.918 256.957 OFFCURVE",
"345.942 306.949 OFFCURVE",
"341.943 605.899 CURVE",
"1177.8 605.899 LINE",
"1177.8 675.888 LINE"
);
},
{
closed = 1;
nodes = (
"361.94 900.85 OFFCURVE",
"495.917 1049.83 OFFCURVE",
"700.883 1049.83 CURVE SMOOTH",
"881.853 1049.83 OFFCURVE",
"996.834 891.852 OFFCURVE",
"1017.83 766.872 CURVE",
"361.94 765.872 LINE"
);
},
{
closed = 1;
nodes = (
"1088.82 1737.71 LINE",
"867.856 1737.71 LINE",
"555.907 1319.78 LINE",
"725.879 1319.78 LINE"
);
}
);
width = 1327;
}
);
unicode = 00E9;
},
{
glyphname = ecircumflex;
layers = (
{
layerId = "480801EC-13EF-4D5E-B695-C7354D4C452E";
name = Regular;
paths = (
{
closed = 1;
nodes = (
"1152.81 995.834 OFFCURVE",
"999.834 1133.81 OFFCURVE",
"699.883 1146.81 CURVE",
"362.94 1146.81 OFFCURVE",
"162.973 915.848 OFFCURVE",
"149.975 548.909 CURVE",
"149.975 193.968 OFFCURVE",
"374.938 -16 OFFCURVE",
"730.878 -29 CURVE",
"874.854 -29 OFFCURVE",
"1012.83 0.999834 OFFCURVE",
"1145.81 56.9905 CURVE",
"1141.81 310.948 LINE",
"1010.83 241.96 OFFCURVE",
"878.854 243.959 OFFCURVE",
"737.877 243.959 CURVE",
"493.918 256.957 OFFCURVE",
"345.942 306.949 OFFCURVE",
"341.943 605.899 CURVE",
"1177.8 605.899 LINE",
"1177.8 675.888 LINE"
);
},
{
closed = 1;
nodes = (
"361.94 900.85 OFFCURVE",
"495.917 1049.83 OFFCURVE",
"700.883 1049.83 CURVE SMOOTH",
"881.853 1049.83 OFFCURVE",
"996.834 891.852 OFFCURVE",
"1017.83 766.872 CURVE",
"361.94 765.872 LINE"
);
},
{
closed = 1;
nodes = (
"672.888 1506.75 LINE",
"852.858 1261.79 LINE",
"991.835 1261.79 LINE",
"746.876 1637.73 LINE",
"598.9 1637.73 LINE",
"353.941 1261.79 LINE",
"492.918 1261.79 LINE"
);
}
);
width = 1327;
}
);
unicode = 00EA;
},
{
glyphname = edieresis;
layers = (
{
layerId = "480801EC-13EF-4D5E-B695-C7354D4C452E";
name = Regular;
paths = (
{
closed = 1;
nodes = (
"1152.81 995.834 OFFCURVE",
"999.834 1133.81 OFFCURVE",
"699.883 1146.81 CURVE",
"362.94 1146.81 OFFCURVE",
"162.973 915.848 OFFCURVE",
"149.975 548.909 CURVE",
"149.975 193.968 OFFCURVE",
"374.938 -16 OFFCURVE",
"730.878 -29 CURVE",
"874.854 -29 OFFCURVE",
"1012.83 0.999834 OFFCURVE",
"1145.81 56.9905 CURVE",
"1141.81 310.948 LINE",
"1010.83 241.96 OFFCURVE",
"878.854 243.959 OFFCURVE",
"737.877 243.959 CURVE",
"493.918 256.957 OFFCURVE",
"345.942 306.949 OFFCURVE",
"341.943 605.899 CURVE",
"1177.8 605.899 LINE",
"1177.8 675.888 LINE"
);
},
{
closed = 1;
nodes = (
"361.94 900.85 OFFCURVE",
"495.917 1049.83 OFFCURVE",
"700.883 1049.83 CURVE SMOOTH",
"881.853 1049.83 OFFCURVE",
"996.834 891.852 OFFCURVE",
"1017.83 766.872 CURVE",
"361.94 765.872 LINE"
);
},
{
closed = 1;
nodes = (
"990.835 1566.74 LINE",
"772.871 1566.74 LINE",
"772.871 1349.78 LINE",
"990.835 1349.78 LINE"
);
},
{
closed = 1;
nodes = (
"571.905 1566.74 LINE",
"353.941 1566.74 LINE",
"353.941 1349.78 LINE",
"571.905 1349.78 LINE"
);
}
);
width = 1327;
}
);
unicode = 00EB;
},
{
glyphname = igrave;
layers = (
{
layerId = "480801EC-13EF-4D5E-B695-C7354D4C452E";
name = Regular;
paths = (
{
closed = 1;
nodes = (
"634.894 1119.81 LINE",
"450.925 1119.81 LINE",
"450.925 0 LINE",
"634.894 0 LINE"
);
},
{
closed = 1;
nodes = (
"628.895 1263.79 LINE",
"346.942 1637.73 LINE",
"149.975 1637.73 LINE",
"355.941 1263.79 LINE"
);
}
);
width = 784;
}
);
unicode = 00EC;
},
{
glyphname = iacute;
layers = (
{
layerId = "480801EC-13EF-4D5E-B695-C7354D4C452E";
name = Regular;
paths = (
{
closed = 1;
nodes = (
"442.926 1119.81 LINE",
"258.957 1119.81 LINE",
"258.957 0 LINE",
"442.926 0 LINE"
);
},
{
closed = 1;
nodes = (
"682.886 1637.73 LINE",
"461.923 1637.73 LINE",
"149.975 1219.8 LINE",
"319.947 1219.8 LINE"
);
}
);
width = 832;
}
);
unicode = 00ED;
},
{
glyphname = icircumflex;
layers = (
{
layerId = "480801EC-13EF-4D5E-B695-C7354D4C452E";
name = Regular;
paths = (
{
closed = 1;
nodes = (
"615.897 1119.81 LINE",
"431.928 1119.81 LINE",
"431.928 0 LINE",
"615.897 0 LINE"
);
},
{
closed = 1;
nodes = (
"468.922 1506.75 LINE",
"648.892 1261.79 LINE",
"787.869 1261.79 LINE",
"542.91 1637.73 LINE",
"394.934 1637.73 LINE",
"149.975 1261.79 LINE",
"288.952 1261.79 LINE"
);
}
);
width = 937;
}
);
unicode = 00EE;
},
{
glyphname = idieresis;
layers = (
{
layerId = "480801EC-13EF-4D5E-B695-C7354D4C452E";
name = Regular;
paths = (
{
closed = 1;
nodes = (
"558.907 1119.81 LINE",
"374.938 1119.81 LINE",
"374.938 0 LINE",
"558.907 0 LINE"
);
},
{
closed = 1;
nodes = (
"786.869 1566.74 LINE",
"568.905 1566.74 LINE",
"568.905 1349.78 LINE",
"786.869 1349.78 LINE"
);
},
{
closed = 1;
nodes = (
"367.939 1566.74 LINE",
"149.975 1566.74 LINE",
"149.975 1349.78 LINE",
"367.939 1349.78 LINE"
);
}
);
width = 936;
}
);
unicode = 00EF;
},
{
glyphname = eth;
layers = (
{
layerId = "480801EC-13EF-4D5E-B695-C7354D4C452E";
name = Regular;
paths = (
{
closed = 1;
nodes = (
"946.842 823.863 OFFCURVE",
"982.836 699.883 OFFCURVE",
"982.836 536.911 CURVE SMOOTH",
"982.836 285.952 OFFCURVE",
"856.857 274.954 OFFCURVE",
"663.89 274.954 CURVE SMOOTH",
"468.922 274.954 OFFCURVE",
"343.943 285.952 OFFCURVE",
"343.943 536.911 CURVE SMOOTH",
"343.943 796.867 OFFCURVE",
"472.921 947.842 OFFCURVE",
"695.884 947.842 CURVE SMOOTH",
"750.875 947.842 OFFCURVE",
"807.866 937.844 OFFCURVE",
"874.854 914.848 CURVE"
);
},
{
closed = 1;
nodes = (
"1035.83 1521.75 LINE",
"702.883 1410.77 LINE",
"575.904 1555.74 LINE",
"347.942 1555.74 LINE",
"528.912 1351.78 LINE",
"247.959 1259.79 LINE",
"280.953 1160.81 LINE",
"599.9 1267.79 LINE",
"758.874 1087.82 LINE",
"702.883 1094.82 OFFCURVE",
"670.888 1097.82 OFFCURVE",
"646.892 1097.82 CURVE SMOOTH",
"351.941 1097.82 OFFCURVE",
"149.975 869.855 OFFCURVE",
"149.975 536.911 CURVE SMOOTH",
"149.975 196.967 OFFCURVE",
"355.941 -29 OFFCURVE",
"663.89 -29 CURVE SMOOTH",
"970.838 -29 OFFCURVE",
"1177.8 196.967 OFFCURVE",
"1177.8 536.911 CURVE SMOOTH",
"1177.8 767.872 OFFCURVE",
"1105.82 949.842 OFFCURVE",
"937.844 1140.81 CURVE SMOOTH",
"773.871 1326.78 LINE",
"1068.82 1424.76 LINE"
);
}
);
width = 1327;
}
);
unicode = 00F0;
},
{
glyphname = ntilde;
layers = (
{
layerId = "480801EC-13EF-4D5E-B695-C7354D4C452E";
name = Regular;
paths = (
{
closed = 1;
nodes = (
"1114.81 984.836 OFFCURVE",
"983.836 1146.81 OFFCURVE",
"726.879 1146.81 CURVE SMOOTH",
"570.905 1146.81 OFFCURVE",
"452.925 1063.82 OFFCURVE",
"364.939 995.834 CURVE",
"364.939 1129.81 LINE",
"179.97 1129.81 LINE",
"149.975 0 LINE",
"404.933 0 LINE",
"374.938 642.893 LINE",
"374.938 861.857 OFFCURVE",
"480.92 996.834 OFFCURVE",
"705.883 996.834 CURVE SMOOTH",
"870.855 996.834 OFFCURVE",
"933.845 891.852 OFFCURVE",
"933.845 679.887 CURVE",
"893.851 0 LINE",
"1157.81 0 LINE",
"1127.81 675.888 LINE SMOOTH"
);
},
{
closed = 1;
nodes = (
"679.887 1325.78 OFFCURVE",
"718.88 1308.78 OFFCURVE",
"769.872 1308.78 CURVE SMOOTH",
"890.852 1308.78 OFFCURVE",
"961.84 1410.77 OFFCURVE",
"964.839 1590.74 CURVE",
"839.86 1590.74 LINE",
"838.86 1535.74 OFFCURVE",
"831.862 1496.75 OFFCURVE",
"819.864 1472.75 CURVE SMOOTH",
"807.866 1447.76 OFFCURVE",
"788.869 1435.76 OFFCURVE",
"763.873 1435.76 CURVE SMOOTH",
"746.876 1435.76 OFFCURVE",
"724.879 1447.76 OFFCURVE",
"695.884 1474.75 CURVE SMOOTH",
"638.894 1529.75 LINE",
"589.902 1573.74 OFFCURVE",
"550.908 1590.74 OFFCURVE",
"499.917 1590.74 CURVE SMOOTH",
"378.937 1590.74 OFFCURVE",
"307.949 1488.75 OFFCURVE",
"304.949 1308.78 CURVE",
"429.928 1308.78 LINE",
"430.928 1363.77 OFFCURVE",
"437.927 1402.77 OFFCURVE",
"449.925 1427.76 CURVE SMOOTH",
"461.923 1451.76 OFFCURVE",
"480.92 1463.76 OFFCURVE",
"505.916 1463.76 CURVE SMOOTH",
"522.913 1463.76 OFFCURVE",
"544.909 1451.76 OFFCURVE",
"573.904 1424.76 CURVE SMOOTH",
"630.895 1369.77 LINE"
);
}
);
width = 1307;
}
);
unicode = 00F1;
},
{
glyphname = ograve;
layers = (
{
layerId = "480801EC-13EF-4D5E-B695-C7354D4C452E";
name = Regular;
paths = (
{
closed = 1;
nodes = (
"859.857 1010.83 OFFCURVE",
"982.836 847.859 OFFCURVE",
"982.836 590.902 CURVE SMOOTH",
"982.836 330.945 OFFCURVE",
"859.857 288.952 OFFCURVE",
"663.89 288.952 CURVE SMOOTH",
"464.923 288.952 OFFCURVE",
"343.943 329.945 OFFCURVE",
"343.943 590.902 CURVE SMOOTH",
"343.943 850.858 OFFCURVE",
"466.922 1010.83 OFFCURVE",
"663.89 1010.83 CURVE SMOOTH"
);
},
{
closed = 1;
nodes = (
"342.943 1146.81 OFFCURVE",
"149.975 926.846 OFFCURVE",
"149.975 558.907 CURVE SMOOTH",
"149.975 191.968 OFFCURVE",
"342.943 -29 OFFCURVE",
"663.89 -29 CURVE SMOOTH",
"983.836 -29 OFFCURVE",
"1177.8 191.968 OFFCURVE",
"1177.8 558.907 CURVE SMOOTH",
"1177.8 926.846 OFFCURVE",
"983.836 1146.81 OFFCURVE",
"663.89 1146.81 CURVE SMOOTH"
);
},
{
closed = 1;
nodes = (
"812.865 1343.78 LINE",
"530.912 1717.71 LINE",
"333.944 1717.71 LINE",
"539.91 1343.78 LINE"
);
}
);
width = 1327;
}
);
unicode = 00F2;
},
{
glyphname = oacute;
layers = (
{
layerId = "480801EC-13EF-4D5E-B695-C7354D4C452E";
name = Regular;
paths = (
{
closed = 1;
nodes = (
"859.857 1010.83 OFFCURVE",
"982.836 847.859 OFFCURVE",
"982.836 590.902 CURVE SMOOTH",
"982.836 330.945 OFFCURVE",
"859.857 288.952 OFFCURVE",
"663.89 288.952 CURVE SMOOTH",
"464.923 288.952 OFFCURVE",
"343.943 329.945 OFFCURVE",
"343.943 590.902 CURVE SMOOTH",
"343.943 850.858 OFFCURVE",
"466.922 1010.83 OFFCURVE",
"663.89 1010.83 CURVE SMOOTH"
);
},
{
closed = 1;
nodes = (
"342.943 1146.81 OFFCURVE",
"149.975 926.846 OFFCURVE",
"149.975 558.907 CURVE SMOOTH",
"149.975 191.968 OFFCURVE",
"342.943 -29 OFFCURVE",
"663.89 -29 CURVE SMOOTH",
"983.836 -29 OFFCURVE",
"1177.8 191.968 OFFCURVE",
"1177.8 558.907 CURVE SMOOTH",
"1177.8 926.846 OFFCURVE",
"983.836 1146.81 OFFCURVE",
"663.89 1146.81 CURVE SMOOTH"
);
},
{
closed = 1;
nodes = (
"1079.82 1737.71 LINE",
"858.857 1737.71 LINE",
"546.909 1319.78 LINE",
"716.881 1319.78 LINE"
);
}
);
width = 1327;
}
);
unicode = 00F3;
},
{
glyphname = ocircumflex;
layers = (
{
layerId = "480801EC-13EF-4D5E-B695-C7354D4C452E";
name = Regular;
paths = (
{
closed = 1;
nodes = (
"859.857 1010.83 OFFCURVE",
"982.836 847.859 OFFCURVE",
"982.836 590.902 CURVE SMOOTH",
"982.836 330.945 OFFCURVE",
"859.857 288.952 OFFCURVE",
"663.89 288.952 CURVE SMOOTH",
"464.923 288.952 OFFCURVE",
"343.943 329.945 OFFCURVE",
"343.943 590.902 CURVE SMOOTH",
"343.943 850.858 OFFCURVE",
"466.922 1010.83 OFFCURVE",
"663.89 1010.83 CURVE SMOOTH"
);
},
{
closed = 1;
nodes = (
"342.943 1146.81 OFFCURVE",
"149.975 926.846 OFFCURVE",
"149.975 558.907 CURVE SMOOTH",
"149.975 191.968 OFFCURVE",
"342.943 -29 OFFCURVE",
"663.89 -29 CURVE SMOOTH",
"983.836 -29 OFFCURVE",
"1177.8 191.968 OFFCURVE",
"1177.8 558.907 CURVE SMOOTH",
"1177.8 926.846 OFFCURVE",
"983.836 1146.81 OFFCURVE",
"663.89 1146.81 CURVE SMOOTH"
);
},
{
closed = 1;
nodes = (
"663.89 1506.75 LINE",
"843.86 1261.79 LINE",
"982.836 1261.79 LINE",
"737.877 1637.73 LINE",
"589.902 1637.73 LINE",
"344.943 1261.79 LINE",
"483.919 1261.79 LINE"
);
}
);
width = 1327;
}
);
unicode = 00F4;
},
{
glyphname = otilde;
layers = (
{
layerId = "480801EC-13EF-4D5E-B695-C7354D4C452E";
name = Regular;
paths = (
{
closed = 1;
nodes = (
"859.857 1010.83 OFFCURVE",
"982.836 847.859 OFFCURVE",
"982.836 590.902 CURVE SMOOTH",
"982.836 330.945 OFFCURVE",
"859.857 288.952 OFFCURVE",
"663.89 288.952 CURVE SMOOTH",
"464.923 288.952 OFFCURVE",
"343.943 329.945 OFFCURVE",
"343.943 590.902 CURVE SMOOTH",
"343.943 850.858 OFFCURVE",
"466.922 1010.83 OFFCURVE",
"663.89 1010.83 CURVE SMOOTH"
);
},
{
closed = 1;
nodes = (
"342.943 1146.81 OFFCURVE",
"149.975 926.846 OFFCURVE",
"149.975 558.907 CURVE SMOOTH",
"149.975 191.968 OFFCURVE",
"342.943 -29 OFFCURVE",
"663.89 -29 CURVE SMOOTH",
"983.836 -29 OFFCURVE",
"1177.8 191.968 OFFCURVE",
"1177.8 558.907 CURVE SMOOTH",
"1177.8 926.846 OFFCURVE",
"983.836 1146.81 OFFCURVE",
"663.89 1146.81 CURVE SMOOTH"
);
},
{
closed = 1;
nodes = (
"708.882 1325.78 OFFCURVE",
"747.876 1308.78 OFFCURVE",
"798.867 1308.78 CURVE SMOOTH",
"919.847 1308.78 OFFCURVE",
"990.835 1410.77 OFFCURVE",
"993.835 1590.74 CURVE",
"868.855 1590.74 LINE",
"867.856 1535.74 OFFCURVE",
"860.857 1496.75 OFFCURVE",
"848.859 1472.75 CURVE SMOOTH",
"836.861 1447.76 OFFCURVE",
"817.864 1435.76 OFFCURVE",
"792.868 1435.76 CURVE SMOOTH",
"775.871 1435.76 OFFCURVE",
"753.875 1447.76 OFFCURVE",
"724.879 1474.75 CURVE SMOOTH",
"667.889 1529.75 LINE",
"618.897 1573.74 OFFCURVE",
"579.904 1590.74 OFFCURVE",
"528.912 1590.74 CURVE SMOOTH",
"407.932 1590.74 OFFCURVE",
"336.944 1488.75 OFFCURVE",
"333.944 1308.78 CURVE",
"458.924 1308.78 LINE",
"459.923 1363.77 OFFCURVE",
"466.922 1402.77 OFFCURVE",
"478.92 1427.76 CURVE SMOOTH",
"490.918 1451.76 OFFCURVE",
"509.915 1463.76 OFFCURVE",
"534.911 1463.76 CURVE SMOOTH",
"551.908 1463.76 OFFCURVE",
"573.904 1451.76 OFFCURVE",
"602.9 1424.76 CURVE SMOOTH",
"659.89 1369.77 LINE"
);
}
);
width = 1327;
}
);
unicode = 00F5;
},
{
glyphname = odieresis;
layers = (
{
layerId = "480801EC-13EF-4D5E-B695-C7354D4C452E";
name = Regular;
paths = (
{
closed = 1;
nodes = (
"859.857 1010.83 OFFCURVE",
"982.836 847.859 OFFCURVE",
"982.836 590.902 CURVE SMOOTH",
"982.836 330.945 OFFCURVE",
"859.857 288.952 OFFCURVE",
"663.89 288.952 CURVE SMOOTH",
"464.923 288.952 OFFCURVE",
"343.943 329.945 OFFCURVE",
"343.943 590.902 CURVE SMOOTH",
"343.943 850.858 OFFCURVE",
"466.922 1010.83 OFFCURVE",
"663.89 1010.83 CURVE SMOOTH"
);
},
{
closed = 1;
nodes = (
"342.943 1146.81 OFFCURVE",
"149.975 926.846 OFFCURVE",
"149.975 558.907 CURVE SMOOTH",
"149.975 191.968 OFFCURVE",
"342.943 -29 OFFCURVE",
"663.89 -29 CURVE SMOOTH",
"983.836 -29 OFFCURVE",
"1177.8 191.968 OFFCURVE",
"1177.8 558.907 CURVE SMOOTH",
"1177.8 926.846 OFFCURVE",
"983.836 1146.81 OFFCURVE",
"663.89 1146.81 CURVE SMOOTH"
);
},
{
closed = 1;
nodes = (
"981.837 1566.74 LINE",
"763.873 1566.74 LINE",
"763.873 1349.78 LINE",
"981.837 1349.78 LINE"
);
},
{
closed = 1;
nodes = (
"562.906 1566.74 LINE",
"344.943 1566.74 LINE",
"344.943 1349.78 LINE",
"562.906 1349.78 LINE"
);
}
);
width = 1327;
}
);
unicode = 00F6;
},
{
glyphname = divide;
layers = (
{
layerId = "480801EC-13EF-4D5E-B695-C7354D4C452E";
name = Regular;
paths = (
{
closed = 1;
nodes = (
"963.84 1184.8 LINE",
"667.889 1184.8 LINE",
"667.889 888.852 LINE",
"963.84 888.852 LINE"
);
},
{
closed = 1;
nodes = (
"963.84 344.943 LINE",
"667.889 344.943 LINE",
"667.889 49.9917 LINE",
"963.84 49.9917 LINE"
);
},
{
closed = 1;
nodes = (
"1481.75 726.879 LINE",
"149.975 726.879 LINE",
"149.975 506.916 LINE",
"1481.75 506.916 LINE"
);
}
);
width = 1631;
}
);
unicode = 00F7;
},
{
glyphname = oslash;
layers = (
{
layerId = "480801EC-13EF-4D5E-B695-C7354D4C452E";
name = Regular;
paths = (
{
closed = 1;
nodes = (
"1010.83 739.877 OFFCURVE",
"1023.83 663.89 OFFCURVE",
"1023.83 558.907 CURVE SMOOTH",
"1023.83 291.951 OFFCURVE",
"900.85 126.979 OFFCURVE",
"704.883 126.979 CURVE SMOOTH",
"617.897 126.979 OFFCURVE",
"550.908 152.975 OFFCURVE",
"495.917 208.965 CURVE",
"982.836 800.867 LINE"
);
},
{
closed = 1;
nodes = (
"396.934 377.937 OFFCURVE",
"384.936 448.925 OFFCURVE",
"384.936 544.909 CURVE SMOOTH",
"384.936 825.863 OFFCURVE",
"503.916 990.835 OFFCURVE",
"704.883 990.835 CURVE SMOOTH",
"787.869 990.835 OFFCURVE",
"855.858 963.84 OFFCURVE",
"911.848 908.849 CURVE",
"423.929 316.947 LINE"
);
},
{
closed = 1;
nodes = (
"384.936 73.9877 LINE",
"468.922 5.999 OFFCURVE",
"576.904 -29 OFFCURVE",
"704.883 -29 CURVE SMOOTH",
"1024.83 -29 OFFCURVE",
"1218.8 191.968 OFFCURVE",
"1218.8 558.907 CURVE SMOOTH",
"1218.8 718.88 OFFCURVE",
"1182.8 850.858 OFFCURVE",
"1111.81 953.841 CURVE",
"1257.79 1132.81 LINE",
"1162.81 1211.8 LINE",
"1023.83 1043.83 LINE",
"934.844 1112.81 OFFCURVE",
"828.862 1146.81 OFFCURVE",
"704.883 1146.81 CURVE SMOOTH",
"383.936 1146.81 OFFCURVE",
"190.968 926.846 OFFCURVE",
"190.968 558.907 CURVE SMOOTH",
"190.968 399.933 OFFCURVE",
"226.962 268.955 OFFCURVE",
"298.95 165.972 CURVE",
"149.975 -16 LINE",
"245.959 -94 LINE"
);
}
);
width = 1409;
}
);
unicode = 00F8;
},
{
glyphname = ugrave;
layers = (
{
layerId = "480801EC-13EF-4D5E-B695-C7354D4C452E";
name = Regular;
paths = (
{
closed = 1;
nodes = (
"149.975 133.978 OFFCURVE",
"285.952 -29 OFFCURVE",
"542.91 -29 CURVE SMOOTH",
"698.884 -29 OFFCURVE",
"814.864 35.994 OFFCURVE",
"903.85 171.971 CURVE",
"893.851 0 LINE",
"1077.82 0 LINE",
"1097.82 1119.81 LINE",
"893.851 1119.81 LINE",
"873.855 644.893 LINE SMOOTH",
"860.857 425.929 OFFCURVE",
"750.875 290.952 OFFCURVE",
"551.908 290.952 CURVE SMOOTH",
"386.936 290.952 OFFCURVE",
"316.947 396.934 OFFCURVE",
"303.949 608.899 CURVE",
"303.949 1119.81 LINE",
"149.975 1119.81 LINE",
"149.975 441.926 LINE SMOOTH"
);
},
{
closed = 1;
nodes = (
"779.87 1343.78 LINE",
"497.917 1717.71 LINE",
"300.95 1717.71 LINE",
"506.916 1343.78 LINE"
);
}
);
width = 1247;
}
);
unicode = 00F9;
},
{
glyphname = uacute;
layers = (
{
layerId = "480801EC-13EF-4D5E-B695-C7354D4C452E";
name = Regular;
paths = (
{
closed = 1;
nodes = (
"149.975 133.978 OFFCURVE",
"285.952 -29 OFFCURVE",
"542.91 -29 CURVE SMOOTH",
"698.884 -29 OFFCURVE",
"814.864 35.994 OFFCURVE",
"903.85 171.971 CURVE",
"893.851 0 LINE",
"1077.82 0 LINE",
"1097.82 1119.81 LINE",
"893.851 1119.81 LINE",
"873.855 644.893 LINE SMOOTH",
"860.857 425.929 OFFCURVE",
"750.875 290.952 OFFCURVE",
"551.908 290.952 CURVE SMOOTH",
"386.936 290.952 OFFCURVE",
"316.947 396.934 OFFCURVE",
"303.949 608.899 CURVE",
"303.949 1119.81 LINE",
"149.975 1119.81 LINE",
"149.975 441.926 LINE SMOOTH"
);
},
{
closed = 1;
nodes = (
"1046.83 1737.71 LINE",
"825.863 1737.71 LINE",
"513.914 1319.78 LINE",
"683.886 1319.78 LINE"
);
}
);
width = 1247;
}
);
unicode = 00FA;
},
{
glyphname = ucircumflex;
layers = (
{
layerId = "480801EC-13EF-4D5E-B695-C7354D4C452E";
name = Regular;
paths = (
{
closed = 1;
nodes = (
"149.975 133.978 OFFCURVE",
"285.952 -29 OFFCURVE",
"542.91 -29 CURVE SMOOTH",
"698.884 -29 OFFCURVE",
"814.864 35.994 OFFCURVE",
"903.85 171.971 CURVE",
"893.851 0 LINE",
"1077.82 0 LINE",
"1097.82 1119.81 LINE",
"893.851 1119.81 LINE",
"873.855 644.893 LINE SMOOTH",
"860.857 425.929 OFFCURVE",
"750.875 290.952 OFFCURVE",
"551.908 290.952 CURVE SMOOTH",
"386.936 290.952 OFFCURVE",
"316.947 396.934 OFFCURVE",
"303.949 608.899 CURVE",
"303.949 1119.81 LINE",
"149.975 1119.81 LINE",
"149.975 441.926 LINE SMOOTH"
);
},
{
closed = 1;
nodes = (
"630.895 1506.75 LINE",
"810.865 1261.79 LINE",
"949.842 1261.79 LINE",
"704.883 1637.73 LINE",
"556.907 1637.73 LINE",
"311.948 1261.79 LINE",
"450.925 1261.79 LINE"
);
}
);
width = 1247;
}
);
unicode = 00FB;
},
{
glyphname = udieresis;
layers = (
{
layerId = "480801EC-13EF-4D5E-B695-C7354D4C452E";
name = Regular;
paths = (
{
closed = 1;
nodes = (
"149.975 133.978 OFFCURVE",
"285.952 -29 OFFCURVE",
"542.91 -29 CURVE SMOOTH",
"698.884 -29 OFFCURVE",
"814.864 35.994 OFFCURVE",
"903.85 171.971 CURVE",
"893.851 0 LINE",
"1077.82 0 LINE",
"1097.82 1119.81 LINE",
"893.851 1119.81 LINE",
"873.855 644.893 LINE SMOOTH",
"860.857 425.929 OFFCURVE",
"750.875 290.952 OFFCURVE",
"551.908 290.952 CURVE SMOOTH",
"386.936 290.952 OFFCURVE",
"316.947 396.934 OFFCURVE",
"303.949 608.899 CURVE",
"303.949 1119.81 LINE",
"149.975 1119.81 LINE",
"149.975 441.926 LINE SMOOTH"
);
},
{
closed = 1;
nodes = (
"948.842 1566.74 LINE",
"730.878 1566.74 LINE",
"730.878 1349.78 LINE",
"948.842 1349.78 LINE"
);
},
{
closed = 1;
nodes = (
"529.912 1566.74 LINE",
"311.948 1566.74 LINE",
"311.948 1349.78 LINE",
"529.912 1349.78 LINE"
);
}
);
width = 1247;
}
);
unicode = 00FC;
},
{
glyphname = yacute;
layers = (
{
layerId = "480801EC-13EF-4D5E-B695-C7354D4C452E";
name = Regular;
paths = (
{
closed = 1;
nodes = (
"740.877 468.922 LINE",
"344.943 1119.81 LINE",
"149.975 1119.81 LINE",
"628.895 92.9845 LINE",
"549.908 -66 LINE",
"481.92 -151 OFFCURVE",
"439.927 -202 OFFCURVE",
"338.944 -202 CURVE SMOOTH",
"210.965 -202 LINE",
"210.965 -446 LINE",
"377.937 -446 LINE SMOOTH",
"542.91 -446 OFFCURVE",
"636.894 -397 OFFCURVE",
"767.872 -104 CURVE",
"1239.79 1119.81 LINE",
"1044.83 1119.81 LINE"
);
},
{
closed = 1;
nodes = (
"1022.83 1737.71 LINE",
"801.867 1737.71 LINE",
"489.918 1319.78 LINE",
"659.89 1319.78 LINE"
);
}
);
width = 1389;
}
);
unicode = 00FD;
},
{
glyphname = thorn;
layers = (
{
layerId = "480801EC-13EF-4D5E-B695-C7354D4C452E";
name = Regular;
paths = (
{
closed = 1;
nodes = (
"536.911 34.9942 OFFCURVE",
"653.891 -29 OFFCURVE",
"817.864 -29 CURVE SMOOTH",
"1089.82 -29 OFFCURVE",
"1276.79 206.966 OFFCURVE",
"1276.79 558.907 CURVE SMOOTH",
"1276.79 910.848 OFFCURVE",
"1089.82 1146.81 OFFCURVE",
"817.864 1146.81 CURVE SMOOTH",
"653.891 1146.81 OFFCURVE",
"536.911 1082.82 OFFCURVE",
"459.923 949.842 CURVE",
"459.923 1555.74 LINE",
"274.954 1555.74 LINE",
"274.954 -426 LINE",
"459.923 -426 LINE",
"459.923 167.972 LINE"
);
},
{
closed = 1;
nodes = (
"1085.82 287.952 OFFCURVE",
"967.839 124.979 OFFCURVE",
"772.871 124.979 CURVE SMOOTH",
"577.904 124.979 OFFCURVE",
"459.923 287.952 OFFCURVE",
"459.923 558.907 CURVE SMOOTH",
"459.923 829.862 OFFCURVE",
"577.904 992.835 OFFCURVE",
"772.871 992.835 CURVE SMOOTH",
"967.839 992.835 OFFCURVE",
"1085.82 829.862 OFFCURVE",
"1085.82 558.907 CURVE SMOOTH"
);
}
);
width = 1277;
}
);
unicode = 00FE;
},
{
glyphname = Cacute;
layers = (
{
layerId = "480801EC-13EF-4D5E-B695-C7354D4C452E";
name = Regular;
paths = (
{
closed = 1;
nodes = (
"1214.8 1472.75 OFFCURVE",
"1057.82 1519.75 OFFCURVE",
"878.854 1519.75 CURVE SMOOTH",
"426.929 1519.75 OFFCURVE",
"149.975 1224.8 OFFCURVE",
"149.975 744.876 CURVE SMOOTH",
"149.975 265.956 OFFCURVE",
"426.929 -29 OFFCURVE",
"878.854 -29 CURVE SMOOTH",
"1054.82 -29 OFFCURVE",
"1212.8 18.9968 OFFCURVE",
"1353.77 114.981 CURVE",
"1353.77 465.922 LINE",
"1217.8 338.944 OFFCURVE",
"1063.82 276.954 OFFCURVE",
"890.852 276.954 CURVE SMOOTH",
"549.908 276.954 OFFCURVE",
"367.939 395.934 OFFCURVE",
"362.94 744.876 CURVE",
"362.94 1139.81 OFFCURVE",
"549.908 1353.77 OFFCURVE",
"890.852 1353.77 CURVE SMOOTH",
"1063.82 1353.77 OFFCURVE",
"1217.8 1291.79 OFFCURVE",
"1353.77 1164.81 CURVE",
"1353.77 1377.77 LINE"
);
},
{
closed = 1;
nodes = (
"1198.8 2110.65 LINE",
"977.837 2110.65 LINE",
"665.889 1692.72 LINE",
"835.861 1692.72 LINE"
);
}
);
width = 1503;
}
);
unicode = 0106;
},
{
glyphname = cacute;
layers = (
{
layerId = "480801EC-13EF-4D5E-B695-C7354D4C452E";
name = Regular;
paths = (
{
closed = 1;
nodes = (
"934.844 1123.81 OFFCURVE",
"825.863 1146.81 OFFCURVE",
"712.881 1146.81 CURVE SMOOTH",
"363.939 1146.81 OFFCURVE",
"149.975 923.846 OFFCURVE",
"149.975 558.907 CURVE SMOOTH",
"149.975 198.967 OFFCURVE",
"363.939 -29 OFFCURVE",
"700.883 -29 CURVE SMOOTH",
"824.863 -29 OFFCURVE",
"932.845 -5 OFFCURVE",
"1035.83 42.9928 CURVE",
"1031.83 331.945 LINE",
"927.846 274.954 OFFCURVE",
"819.864 287.952 OFFCURVE",
"712.881 287.952 CURVE",
"473.921 300.95 OFFCURVE",
"372.938 366.939 OFFCURVE",
"353.941 558.907 CURVE",
"353.941 831.862 OFFCURVE",
"481.92 1000.83 OFFCURVE",
"720.88 1000.83 CURVE SMOOTH",
"827.862 1000.83 OFFCURVE",
"931.845 971.838 OFFCURVE",
"1035.83 914.848 CURVE",
"1035.83 1076.82 LINE"
);
},
{
closed = 1;
nodes = (
"1050.83 1737.71 LINE",
"829.862 1737.71 LINE",
"517.914 1319.78 LINE",
"687.885 1319.78 LINE"
);
}
);
width = 1185;
}
);
unicode = 0107;
},
{
glyphname = Ccaron;
layers = (
{
layerId = "480801EC-13EF-4D5E-B695-C7354D4C452E";
name = Regular;
paths = (
{
closed = 1;
nodes = (
"1214.8 1472.75 OFFCURVE",
"1057.82 1519.75 OFFCURVE",
"878.854 1519.75 CURVE SMOOTH",
"426.929 1519.75 OFFCURVE",
"149.975 1224.8 OFFCURVE",
"149.975 744.876 CURVE SMOOTH",
"149.975 265.956 OFFCURVE",
"426.929 -29 OFFCURVE",
"878.854 -29 CURVE SMOOTH",
"1054.82 -29 OFFCURVE",
"1212.8 18.9968 OFFCURVE",
"1353.77 114.981 CURVE",
"1353.77 465.922 LINE",
"1217.8 338.944 OFFCURVE",
"1063.82 276.954 OFFCURVE",
"890.852 276.954 CURVE SMOOTH",
"549.908 276.954 OFFCURVE",
"367.939 395.934 OFFCURVE",
"362.94 744.876 CURVE",
"362.94 1139.81 OFFCURVE",
"549.908 1353.77 OFFCURVE",
"890.852 1353.77 CURVE SMOOTH",
"1063.82 1353.77 OFFCURVE",
"1217.8 1291.79 OFFCURVE",
"1353.77 1164.81 CURVE",
"1353.77 1377.77 LINE"
);
},
{
closed = 1;
nodes = (
"962.84 2010.67 LINE",
"782.87 1765.71 LINE",
"602.9 2010.67 LINE",
"463.923 2010.67 LINE",
"708.882 1634.73 LINE",
"856.857 1634.73 LINE",
"1101.82 2010.67 LINE"
);
}
);
width = 1503;
}
);
unicode = 010C;
},
{
glyphname = ccaron;
layers = (
{
layerId = "480801EC-13EF-4D5E-B695-C7354D4C452E";
name = Regular;
paths = (
{
closed = 1;
nodes = (
"934.844 1123.81 OFFCURVE",
"825.863 1146.81 OFFCURVE",
"712.881 1146.81 CURVE SMOOTH",
"363.939 1146.81 OFFCURVE",
"149.975 923.846 OFFCURVE",
"149.975 558.907 CURVE SMOOTH",
"149.975 198.967 OFFCURVE",
"363.939 -29 OFFCURVE",
"700.883 -29 CURVE SMOOTH",
"824.863 -29 OFFCURVE",
"932.845 -5 OFFCURVE",
"1035.83 42.9928 CURVE",
"1031.83 331.945 LINE",
"927.846 274.954 OFFCURVE",
"819.864 287.952 OFFCURVE",
"712.881 287.952 CURVE",
"473.921 300.95 OFFCURVE",
"372.938 366.939 OFFCURVE",
"353.941 558.907 CURVE",
"353.941 831.862 OFFCURVE",
"481.92 1000.83 OFFCURVE",
"720.88 1000.83 CURVE SMOOTH",
"827.862 1000.83 OFFCURVE",
"931.845 971.838 OFFCURVE",
"1035.83 914.848 CURVE",
"1035.83 1076.82 LINE"
);
},
{
closed = 1;
nodes = (
"814.864 1637.73 LINE",
"634.894 1392.77 LINE",
"454.924 1637.73 LINE",
"315.947 1637.73 LINE",
"560.907 1261.79 LINE",
"708.882 1261.79 LINE",
"953.841 1637.73 LINE"
);
}
);
width = 1185;
}
);
unicode = 010D;
},
{
glyphname = dcroat;
layers = (
{
layerId = "480801EC-13EF-4D5E-B695-C7354D4C452E";
name = Regular;
paths = (
{
closed = 1;
nodes = (
"889.852 1082.82 OFFCURVE",
"772.871 1146.81 OFFCURVE",
"607.899 1146.81 CURVE SMOOTH",
"336.944 1146.81 OFFCURVE",
"149.975 910.848 OFFCURVE",
"149.975 558.907 CURVE SMOOTH",
"149.975 206.966 OFFCURVE",
"336.944 -29 OFFCURVE",
"607.899 -29 CURVE SMOOTH",
"772.871 -29 OFFCURVE",
"889.852 34.9942 OFFCURVE",
"966.839 167.972 CURVE",
"966.839 0 LINE",
"1150.81 0 LINE",
"1150.81 1283.79 LINE",
"1304.78 1283.79 LINE",
"1304.78 1408.77 LINE",
"1150.81 1408.77 LINE",
"1150.81 1555.74 LINE",
"966.839 1555.74 LINE",
"966.839 1408.77 LINE",
"640.893 1408.77 LINE",
"640.893 1283.79 LINE",
"966.839 1283.79 LINE",
"966.839 949.842 LINE"
);
},
{
closed = 1;
nodes = (
"339.943 845.859 OFFCURVE",
"457.924 992.835 OFFCURVE",
"652.891 992.835 CURVE SMOOTH",
"847.859 992.835 OFFCURVE",
"966.839 845.859 OFFCURVE",
"966.839 601.9 CURVE SMOOTH",
"966.839 357.94 OFFCURVE",
"847.859 210.965 OFFCURVE",
"652.891 210.965 CURVE SMOOTH",
"457.924 210.965 OFFCURVE",
"339.943 357.94 OFFCURVE",
"339.943 601.9 CURVE SMOOTH"
);
}
);
width = 1454;
}
);
unicode = 0111;
},
{
glyphname = Gbreve;
layers = (
{
layerId = "480801EC-13EF-4D5E-B695-C7354D4C452E";
name = Regular;
paths = (
{
closed = 1;
nodes = (
"1174.8 320.947 OFFCURVE",
"1054.82 296.951 OFFCURVE",
"911.848 296.951 CURVE SMOOTH",
"546.909 296.951 OFFCURVE",
"375.937 396.934 OFFCURVE",
"362.94 764.873 CURVE",
"362.94 1168.81 OFFCURVE",
"546.909 1373.77 OFFCURVE",
"911.848 1373.77 CURVE SMOOTH",
"1096.82 1373.77 OFFCURVE",
"1265.79 1309.78 OFFCURVE",
"1414.76 1182.8 CURVE",
"1414.76 1377.77 LINE",
"1266.79 1470.76 OFFCURVE",
"1089.82 1519.75 OFFCURVE",
"894.851 1519.75 CURVE SMOOTH",
"427.929 1519.75 OFFCURVE",
"149.975 1232.79 OFFCURVE",
"149.975 744.876 CURVE SMOOTH",
"149.975 257.957 OFFCURVE",
"427.929 -29 OFFCURVE",
"894.851 -29 CURVE SMOOTH",
"1107.82 -29 OFFCURVE",
"1297.78 27.9953 OFFCURVE",
"1453.76 138.977 CURVE",
"1453.76 749.875 LINE",
"903.85 749.875 LINE",
"903.85 533.911 LINE",
"1223.8 533.911 LINE",
"1223.8 372.938 LINE"
);
},
{
closed = 1;
nodes = (
"526.912 1789.7 OFFCURVE",
"633.894 1693.72 OFFCURVE",
"826.862 1693.72 CURVE SMOOTH",
"1019.83 1693.72 OFFCURVE",
"1126.81 1789.7 OFFCURVE",
"1139.81 1980.67 CURVE",
"1021.83 1980.67 LINE",
"1004.83 1879.69 OFFCURVE",
"941.843 1830.7 OFFCURVE",
"826.862 1830.7 CURVE SMOOTH",
"710.882 1830.7 OFFCURVE",
"646.892 1880.69 OFFCURVE",
"631.895 1980.67 CURVE",
"513.914 1980.67 LINE"
);
}
);
width = 1603;
}
);
unicode = 011E;
},
{
glyphname = gbreve;
layers = (
{
layerId = "480801EC-13EF-4D5E-B695-C7354D4C452E";
name = Regular;
paths = (
{
closed = 1;
nodes = (
"886.852 318.947 OFFCURVE",
"757.874 297.95 OFFCURVE",
"558.907 297.95 CURVE SMOOTH",
"361.94 297.95 OFFCURVE",
"286.952 318.947 OFFCURVE",
"259.957 583.903 CURVE",
"259.957 850.858 OFFCURVE",
"375.937 1003.83 OFFCURVE",
"572.905 1003.83 CURVE SMOOTH",
"771.872 1003.83 OFFCURVE",
"886.852 850.858 OFFCURVE",
"886.852 583.903 CURVE SMOOTH"
);
},
{
closed = 1;
nodes = (
"966.839 949.842 LINE",
"890.852 1081.82 OFFCURVE",
"772.871 1146.81 OFFCURVE",
"607.899 1146.81 CURVE SMOOTH",
"332.945 1146.81 OFFCURVE",
"149.975 919.847 OFFCURVE",
"149.975 572.905 CURVE SMOOTH",
"149.975 227.962 OFFCURVE",
"332.945 0 OFFCURVE",
"607.899 0 CURVE SMOOTH",
"772.871 0 OFFCURVE",
"893.851 74.9875 OFFCURVE",
"956.841 166.972 CURVE",
"956.841 105.982 LINE",
"929.845 -26 OFFCURVE",
"826.862 -235 OFFCURVE",
"585.902 -235 CURVE SMOOTH",
"476.921 -235 OFFCURVE",
"372.938 -208 OFFCURVE",
"264.956 -149 CURVE",
"264.956 -477 LINE",
"372.938 -517 OFFCURVE",
"485.919 -536 OFFCURVE",
"614.898 -536 CURVE SMOOTH",
"963.84 -536 OFFCURVE",
"1124.81 -376 OFFCURVE",
"1140.81 138.977 CURVE SMOOTH",
"1170.81 1119.81 LINE",
"986.836 1119.81 LINE"
);
},
{
closed = 1;
nodes = (
"381.936 1416.76 OFFCURVE",
"488.919 1320.78 OFFCURVE",
"681.886 1320.78 CURVE SMOOTH",
"874.854 1320.78 OFFCURVE",
"981.837 1416.76 OFFCURVE",
"994.834 1607.73 CURVE",
"876.854 1607.73 LINE",
"859.857 1506.75 OFFCURVE",
"796.867 1457.76 OFFCURVE",
"681.886 1457.76 CURVE SMOOTH",
"565.906 1457.76 OFFCURVE",
"501.916 1507.75 OFFCURVE",
"486.919 1607.73 CURVE",
"368.939 1607.73 LINE"
);
}
);
width = 1320;
}
);
unicode = 011F;
},
{
glyphname = Idot;
layers = (
{
layerId = "480801EC-13EF-4D5E-B695-C7354D4C452E";
name = Regular;
paths = (
{
closed = 1;
nodes = (
"364.939 497.917 OFFCURVE",
"368.939 994.834 OFFCURVE",
"361.94 1492.75 CURVE",
"189.968 1492.75 LINE",
"179.97 994.834 OFFCURVE",
"179.97 497.917 OFFCURVE",
"149.975 0 CURVE",
"391.935 0 LINE"
);
},
{
closed = 1;
nodes = (
"382.936 1924.68 LINE",
"178.97 1924.68 LINE",
"178.97 1720.71 LINE",
"382.936 1720.71 LINE"
);
}
);
width = 541;
}
);
unicode = 0130;
},
{
glyphname = dotlessi;
layers = (
{
layerId = "480801EC-13EF-4D5E-B695-C7354D4C452E";
name = Regular;
paths = (
{
closed = 1;
nodes = (
"341.943 407.932 OFFCURVE",
"331.945 784.869 OFFCURVE",
"343.943 1119.81 CURVE",
"179.97 1119.81 LINE",
"182.97 766.872 OFFCURVE",
"176.971 392.935 OFFCURVE",
"149.975 0 CURVE",
"383.936 0 LINE"
);
}
);
width = 533;
}
);
unicode = 0131;
},
{
glyphname = Lslash;
layers = (
{
layerId = "480801EC-13EF-4D5E-B695-C7354D4C452E";
name = Regular;
paths = (
{
closed = 1;
nodes = (
"226.962 464.923 LINE",
"374.938 570.905 LINE",
"374.938 0 LINE",
"1304.78 0 LINE",
"1304.78 169.972 LINE",
"577.904 169.972 LINE",
"577.904 710.882 LINE",
"970.838 984.836 LINE",
"890.852 1095.82 LINE",
"577.904 876.854 LINE",
"577.904 1492.75 LINE",
"374.938 1492.75 LINE",
"374.938 732.878 LINE",
"149.975 574.904 LINE"
);
}
);
width = 1454;
}
);
unicode = 0141;
},
{
glyphname = lslash;
layers = (
{
layerId = "480801EC-13EF-4D5E-B695-C7354D4C452E";
name = Regular;
paths = (
{
closed = 1;
nodes = (
"93.9844 577.904 LINE",
"216.964 665.889 LINE",
"216.964 0 LINE",
"400.933 0 LINE",
"400.933 796.867 LINE",
"601.9 937.844 LINE",
"525.912 1043.83 LINE",
"400.933 953.841 LINE",
"400.933 1555.74 LINE",
"216.964 1555.74 LINE",
"216.964 824.863 LINE",
"19.9967 683.886 LINE"
);
}
);
width = 617;
}
);
unicode = 0142;
},
{
glyphname = OE;
layers = (
{
layerId = "480801EC-13EF-4D5E-B695-C7354D4C452E";
name = Regular;
paths = (
{
closed = 1;
nodes = (
"496.917 1492.75 OFFCURVE",
"193.968 1234.79 OFFCURVE",
"193.968 747.876 CURVE SMOOTH",
"193.968 256.957 OFFCURVE",
"496.917 0 OFFCURVE",
"1073.82 0 CURVE SMOOTH",
"2138.64 0 LINE",
"2138.64 279.953 LINE",
"1378.77 279.953 LINE",
"1378.77 780.87 LINE",
"2109.65 780.87 LINE",
"2109.65 950.842 LINE",
"1378.77 950.842 LINE",
"1378.77 1362.77 LINE",
"2120.65 1362.77 LINE",
"2120.65 1492.75 LINE",
"1073.82 1492.75 LINE SMOOTH"
);
},
{
closed = 1;
nodes = (
"619.897 279.953 OFFCURVE",
"406.932 508.915 OFFCURVE",
"406.932 747.876 CURVE SMOOTH",
"406.932 1184.8 OFFCURVE",
"619.897 1362.77 OFFCURVE",
"1047.83 1362.77 CURVE SMOOTH",
"1176.8 1362.77 LINE",
"1176.8 279.953 LINE",
"1047.83 279.953 LINE SMOOTH"
);
}
);
width = 2333;
}
);
unicode = 0152;
},
{
glyphname = oe;
layers = (
{
layerId = "480801EC-13EF-4D5E-B695-C7354D4C452E";
name = Regular;
paths = (
{
closed = 1;
nodes = (
"1272.79 889.852 OFFCURVE",
"1401.77 1040.83 OFFCURVE",
"1605.73 1040.83 CURVE SMOOTH",
"1788.7 1040.83 OFFCURVE",
"1905.68 882.853 OFFCURVE",
"1908.68 799.867 CURVE",
"1253.79 798.867 LINE"
);
},
{
closed = 1;
nodes = (
"2093.65 888.852 OFFCURVE",
"1904.68 1146.81 OFFCURVE",
"1603.73 1146.81 CURVE SMOOTH",
"1412.76 1146.81 OFFCURVE",
"1254.79 1070.82 OFFCURVE",
"1150.81 927.846 CURVE",
"1062.82 1071.82 OFFCURVE",
"920.847 1146.81 OFFCURVE",
"733.878 1146.81 CURVE SMOOTH",
"412.931 1146.81 OFFCURVE",
"219.963 926.846 OFFCURVE",
"219.963 558.907 CURVE SMOOTH",
"219.963 191.968 OFFCURVE",
"412.931 -29 OFFCURVE",
"733.878 -29 CURVE SMOOTH",
"920.847 -29 OFFCURVE",
"1058.82 42.9928 OFFCURVE",
"1153.81 189.968 CURVE",
"1261.79 44.9925 OFFCURVE",
"1423.76 -29 OFFCURVE",
"1636.73 -29 CURVE SMOOTH",
"1777.7 -29 OFFCURVE",
"1917.68 0.999834 OFFCURVE",
"2050.66 56.9905 CURVE",
"2050.66 290.952 LINE",
"1919.68 221.963 OFFCURVE",
"1787.7 186.969 OFFCURVE",
"1646.73 186.969 CURVE SMOOTH",
"1402.77 186.969 OFFCURVE",
"1263.79 212.965 OFFCURVE",
"1247.79 665.889 CURVE",
"2093.65 665.889 LINE",
"2093.65 755.874 LINE SMOOTH"
);
},
{
closed = 1;
nodes = (
"929.845 1020.83 OFFCURVE",
"1052.82 866.856 OFFCURVE",
"1052.82 622.896 CURVE SMOOTH",
"1052.82 377.937 OFFCURVE",
"929.845 224.963 OFFCURVE",
"733.878 224.963 CURVE SMOOTH",
"534.911 224.963 OFFCURVE",
"413.931 375.937 OFFCURVE",
"413.931 622.896 CURVE SMOOTH",
"413.931 869.855 OFFCURVE",
"536.911 1020.83 OFFCURVE",
"733.878 1020.83 CURVE SMOOTH"
);
}
);
width = 2305;
}
);
unicode = 0153;
},
{
glyphname = Scedilla;
layers = (
{
layerId = "480801EC-13EF-4D5E-B695-C7354D4C452E";
name = Regular;
paths = (
{
closed = 1;
nodes = (
"958.84 1494.75 OFFCURVE",
"813.865 1519.75 OFFCURVE",
"673.888 1519.75 CURVE SMOOTH",
"346.942 1519.75 OFFCURVE",
"149.975 1357.77 OFFCURVE",
"149.975 1093.82 CURVE SMOOTH",
"149.975 865.856 OFFCURVE",
"276.954 745.876 OFFCURVE",
"577.904 685.886 CURVE SMOOTH",
"700.883 661.89 LINE SMOOTH",
"905.849 620.897 OFFCURVE",
"989.835 526.912 OFFCURVE",
"989.835 446.926 CURVE SMOOTH",
"989.835 358.94 OFFCURVE",
"859.857 244.959 OFFCURVE",
"628.895 244.959 CURVE SMOOTH",
"476.921 244.959 OFFCURVE",
"319.947 291.951 OFFCURVE",
"155.974 383.936 CURVE",
"155.974 65.989 LINE",
"326.946 2.9995 OFFCURVE",
"487.919 -29 OFFCURVE",
"628.895 -29 CURVE SMOOTH",
"1003.83 -29 OFFCURVE",
"1200.8 122.98 OFFCURVE",
"1200.8 411.931 CURVE SMOOTH",
"1200.8 654.891 OFFCURVE",
"1060.82 796.867 OFFCURVE",
"759.874 853.858 CURVE SMOOTH",
"637.894 878.854 LINE SMOOTH",
"416.931 919.847 OFFCURVE",
"352.941 977.837 OFFCURVE",
"352.941 1109.82 CURVE SMOOTH",
"352.941 1266.79 OFFCURVE",
"476.921 1355.77 OFFCURVE",
"696.884 1355.77 CURVE SMOOTH",
"823.863 1355.77 OFFCURVE",
"957.841 1319.78 OFFCURVE",
"1110.82 1246.79 CURVE",
"1110.82 1443.76 LINE"
);
},
{
closed = 1;
nodes = (
"695.884 -81 OFFCURVE",
"723.88 -138 OFFCURVE",
"723.88 -178 CURVE SMOOTH",
"723.88 -239 OFFCURVE",
"683.886 -272 OFFCURVE",
"604.899 -272 CURVE SMOOTH",
"541.91 -272 OFFCURVE",
"494.918 -263 OFFCURVE",
"449.925 -240 CURVE",
"449.925 -371 LINE",
"506.916 -387 OFFCURVE",
"564.906 -395 OFFCURVE",
"625.896 -395 CURVE SMOOTH",
"782.87 -395 OFFCURVE",
"863.856 -334 OFFCURVE",
"863.856 -215 CURVE SMOOTH",
"863.856 -151 OFFCURVE",
"827.862 -83 OFFCURVE",
"754.874 0 CURVE",
"635.894 0 LINE"
);
}
);
width = 1350;
}
);
unicode = 015E;
},
{
glyphname = scedilla;
layers = (
{
layerId = "480801EC-13EF-4D5E-B695-C7354D4C452E";
name = Regular;
paths = (
{
closed = 1;
nodes = (
"844.859 1126.81 OFFCURVE",
"723.88 1146.81 OFFCURVE",
"587.902 1146.81 CURVE SMOOTH",
"312.948 1146.81 OFFCURVE",
"157.974 1027.83 OFFCURVE",
"157.974 816.864 CURVE SMOOTH",
"157.974 643.893 OFFCURVE",
"252.958 569.905 OFFCURVE",
"480.92 521.913 CURVE SMOOTH",
"544.909 506.916 LINE SMOOTH",
"658.89 481.92 OFFCURVE",
"723.88 460.923 OFFCURVE",
"739.877 442.926 CURVE SMOOTH",
"755.874 423.929 OFFCURVE",
"774.871 394.934 OFFCURVE",
"796.867 354.941 CURVE",
"796.867 258.957 OFFCURVE",
"719.88 204.966 OFFCURVE",
"546.909 204.966 CURVE SMOOTH",
"417.93 204.966 OFFCURVE",
"285.952 239.96 OFFCURVE",
"149.975 310.948 CURVE",
"149.975 40.9932 LINE",
"293.951 -6 OFFCURVE",
"422.93 -29 OFFCURVE",
"542.91 -29 CURVE SMOOTH",
"830.862 -29 OFFCURVE",
"1005.83 100.983 OFFCURVE",
"1005.83 308.949 CURVE SMOOTH",
"1005.83 491.918 OFFCURVE",
"905.849 574.904 OFFCURVE",
"644.893 630.895 CURVE SMOOTH",
"581.903 644.893 LINE SMOOTH",
"384.936 688.885 OFFCURVE",
"325.946 735.878 OFFCURVE",
"325.946 834.861 CURVE SMOOTH",
"325.946 946.842 OFFCURVE",
"426.929 1012.83 OFFCURVE",
"609.898 1012.83 CURVE SMOOTH",
"729.879 1012.83 OFFCURVE",
"841.86 985.836 OFFCURVE",
"945.843 932.845 CURVE",
"945.843 1086.82 LINE"
);
},
{
closed = 1;
nodes = (
"599.9 -81 OFFCURVE",
"627.896 -138 OFFCURVE",
"627.896 -178 CURVE SMOOTH",
"627.896 -239 OFFCURVE",
"587.902 -272 OFFCURVE",
"508.915 -272 CURVE SMOOTH",
"445.926 -272 OFFCURVE",
"398.934 -263 OFFCURVE",
"353.941 -240 CURVE",
"353.941 -371 LINE",
"410.932 -387 OFFCURVE",
"468.922 -395 OFFCURVE",
"529.912 -395 CURVE SMOOTH",
"686.886 -395 OFFCURVE",
"767.872 -334 OFFCURVE",
"767.872 -215 CURVE SMOOTH",
"767.872 -151 OFFCURVE",
"731.878 -83 OFFCURVE",
"658.89 0 CURVE",
"539.91 0 LINE"
);
}
);
width = 1155;
}
);
unicode = 015F;
},
{
glyphname = Scaron;
layers = (
{
layerId = "480801EC-13EF-4D5E-B695-C7354D4C452E";
name = Regular;
paths = (
{
closed = 1;
nodes = (
"958.84 1494.75 OFFCURVE",
"813.865 1519.75 OFFCURVE",
"673.888 1519.75 CURVE SMOOTH",
"346.942 1519.75 OFFCURVE",
"149.975 1357.77 OFFCURVE",
"149.975 1093.82 CURVE SMOOTH",
"149.975 865.856 OFFCURVE",
"276.954 745.876 OFFCURVE",
"577.904 685.886 CURVE SMOOTH",
"700.883 661.89 LINE SMOOTH",
"905.849 620.897 OFFCURVE",
"989.835 526.912 OFFCURVE",
"989.835 446.926 CURVE SMOOTH",
"989.835 358.94 OFFCURVE",
"859.857 244.959 OFFCURVE",
"628.895 244.959 CURVE SMOOTH",
"476.921 244.959 OFFCURVE",
"319.947 291.951 OFFCURVE",
"155.974 383.936 CURVE",
"155.974 65.989 LINE",
"326.946 2.9995 OFFCURVE",
"487.919 -29 OFFCURVE",
"628.895 -29 CURVE SMOOTH",
"1003.83 -29 OFFCURVE",
"1200.8 122.98 OFFCURVE",
"1200.8 411.931 CURVE SMOOTH",
"1200.8 654.891 OFFCURVE",
"1060.82 796.867 OFFCURVE",
"759.874 853.858 CURVE SMOOTH",
"637.894 878.854 LINE SMOOTH",
"416.931 919.847 OFFCURVE",
"352.941 977.837 OFFCURVE",
"352.941 1109.82 CURVE SMOOTH",
"352.941 1266.79 OFFCURVE",
"476.921 1355.77 OFFCURVE",
"696.884 1355.77 CURVE SMOOTH",
"823.863 1355.77 OFFCURVE",
"957.841 1319.78 OFFCURVE",
"1110.82 1246.79 CURVE",
"1110.82 1443.76 LINE"
);
},
{
closed = 1;
nodes = (
"836.861 2010.67 LINE",
"656.891 1765.71 LINE",
"476.921 2010.67 LINE",
"337.944 2010.67 LINE",
"582.903 1634.73 LINE",
"730.878 1634.73 LINE",
"975.838 2010.67 LINE"
);
}
);
width = 1350;
}
);
unicode = 0160;
},
{
glyphname = scaron;
layers = (
{
layerId = "480801EC-13EF-4D5E-B695-C7354D4C452E";
name = Regular;
paths = (
{
closed = 1;
nodes = (
"844.859 1126.81 OFFCURVE",
"723.88 1146.81 OFFCURVE",
"587.902 1146.81 CURVE SMOOTH",
"312.948 1146.81 OFFCURVE",
"157.974 1027.83 OFFCURVE",
"157.974 816.864 CURVE SMOOTH",
"157.974 643.893 OFFCURVE",
"252.958 569.905 OFFCURVE",
"480.92 521.913 CURVE SMOOTH",
"544.909 506.916 LINE SMOOTH",
"658.89 481.92 OFFCURVE",
"723.88 460.923 OFFCURVE",
"739.877 442.926 CURVE SMOOTH",
"755.874 423.929 OFFCURVE",
"774.871 394.934 OFFCURVE",
"796.867 354.941 CURVE",
"796.867 258.957 OFFCURVE",
"719.88 204.966 OFFCURVE",
"546.909 204.966 CURVE SMOOTH",
"417.93 204.966 OFFCURVE",
"285.952 239.96 OFFCURVE",
"149.975 310.948 CURVE",
"149.975 40.9932 LINE",
"293.951 -6 OFFCURVE",
"422.93 -29 OFFCURVE",
"542.91 -29 CURVE SMOOTH",
"830.862 -29 OFFCURVE",
"1005.83 100.983 OFFCURVE",
"1005.83 308.949 CURVE SMOOTH",
"1005.83 491.918 OFFCURVE",
"905.849 574.904 OFFCURVE",
"644.893 630.895 CURVE SMOOTH",
"581.903 644.893 LINE SMOOTH",
"384.936 688.885 OFFCURVE",
"325.946 735.878 OFFCURVE",
"325.946 834.861 CURVE SMOOTH",
"325.946 946.842 OFFCURVE",
"426.929 1012.83 OFFCURVE",
"609.898 1012.83 CURVE SMOOTH",
"729.879 1012.83 OFFCURVE",
"841.86 985.836 OFFCURVE",
"945.843 932.845 CURVE",
"945.843 1086.82 LINE"
);
},
{
closed = 1;
nodes = (
"740.877 1637.73 LINE",
"560.907 1392.77 LINE",
"380.937 1637.73 LINE",
"241.96 1637.73 LINE",
"486.919 1261.79 LINE",
"634.894 1261.79 LINE",
"879.854 1637.73 LINE"
);
}
);
width = 1155;
}
);
unicode = 0161;
},
{
glyphname = Ydieresis;
layers = (
{
layerId = "480801EC-13EF-4D5E-B695-C7354D4C452E";
name = Regular;
paths = (
{
closed = 1;
nodes = (
"740.877 468.922 LINE",
"344.943 1119.81 LINE",
"149.975 1119.81 LINE",
"628.895 92.9845 LINE",
"549.908 -66 LINE",
"481.92 -151 OFFCURVE",
"439.927 -202 OFFCURVE",
"338.944 -202 CURVE SMOOTH",
"210.965 -202 LINE",
"210.965 -446 LINE",
"377.937 -446 LINE SMOOTH",
"542.91 -446 OFFCURVE",
"636.894 -397 OFFCURVE",
"767.872 -104 CURVE",
"1239.79 1119.81 LINE",
"1044.83 1119.81 LINE"
);
},
{
closed = 1;
nodes = (
"924.846 1566.74 LINE",
"706.882 1566.74 LINE",
"706.882 1349.78 LINE",
"924.846 1349.78 LINE"
);
},
{
closed = 1;
nodes = (
"505.916 1566.74 LINE",
"287.952 1566.74 LINE",
"287.952 1349.78 LINE",
"505.916 1349.78 LINE"
);
}
);
width = 1389;
}
);
unicode = 0178;
},
{
glyphname = Ydieresis;
layers = (
{
layerId = "480801EC-13EF-4D5E-B695-C7354D4C452E";
name = Regular;
paths = (
{
closed = 1;
nodes = (
"910.848 0 LINE",
"910.848 510.915 LINE",
"1408.77 1492.75 LINE",
"1191.8 1492.75 LINE",
"780.87 728.879 LINE",
"366.939 1492.75 LINE",
"149.975 1492.75 LINE",
"637.894 510.915 LINE",
"637.894 0 LINE"
);
},
{
closed = 1;
nodes = (
"1095.82 1939.68 LINE",
"877.854 1939.68 LINE",
"877.854 1722.71 LINE",
"1095.82 1722.71 LINE"
);
},
{
closed = 1;
nodes = (
"676.887 1939.68 LINE",
"458.924 1939.68 LINE",
"458.924 1722.71 LINE",
"676.887 1722.71 LINE"
);
}
);
width = 1558;
}
);
unicode = 0178;
},
{
glyphname = Zcaron;
layers = (
{
layerId = "480801EC-13EF-4D5E-B695-C7354D4C452E";
name = Regular;
paths = (
{
closed = 1;
nodes = (
"149.975 283.953 LINE",
"149.975 0 LINE",
"1368.77 0 LINE",
"1368.77 299.95 LINE",
"401.933 299.95 LINE",
"1345.78 1338.78 LINE",
"1345.78 1492.75 LINE",
"172.971 1492.75 LINE",
"172.971 1322.78 LINE",
"1093.82 1322.78 LINE"
);
},
{
closed = 1;
nodes = (
"983.836 2010.67 LINE",
"803.866 1765.71 LINE",
"623.896 2010.67 LINE",
"484.919 2010.67 LINE",
"729.879 1634.73 LINE",
"877.854 1634.73 LINE",
"1122.81 2010.67 LINE"
);
}
);
width = 1518;
}
);
unicode = 017D;
},
{
glyphname = zcaron;
layers = (
{
layerId = "480801EC-13EF-4D5E-B695-C7354D4C452E";
name = Regular;
paths = (
{
closed = 1;
nodes = (
"149.975 267.955 LINE",
"149.975 0 LINE",
"1048.83 0 LINE",
"1048.83 246.959 LINE",
"426.929 246.959 LINE",
"1058.82 951.842 LINE",
"1058.82 1119.81 LINE",
"194.968 1119.81 LINE",
"194.968 982.836 LINE",
"861.857 982.836 LINE"
);
},
{
closed = 1;
nodes = (
"830.862 1637.73 LINE",
"650.892 1392.77 LINE",
"470.922 1637.73 LINE",
"331.945 1637.73 LINE",
"576.904 1261.79 LINE",
"724.879 1261.79 LINE",
"969.839 1637.73 LINE"
);
}
);
width = 1208;
}
);
unicode = 017E;
},
{
glyphname = florin;
layers = (
{
layerId = "480801EC-13EF-4D5E-B695-C7354D4C452E";
name = Regular;
paths = (
{
closed = 1;
nodes = (
"1339.78 1543.74 OFFCURVE",
"1272.79 1555.74 OFFCURVE",
"1201.8 1555.74 CURVE SMOOTH",
"1000.83 1555.74 OFFCURVE",
"864.856 1421.76 OFFCURVE",
"816.864 1177.8 CURVE SMOOTH",
"753.875 847.859 LINE",
"474.921 827.862 LINE",
"474.921 684.886 LINE",
"722.88 704.883 LINE",
"645.893 169.972 LINE",
"600.9 -51 OFFCURVE",
"534.911 -133 OFFCURVE",
"405.932 -133 CURVE SMOOTH",
"342.943 -133 OFFCURVE",
"278.954 -111 OFFCURVE",
"209.965 -67 CURVE",
"149.975 -383 LINE",
"212.965 -412 OFFCURVE",
"277.954 -426 OFFCURVE",
"354.941 -426 CURVE SMOOTH",
"602.9 -426 OFFCURVE",
"758.874 -414 OFFCURVE",
"846.859 219.963 CURVE SMOOTH",
"913.848 704.883 LINE",
"1230.8 724.879 LINE",
"1230.8 867.856 LINE",
"943.843 847.859 LINE",
"1003.83 1178.8 LINE SMOOTH",
"1036.83 1354.77 OFFCURVE",
"1110.82 1432.76 OFFCURVE",
"1238.79 1432.76 CURVE SMOOTH",
"1297.78 1432.76 OFFCURVE",
"1349.78 1414.76 OFFCURVE",
"1400.77 1375.77 CURVE",
"1400.77 1519.75 LINE"
);
}
);
width = 1550;
}
);
unicode = 0192;
},
{
glyphname = circumflex;
layers = (
{
layerId = "480801EC-13EF-4D5E-B695-C7354D4C452E";
name = Regular;
paths = (
{
closed = 1;
nodes = (
"468.922 1506.75 LINE",
"648.892 1261.79 LINE",
"787.869 1261.79 LINE",
"542.91 1637.73 LINE",
"394.934 1637.73 LINE",
"149.975 1261.79 LINE",
"288.952 1261.79 LINE"
);
}
);
width = 937;
}
);
unicode = 02C6;
},
{
glyphname = caron;
layers = (
{
layerId = "480801EC-13EF-4D5E-B695-C7354D4C452E";
name = Regular;
paths = (
{
closed = 1;
nodes = (
"648.892 1637.73 LINE",
"468.922 1392.77 LINE",
"288.952 1637.73 LINE",
"149.975 1637.73 LINE",
"394.934 1261.79 LINE",
"542.91 1261.79 LINE",
"787.869 1637.73 LINE"
);
}
);
width = 937;
}
);
unicode = 02C7;
},
{
glyphname = breve;
layers = (
{
layerId = "480801EC-13EF-4D5E-B695-C7354D4C452E";
name = Regular;
paths = (
{
closed = 1;
nodes = (
"162.973 1416.76 OFFCURVE",
"269.955 1320.78 OFFCURVE",
"462.923 1320.78 CURVE SMOOTH",
"655.891 1320.78 OFFCURVE",
"762.873 1416.76 OFFCURVE",
"775.871 1607.73 CURVE",
"657.891 1607.73 LINE",
"640.893 1506.75 OFFCURVE",
"577.904 1457.76 OFFCURVE",
"462.923 1457.76 CURVE SMOOTH",
"346.942 1457.76 OFFCURVE",
"282.953 1507.75 OFFCURVE",
"267.955 1607.73 CURVE",
"149.975 1607.73 LINE"
);
}
);
width = 925;
}
);
unicode = 02D8;
},
{
glyphname = dotaccent;
layers = (
{
layerId = "480801EC-13EF-4D5E-B695-C7354D4C452E";
name = Regular;
paths = (
{
closed = 1;
nodes = (
"353.941 1551.74 LINE",
"149.975 1551.74 LINE",
"149.975 1347.78 LINE",
"353.941 1347.78 LINE"
);
}
);
width = 503;
}
);
unicode = 02D9;
},
{
glyphname = ring;
layers = (
{
layerId = "480801EC-13EF-4D5E-B695-C7354D4C452E";
name = Regular;
paths = (
{
closed = 1;
nodes = (
"575.904 1438.76 OFFCURVE",
"508.915 1371.77 OFFCURVE",
"423.929 1371.77 CURVE SMOOTH",
"336.944 1371.77 OFFCURVE",
"271.955 1436.76 OFFCURVE",
"271.955 1523.75 CURVE SMOOTH",
"271.955 1608.73 OFFCURVE",
"336.944 1674.72 OFFCURVE",
"423.929 1674.72 CURVE SMOOTH",
"508.915 1674.72 OFFCURVE",
"575.904 1607.73 OFFCURVE",
"575.904 1523.75 CURVE SMOOTH"
);
},
{
closed = 1;
nodes = (
"697.884 1676.72 OFFCURVE",
"576.904 1797.7 OFFCURVE",
"423.929 1797.7 CURVE SMOOTH",
"270.955 1797.7 OFFCURVE",
"149.975 1676.72 OFFCURVE",
"149.975 1523.75 CURVE SMOOTH",
"149.975 1370.77 OFFCURVE",
"270.955 1248.79 OFFCURVE",
"423.929 1248.79 CURVE SMOOTH",
"576.904 1248.79 OFFCURVE",
"697.884 1370.77 OFFCURVE",
"697.884 1523.75 CURVE SMOOTH"
);
}
);
width = 847;
}
);
unicode = 02DA;
},
{
glyphname = ogonek;
layers = (
{
layerId = "480801EC-13EF-4D5E-B695-C7354D4C452E";
name = Regular;
paths = (
{
closed = 1;
nodes = (
"184.969 -83 OFFCURVE",
"149.975 -151 OFFCURVE",
"149.975 -215 CURVE SMOOTH",
"149.975 -339 OFFCURVE",
"223.963 -395 OFFCURVE",
"386.936 -395 CURVE SMOOTH",
"426.929 -395 OFFCURVE",
"471.921 -388 OFFCURVE",
"522.913 -375 CURVE",
"522.913 -242 LINE",
"481.92 -262 OFFCURVE",
"440.927 -272 OFFCURVE",
"397.934 -272 CURVE SMOOTH",
"325.946 -272 OFFCURVE",
"288.952 -241 OFFCURVE",
"288.952 -180 CURVE SMOOTH",
"288.952 -139 OFFCURVE",
"316.947 -81 OFFCURVE",
"376.937 0 CURVE",
"257.957 0 LINE"
);
}
);
width = 672;
}
);
unicode = 02DB;
},
{
glyphname = tilde;
layers = (
{
layerId = "480801EC-13EF-4D5E-B695-C7354D4C452E";
name = Regular;
paths = (
{
closed = 1;
nodes = (
"524.913 1325.78 OFFCURVE",
"563.906 1308.78 OFFCURVE",
"614.898 1308.78 CURVE SMOOTH",
"735.878 1308.78 OFFCURVE",
"806.866 1410.77 OFFCURVE",
"809.865 1590.74 CURVE",
"684.886 1590.74 LINE",
"683.886 1535.74 OFFCURVE",
"676.887 1496.75 OFFCURVE",
"664.889 1472.75 CURVE SMOOTH",
"652.891 1447.76 OFFCURVE",
"633.894 1435.76 OFFCURVE",
"608.899 1435.76 CURVE SMOOTH",
"591.901 1435.76 OFFCURVE",
"569.905 1447.76 OFFCURVE",
"540.91 1474.75 CURVE SMOOTH",
"483.919 1529.75 LINE",
"434.928 1573.74 OFFCURVE",
"395.934 1590.74 OFFCURVE",
"344.943 1590.74 CURVE SMOOTH",
"223.963 1590.74 OFFCURVE",
"152.975 1488.75 OFFCURVE",
"149.975 1308.78 CURVE",
"274.954 1308.78 LINE",
"275.954 1363.77 OFFCURVE",
"282.953 1402.77 OFFCURVE",
"294.951 1427.76 CURVE SMOOTH",
"306.949 1451.76 OFFCURVE",
"325.946 1463.76 OFFCURVE",
"350.942 1463.76 CURVE SMOOTH",
"367.939 1463.76 OFFCURVE",
"389.935 1451.76 OFFCURVE",
"418.93 1424.76 CURVE SMOOTH",
"475.921 1369.77 LINE"
);
}
);
width = 959;
}
);
unicode = 02DC;
},
{
glyphname = hungarumlaut;
layers = (
{
layerId = "480801EC-13EF-4D5E-B695-C7354D4C452E";
name = Regular;
paths = (
{
closed = 1;
nodes = (
"851.858 1637.73 LINE",
"673.888 1637.73 LINE",
"468.922 1261.79 LINE",
"603.899 1261.79 LINE"
);
},
{
closed = 1;
nodes = (
"509.915 1637.73 LINE",
"339.943 1637.73 LINE",
"149.975 1261.79 LINE",
"286.952 1261.79 LINE"
);
}
);
width = 1001;
}
);
unicode = 02DD;
},
{
glyphname = pi;
layers = (
{
layerId = "480801EC-13EF-4D5E-B695-C7354D4C452E";
name = Regular;
paths = (
{
closed = 1;
nodes = (
"265.956 1070.82 OFFCURVE",
"186.969 1000.83 OFFCURVE",
"149.975 779.87 CURVE",
"309.948 779.87 LINE",
"321.946 884.853 OFFCURVE",
"360.94 922.846 OFFCURVE",
"432.928 922.846 CURVE SMOOTH",
"473.921 922.846 LINE",
"198.967 0 LINE",
"489.918 0 LINE",
"653.891 922.846 LINE",
"979.837 922.846 LINE",
"869.855 536.911 LINE",
"833.861 429.928 OFFCURVE",
"812.865 351.941 OFFCURVE",
"805.866 303.949 CURVE SMOOTH",
"798.867 255.957 OFFCURVE",
"794.868 216.964 OFFCURVE",
"794.868 185.969 CURVE SMOOTH",
"794.868 52.9912 OFFCURVE",
"926.846 -86 OFFCURVE",
"1083.82 -86 CURVE SMOOTH",
"1118.81 -86 OFFCURVE",
"1154.81 -81 OFFCURVE",
"1194.8 -70 CURVE",
"1224.8 140.977 LINE",
"1175.8 133.978 OFFCURVE",
"1147.81 130.978 OFFCURVE",
"1124.81 130.978 CURVE SMOOTH",
"1051.82 130.978 OFFCURVE",
"1022.83 160.973 OFFCURVE",
"1022.83 237.96 CURVE SMOOTH",
"1022.83 252.958 OFFCURVE",
"1025.83 274.954 OFFCURVE",
"1030.83 305.949 CURVE SMOOTH",
"1035.83 336.944 OFFCURVE",
"1042.83 376.937 OFFCURVE",
"1052.82 425.929 CURVE SMOOTH",
"1157.81 922.846 LINE",
"1339.78 922.846 LINE",
"1374.77 1070.82 LINE",
"485.919 1070.82 LINE SMOOTH"
);
}
);
width = 1524;
}
);
unicode = 03C0;
},
{
glyphname = endash;
layers = (
{
layerId = "480801EC-13EF-4D5E-B695-C7354D4C452E";
name = Regular;
paths = (
{
closed = 1;
nodes = (
"1173.8 632.895 LINE",
"149.975 632.895 LINE",
"149.975 488.919 LINE",
"1173.8 488.919 LINE"
);
}
);
width = 1323;
}
);
unicode = 2013;
},
{
glyphname = emdash;
layers = (
{
layerId = "480801EC-13EF-4D5E-B695-C7354D4C452E";
name = Regular;
paths = (
{
closed = 1;
nodes = (
"2197.63 632.895 LINE",
"149.975 632.895 LINE",
"149.975 488.919 LINE",
"2197.63 488.919 LINE"
);
}
);
width = 2347;
}
);
unicode = 2014;
},
{
glyphname = quoteleft;
layers = (
{
layerId = "480801EC-13EF-4D5E-B695-C7354D4C452E";
name = Regular;
paths = (
{
closed = 1;
nodes = (
"628.895 1343.78 LINE",
"346.942 1717.71 LINE",
"149.975 1717.71 LINE",
"355.941 1343.78 LINE"
);
}
);
width = 778;
}
);
unicode = 2018;
},
{
glyphname = quoteleft;
layers = (
{
layerId = "480801EC-13EF-4D5E-B695-C7354D4C452E";
name = Regular;
paths = (
{
closed = 1;
nodes = (
"350.942 1518.75 LINE",
"149.975 1125.81 LINE",
"149.975 913.848 LINE",
"409.932 913.848 LINE",
"409.932 1125.81 LINE",
"509.915 1518.75 LINE"
);
}
);
width = 617;
}
);
unicode = 2018;
},
{
glyphname = quoteright;
layers = (
{
layerId = "480801EC-13EF-4D5E-B695-C7354D4C452E";
name = Regular;
paths = (
{
closed = 1;
nodes = (
"319.947 937.844 LINE",
"319.947 1492.75 LINE",
"149.975 1492.75 LINE",
"149.975 937.844 LINE"
);
}
);
width = 469;
}
);
unicode = 2019;
},
{
glyphname = quoteright;
layers = (
{
layerId = "480801EC-13EF-4D5E-B695-C7354D4C452E";
name = Regular;
paths = (
{
closed = 1;
nodes = (
"305.949 938.844 LINE",
"504.916 1324.78 LINE",
"504.916 1509.75 LINE",
"248.959 1509.75 LINE",
"248.959 1324.78 LINE",
"149.975 938.844 LINE"
);
}
);
width = 588;
}
);
unicode = 2019;
},
{
glyphname = quotesinglbase;
layers = (
{
layerId = "480801EC-13EF-4D5E-B695-C7354D4C452E";
name = Regular;
paths = (
{
closed = 1;
nodes = (
"278.954 -238 LINE",
"442.926 81.9864 LINE",
"442.926 253.958 LINE",
"231.961 253.958 LINE",
"231.961 81.9864 LINE",
"149.975 -238 LINE"
);
}
);
width = 592;
}
);
unicode = 201A;
},
{
glyphname = quotedblleft;
layers = (
{
layerId = "480801EC-13EF-4D5E-B695-C7354D4C452E";
name = Regular;
paths = (
{
closed = 1;
nodes = (
"353.941 1492.75 LINE",
"149.975 1095.82 LINE",
"149.975 880.853 LINE",
"411.931 880.853 LINE",
"411.931 1095.82 LINE",
"513.914 1492.75 LINE"
);
},
{
closed = 1;
nodes = (
"863.856 1492.75 LINE",
"659.89 1095.82 LINE",
"659.89 880.853 LINE",
"921.847 880.853 LINE",
"921.847 1095.82 LINE",
"1023.83 1492.75 LINE"
);
}
);
width = 1173;
}
);
unicode = 201C;
},
{
glyphname = quotedblright;
layers = (
{
layerId = "480801EC-13EF-4D5E-B695-C7354D4C452E";
name = Regular;
paths = (
{
closed = 1;
nodes = (
"299.95 920.847 LINE",
"490.918 1292.78 LINE",
"490.918 1492.75 LINE",
"244.959 1492.75 LINE",
"244.959 1292.78 LINE",
"149.975 920.847 LINE"
);
},
{
closed = 1;
nodes = (
"775.871 920.847 LINE",
"966.839 1292.78 LINE",
"966.839 1492.75 LINE",
"721.88 1492.75 LINE",
"721.88 1292.78 LINE",
"625.896 920.847 LINE"
);
}
);
width = 1116;
}
);
unicode = 201D;
},
{
glyphname = quotedblbase;
layers = (
{
layerId = "480801EC-13EF-4D5E-B695-C7354D4C452E";
name = Regular;
paths = (
{
closed = 1;
nodes = (
"826.862 -238 LINE",
"1032.83 163.973 LINE",
"1032.83 379.937 LINE",
"767.872 379.937 LINE",
"767.872 163.973 LINE",
"664.889 -238 LINE"
);
},
{
closed = 1;
nodes = (
"311.948 -238 LINE",
"517.914 163.973 LINE",
"517.914 379.937 LINE",
"252.958 379.937 LINE",
"252.958 163.973 LINE",
"149.975 -238 LINE"
);
}
);
width = 1182;
}
);
unicode = 201E;
},
{
glyphname = dagger;
layers = (
{
layerId = "480801EC-13EF-4D5E-B695-C7354D4C452E";
name = Regular;
paths = (
{
closed = 1;
nodes = (
"149.975 919.847 LINE",
"516.914 919.847 LINE",
"516.914 -197 LINE",
"692.885 -197 LINE",
"692.885 919.847 LINE",
"1059.82 919.847 LINE",
"1059.82 1072.82 LINE",
"692.885 1072.82 LINE",
"692.885 1492.75 LINE",
"516.914 1492.75 LINE",
"516.914 1072.82 LINE",
"149.975 1072.82 LINE"
);
}
);
width = 1209;
}
);
unicode = 2020;
},
{
glyphname = daggerdbl;
layers = (
{
layerId = "480801EC-13EF-4D5E-B695-C7354D4C452E";
name = Regular;
paths = (
{
closed = 1;
nodes = (
"692.885 919.847 LINE",
"1059.82 919.847 LINE",
"1059.82 1072.82 LINE",
"692.885 1072.82 LINE",
"692.885 1492.75 LINE",
"516.914 1492.75 LINE",
"516.914 1072.82 LINE",
"149.975 1072.82 LINE",
"149.975 919.847 LINE",
"516.914 919.847 LINE",
"496.917 376.937 LINE",
"149.975 376.937 LINE",
"149.975 152.975 LINE",
"476.921 152.975 LINE",
"456.924 -197 LINE",
"752.875 -197 LINE",
"732.878 152.975 LINE",
"1059.82 152.975 LINE",
"1059.82 376.937 LINE",
"712.881 376.937 LINE"
);
}
);
width = 1209;
}
);
unicode = 2021;
},
{
glyphname = bullet;
layers = (
{
layerId = "480801EC-13EF-4D5E-B695-C7354D4C452E";
name = Regular;
paths = (
{
closed = 1;
nodes = (
"149.975 594.901 OFFCURVE",
"279.953 464.923 OFFCURVE",
"446.926 464.923 CURVE SMOOTH",
"613.898 464.923 OFFCURVE",
"743.876 594.901 OFFCURVE",
"743.876 761.873 CURVE SMOOTH",
"743.876 926.846 OFFCURVE",
"613.898 1056.82 OFFCURVE",
"448.925 1056.82 CURVE SMOOTH",
"280.953 1056.82 OFFCURVE",
"149.975 926.846 OFFCURVE",
"149.975 761.873 CURVE SMOOTH"
);
}
);
width = 893;
}
);
unicode = 2022;
},
{
glyphname = ellipsis;
layers = (
{
layerId = "480801EC-13EF-4D5E-B695-C7354D4C452E";
name = Regular;
paths = (
{
closed = 1;
nodes = (
"1153.81 363.939 LINE",
"831.862 363.939 LINE",
"831.862 0 LINE",
"1153.81 0 LINE"
);
},
{
closed = 1;
nodes = (
"1835.69 363.939 LINE",
"1512.75 363.939 LINE",
"1512.75 0 LINE",
"1835.69 0 LINE"
);
},
{
closed = 1;
nodes = (
"472.921 363.939 LINE",
"149.975 363.939 LINE",
"149.975 0 LINE",
"472.921 0 LINE"
);
}
);
width = 1985;
}
);
unicode = 2026;
},
{
glyphname = perthousand;
layers = (
{
layerId = "480801EC-13EF-4D5E-B695-C7354D4C452E";
name = Regular;
paths = (
{
closed = 1;
nodes = (
"2441.59 656.891 OFFCURVE",
"2512.58 580.903 OFFCURVE",
"2512.58 456.924 CURVE SMOOTH",
"2512.58 332.945 OFFCURVE",
"2441.59 256.957 OFFCURVE",
"2328.61 256.957 CURVE SMOOTH",
"2212.63 256.957 OFFCURVE",
"2141.64 332.945 OFFCURVE",
"2141.64 456.924 CURVE SMOOTH",
"2141.64 581.903 OFFCURVE",
"2212.63 656.891 OFFCURVE",
"2328.61 656.891 CURVE SMOOTH"
);
},
{
closed = 1;
nodes = (
"2116.65 783.87 OFFCURVE",
"1982.67 627.896 OFFCURVE",
"1982.67 376.937 CURVE SMOOTH",
"1982.67 127.979 OFFCURVE",
"2115.65 -29 OFFCURVE",
"2328.61 -29 CURVE SMOOTH",
"2537.58 -29 OFFCURVE",
"2672.56 127.979 OFFCURVE",
"2672.56 376.937 CURVE SMOOTH",
"2672.56 625.896 OFFCURVE",
"2539.58 783.87 OFFCURVE",
"2328.61 783.87 CURVE SMOOTH"
);
},
{
closed = 1;
nodes = (
"282.953 1519.75 OFFCURVE",
"149.975 1361.77 OFFCURVE",
"149.975 1113.81 CURVE SMOOTH",
"149.975 862.856 OFFCURVE",
"281.953 706.882 OFFCURVE",
"493.918 706.882 CURVE SMOOTH",
"705.883 706.882 OFFCURVE",
"839.86 861.857 OFFCURVE",
"839.86 1113.81 CURVE SMOOTH",
"839.86 1362.77 OFFCURVE",
"704.883 1519.75 OFFCURVE",
"493.918 1519.75 CURVE SMOOTH"
);
},
{
closed = 1;
nodes = (
"1556.74 1519.75 LINE",
"1396.77 1519.75 LINE",
"392.935 -29 LINE",
"622.896 -29 LINE"
);
},
{
closed = 1;
nodes = (
"608.899 1392.77 OFFCURVE",
"679.887 1309.78 OFFCURVE",
"679.887 1174.8 CURVE SMOOTH",
"679.887 1037.83 OFFCURVE",
"609.898 956.841 OFFCURVE",
"493.918 956.841 CURVE SMOOTH",
"377.937 956.841 OFFCURVE",
"308.949 1037.83 OFFCURVE",
"308.949 1174.8 CURVE SMOOTH",
"308.949 1310.78 OFFCURVE",
"378.937 1392.77 OFFCURVE",
"493.918 1392.77 CURVE SMOOTH"
);
},
{
closed = 1;
nodes = (
"1313.78 783.87 OFFCURVE",
"1179.8 627.896 OFFCURVE",
"1179.8 376.937 CURVE SMOOTH",
"1179.8 127.979 OFFCURVE",
"1312.78 -29 OFFCURVE",
"1525.75 -29 CURVE SMOOTH",
"1734.71 -29 OFFCURVE",
"1869.69 127.979 OFFCURVE",
"1869.69 376.937 CURVE SMOOTH",
"1869.69 625.896 OFFCURVE",
"1736.71 783.87 OFFCURVE",
"1525.75 783.87 CURVE SMOOTH"
);
},
{
closed = 1;
nodes = (
"1638.73 656.891 OFFCURVE",
"1709.72 580.903 OFFCURVE",
"1709.72 456.924 CURVE SMOOTH",
"1709.72 332.945 OFFCURVE",
"1638.73 256.957 OFFCURVE",
"1525.75 256.957 CURVE SMOOTH",
"1409.77 256.957 OFFCURVE",
"1339.78 332.945 OFFCURVE",
"1339.78 456.924 CURVE SMOOTH",
"1339.78 581.903 OFFCURVE",
"1409.77 656.891 OFFCURVE",
"1525.75 656.891 CURVE SMOOTH"
);
}
);
width = 2822;
}
);
unicode = 2030;
},
{
glyphname = guilsinglleft;
layers = (
{
layerId = "480801EC-13EF-4D5E-B695-C7354D4C452E";
name = Regular;
paths = (
{
closed = 1;
nodes = (
"618.897 140.977 LINE",
"618.897 331.945 LINE",
"317.947 599.9 LINE",
"618.897 867.856 LINE",
"618.897 1058.82 LINE",
"149.975 640.893 LINE",
"149.975 558.907 LINE"
);
}
);
width = 768;
}
);
unicode = 2039;
},
{
glyphname = guilsinglright;
layers = (
{
layerId = "480801EC-13EF-4D5E-B695-C7354D4C452E";
name = Regular;
paths = (
{
closed = 1;
nodes = (
"149.975 331.945 LINE",
"149.975 140.977 LINE",
"618.897 558.907 LINE",
"618.897 640.893 LINE",
"149.975 1058.82 LINE",
"149.975 867.856 LINE",
"450.925 599.9 LINE"
);
}
);
width = 768;
}
);
unicode = 203A;
},
{
glyphname = fraction;
layers = (
{
layerId = "480801EC-13EF-4D5E-B695-C7354D4C452E";
name = Regular;
paths = (
{
closed = 1;
nodes = (
"1241.79 1519.75 LINE",
"1081.82 1519.75 LINE",
"149.975 -29 LINE",
"309.948 -29 LINE"
);
}
);
width = 1391;
}
);
unicode = 2044;
},
{
glyphname = Euro;
layers = (
{
layerId = "480801EC-13EF-4D5E-B695-C7354D4C452E";
name = Regular;
paths = (
{
closed = 1;
nodes = (
"1200.8 1472.75 OFFCURVE",
"1077.82 1519.75 OFFCURVE",
"946.842 1519.75 CURVE SMOOTH",
"631.895 1519.75 OFFCURVE",
"413.931 1315.78 OFFCURVE",
"360.94 972.838 CURVE",
"204.966 972.838 LINE",
"149.975 849.859 LINE",
"343.943 849.859 LINE",
"343.943 834.861 OFFCURVE",
"343.943 818.864 OFFCURVE",
"343.943 803.866 CURVE",
"342.943 787.869 OFFCURVE",
"342.943 767.872 OFFCURVE",
"342.943 744.876 CURVE SMOOTH",
"342.943 723.88 OFFCURVE",
"342.943 704.883 OFFCURVE",
"342.943 689.885 CURVE SMOOTH",
"342.943 673.888 OFFCURVE",
"342.943 657.891 OFFCURVE",
"342.943 642.893 CURVE",
"203.966 642.893 LINE",
"148.975 479.92 LINE",
"369.938 479.92 LINE",
"409.932 187.969 OFFCURVE",
"629.895 -29 OFFCURVE",
"945.843 -29 CURVE SMOOTH",
"1073.82 -29 OFFCURVE",
"1196.8 18.9968 OFFCURVE",
"1315.78 114.981 CURVE",
"1315.78 415.931 LINE",
"1180.8 275.954 OFFCURVE",
"1079.82 220.963 OFFCURVE",
"943.843 220.963 CURVE SMOOTH",
"734.878 220.963 OFFCURVE",
"588.902 403.933 OFFCURVE",
"572.905 479.92 CURVE",
"936.844 479.92 LINE",
"992.835 642.893 LINE",
"546.909 642.893 LINE",
"543.909 674.888 OFFCURVE",
"543.909 701.883 OFFCURVE",
"543.909 744.876 CURVE SMOOTH",
"543.909 791.868 OFFCURVE",
"543.909 817.864 OFFCURVE",
"543.909 849.859 CURVE",
"1081.82 849.859 LINE",
"1136.81 972.838 LINE",
"559.907 972.838 LINE",
"602.9 1221.8 OFFCURVE",
"741.877 1409.77 OFFCURVE",
"950.842 1409.77 CURVE SMOOTH",
"1086.82 1409.77 OFFCURVE",
"1191.8 1354.77 OFFCURVE",
"1312.78 1214.8 CURVE",
"1316.78 1377.77 LINE"
);
}
);
width = 1466;
}
);
unicode = 20AC;
},
{
glyphname = trademark;
layers = (
{
layerId = "480801EC-13EF-4D5E-B695-C7354D4C452E";
name = Regular;
paths = (
{
closed = 1;
nodes = (
"924.846 914.848 LINE",
"894.851 1398.77 LINE",
"1077.82 965.839 LINE",
"1172.8 965.839 LINE",
"1347.78 1398.77 LINE",
"1317.78 914.848 LINE",
"1490.75 914.848 LINE",
"1470.76 1492.75 LINE",
"1300.78 1492.75 LINE",
"1126.81 1166.81 LINE",
"962.84 1492.75 LINE",
"790.868 1492.75 LINE",
"750.875 914.848 LINE"
);
},
{
closed = 1;
nodes = (
"350.942 1398.77 LINE",
"320.947 914.848 LINE",
"494.918 914.848 LINE",
"464.923 1398.77 LINE",
"667.889 1398.77 LINE",
"667.889 1492.75 LINE",
"149.975 1492.75 LINE",
"149.975 1398.77 LINE"
);
}
);
width = 1640;
}
);
unicode = 2122;
},
{
glyphname = Ohm;
layers = (
{
layerId = "480801EC-13EF-4D5E-B695-C7354D4C452E";
name = Regular;
paths = (
{
closed = 1;
nodes = (
"1453.76 425.929 OFFCURVE",
"1541.74 549.908 OFFCURVE",
"1541.74 808.865 CURVE SMOOTH",
"1541.74 1220.8 OFFCURVE",
"1257.79 1510.75 OFFCURVE",
"853.858 1510.75 CURVE SMOOTH",
"446.926 1510.75 OFFCURVE",
"165.972 1222.8 OFFCURVE",
"165.972 798.867 CURVE SMOOTH",
"165.972 553.908 OFFCURVE",
"257.957 422.93 OFFCURVE",
"468.922 237.96 CURVE",
"149.975 237.96 LINE",
"149.975 0 LINE",
"749.875 0 LINE",
"749.875 237.96 LINE",
"512.915 313.948 OFFCURVE",
"372.938 539.91 OFFCURVE",
"372.938 808.865 CURVE SMOOTH",
"372.938 1193.8 OFFCURVE",
"565.906 1388.77 OFFCURVE",
"853.858 1388.77 CURVE SMOOTH",
"1141.81 1388.77 OFFCURVE",
"1333.78 1195.8 OFFCURVE",
"1333.78 808.865 CURVE SMOOTH",
"1333.78 539.91 OFFCURVE",
"1194.8 313.948 OFFCURVE",
"958.84 237.96 CURVE",
"958.84 0 LINE",
"1558.74 0 LINE",
"1558.74 237.96 LINE",
"1238.79 237.96 LINE"
);
}
);
width = 1708;
}
);
unicode = 2126;
},
{
glyphname = partialdiff;
layers = (
{
layerId = "480801EC-13EF-4D5E-B695-C7354D4C452E";
name = Regular;
paths = (
{
closed = 1;
nodes = (
"750.875 749.875 OFFCURVE",
"667.889 808.865 OFFCURVE",
"532.911 808.865 CURVE SMOOTH",
"316.947 808.865 OFFCURVE",
"149.975 617.897 OFFCURVE",
"149.975 353.941 CURVE SMOOTH",
"149.975 136.977 OFFCURVE",
"301.95 -25 OFFCURVE",
"504.916 -25 CURVE SMOOTH",
"788.869 -25 OFFCURVE",
"1006.83 304.949 OFFCURVE",
"1006.83 751.875 CURVE SMOOTH",
"1006.83 1102.82 OFFCURVE",
"852.858 1324.78 OFFCURVE",
"612.898 1324.78 CURVE SMOOTH",
"477.92 1324.78 OFFCURVE",
"367.939 1247.79 OFFCURVE",
"367.939 1164.81 CURVE SMOOTH",
"367.939 1123.81 OFFCURVE",
"383.936 1119.81 OFFCURVE",
"431.928 1119.81 CURVE SMOOTH",
"455.924 1119.81 OFFCURVE",
"473.921 1132.81 OFFCURVE",
"484.919 1157.81 CURVE SMOOTH",
"495.917 1182.8 OFFCURVE",
"563.906 1198.8 OFFCURVE",
"686.886 1205.8 CURVE",
"782.87 1205.8 OFFCURVE",
"831.862 1117.81 OFFCURVE",
"831.862 945.843 CURVE SMOOTH",
"831.862 845.859 OFFCURVE",
"821.863 736.877 OFFCURVE",
"801.867 620.897 CURVE"
);
},
{
closed = 1;
nodes = (
"713.881 305.949 OFFCURVE",
"597.901 140.977 OFFCURVE",
"437.927 140.977 CURVE SMOOTH",
"318.947 140.977 OFFCURVE",
"253.958 212.965 OFFCURVE",
"253.958 345.942 CURVE SMOOTH",
"253.958 581.903 OFFCURVE",
"369.938 743.876 OFFCURVE",
"529.912 743.876 CURVE SMOOTH",
"646.892 743.876 OFFCURVE",
"713.881 669.888 OFFCURVE",
"713.881 537.91 CURVE SMOOTH"
);
}
);
width = 1156;
}
);
unicode = 2202;
},
{
glyphname = Delta;
layers = (
{
layerId = "480801EC-13EF-4D5E-B695-C7354D4C452E";
name = Regular;
paths = (
{
closed = 1;
nodes = (
"839.86 1381.77 LINE",
"1257.79 297.95 LINE",
"421.93 297.95 LINE"
);
},
{
closed = 1;
nodes = (
"952.841 1472.75 LINE",
"728.879 1472.75 LINE",
"149.975 0 LINE",
"1531.74 0 LINE"
);
}
);
width = 1681;
}
);
unicode = 0394;
},
{
glyphname = product;
layers = (
{
layerId = "480801EC-13EF-4D5E-B695-C7354D4C452E";
name = Regular;
paths = (
{
closed = 1;
nodes = (
"368.939 1267.79 LINE",
"1126.81 1267.79 LINE",
"1146.81 -393 LINE",
"1456.76 -393 LINE",
"1366.77 1472.75 LINE",
"129.978 1472.75 LINE",
"149.975 -393 LINE",
"458.924 -393 LINE"
);
}
);
width = 1536;
}
);
unicode = 220F;
},
{
glyphname = summation;
layers = (
{
layerId = "480801EC-13EF-4D5E-B695-C7354D4C452E";
name = Regular;
paths = (
{
closed = 1;
nodes = (
"149.975 -164 LINE",
"149.975 -393 LINE",
"1463.76 -393 LINE",
"1463.76 -121 LINE",
"456.924 -121 LINE",
"1350.78 562.906 LINE",
"478.92 1319.78 LINE",
"1437.76 1319.78 LINE",
"1437.76 1472.75 LINE",
"179.97 1472.75 LINE",
"179.97 1335.78 LINE",
"1074.82 556.907 LINE"
);
}
);
width = 1613;
}
);
unicode = 2211;
},
